/* XPM */
static char *result[] = {
/* columns rows colors chars-per-pixel */
"64 64 154 2 ",
"   c gray6",
".  c #1C313B",
"X  c #2F2F2F",
"o  c gray14",
"O  c #491B24",
"+  c #5E373F",
"@  c #652532",
"#  c #6C2836",
"$  c #732A39",
"%  c #7E393E",
"&  c #5F452E",
"*  c #5C502C",
"=  c #6F6138",
"-  c #776739",
";  c #786839",
":  c #706135",
">  c #223C48",
",  c #213A46",
"<  c #6B3D4E",
"1  c #783141",
"2  c #793948",
"3  c #24404D",
"4  c #284755",
"5  c #2C4C5C",
"6  c #274452",
"7  c #344A55",
"8  c #2F5263",
"9  c #315566",
"0  c #335A6B",
"q  c #325769",
"w  c #365E71",
"e  c #386275",
"r  c #3B667B",
"t  c #3A667A",
"y  c gray27",
"u  c #5D4B5E",
"i  c #555555",
"p  c #70504F",
"a  c #6E5958",
"s  c #5C4D60",
"d  c #51576B",
"f  c #48657A",
"g  c #6E6E6E",
"h  c #656565",
"j  c #776266",
"k  c #7B7B7B",
"l  c #82673E",
"z  c #86743E",
"x  c #833243",
"c  c #8D3446",
"v  c #8B3D4C",
"b  c #873A4A",
"n  c #9C3A4E",
"m  c #933949",
"M  c #A33D52",
"N  c #874042",
"B  c #964B48",
"V  c #9C524F",
"C  c #965A58",
"Z  c #A0504D",
"A  c #A55452",
"S  c #AB5552",
"D  c #B25956",
"F  c #B65B58",
"G  c #945663",
"H  c #995F6B",
"J  c #966463",
"K  c #97656F",
"L  c #9F6E78",
"P  c #9A7877",
"I  c #9B7675",
"U  c #A57A7D",
"Y  c #A18C4E",
"T  c #AD9552",
"R  c #B79E57",
"E  c #BBA259",
"W  c #A4956B",
"Q  c #A8817F",
"!  c #ADA17F",
"~  c #C0A65C",
"^  c #C2A85D",
"/  c #3E6D82",
"(  c #406F85",
")  c #4B6980",
"_  c #407086",
"`  c #43748B",
"'  c #4A768B",
"]  c #547B8D",
"[  c #577989",
"{  c #467A93",
"}  c #4A7C93",
"|  c #497F99",
" . c #537E91",
".. c #4B829C",
"X. c #5C8396",
"o. c #58859B",
"O. c #658593",
"+. c #678897",
"@. c #6C8D9D",
"#. c #7D929C",
"$. c #75929F",
"%. c #4D87A2",
"&. c #4E89A4",
"*. c #518BA6",
"=. c #518DAA",
"-. c #5390AD",
";. c #6B93A6",
":. c #7293A2",
">. c #7B97A4",
",. c #838383",
"<. c #8B8B8B",
"1. c #988385",
"2. c #80959F",
"3. c #949494",
"4. c #9F9F9F",
"5. c #AB868E",
"6. c #AE8C93",
"7. c #A99899",
"8. c #B4A09F",
"9. c #889FA9",
"0. c #849BA6",
"q. c #B59CA1",
"w. c #8FA0A8",
"e. c #94A4AC",
"r. c #9EAAAF",
"t. c #94A0A5",
"y. c #9AACB4",
"u. c #93A9B4",
"i. c #A4A4A4",
"p. c #AAAAAA",
"a. c #A3ABAE",
"s. c #B8A5A9",
"d. c #A0AFB6",
"f. c #A9B4BA",
"g. c #B5B5B5",
"h. c #B4BBBD",
"j. c gray",
"k. c #BAB5B6",
"l. c #C3BABC",
"z. c #B7BFC3",
"x. c #BAC0C3",
"c. c #C5C4C5",
"v. c #C9C4C5",
"b. c #CBCBCB",
"n. c #CBCFD1",
"m. c #CDD0D1",
"M. c #D3D3D3",
"N. c #D4D9DB",
"B. c #DDDCDC",
"V. c #E4E4E4",
"C. c #ECECEC",
"Z. c #F3F3F3",
"A. c #FFFFFF",
"S. c None",
/* pixels */
"S.S.S.S.S.S.S.S.S.S.S.S.S.S.S.S.S.S.S.S.S.S.S.S.S.S.S.S.S.S.S.S.S.S.S.S.S.S.S.S.S.S.S.S.S.S.S.S.S.S.S.S.S.S.S.S.S.S.S.S.S.S.S.S.",
"S.S.S.S.S.S.S.S.S.S.S.S.S.S.S.S.S.S.S.S.S.S.S.S.S.S.S.S.S.S.S.S.S.S.S.S.S.S.S.S.S.S.S.S.S.S.S.S.S.S.S.S.S.S.S.S.S.S.S.S.S.S.S.S.",
"S.S.S.S.S.S.S.S.S.S.S.S.S.S.S.S.S.S.S.S.S.S.S.S.S.S.S.S.S.S.S.S.S.S.S.S.S.S.S.S.S.S.S.S.S.S.S.S.S.S.S.S.S.S.S.S.S.S.S.S.S.S.S.S.",
"S.S.S.S.S.S.S.S.S.S.S.S.S.S.S.S.S.S.S.S.S.S.S.S.S.S.S.S.S.S.S.S.S.S.S.S.S.S.S.S.S.S.S.S.S.S.S.S.S.S.S.S.S.S.S.S.S.S.S.S.S.S.S.S.",
"S.S.S.S.S.S.S.S.S.S.S.S.S.S.S.S.S.S.S.S.S.S.S.S.S.S.S.S.S.S.S.S.S.S.S.S.S.S.S.S.S.S.S.S.S.S.S.S.S.S.S.S.S.S.S.S.S.S.S.S.S.S.S.S.",
"S.S.S.S.S.S.S.S.S.S.S.S.S.S.S.S.S.S.S.S.S.S.S.S.S.S.S.S.S.S.S.S.S.S.S.S.S.S.S.S.S.S.S.S.S.S.S.S.S.S.S.S.S.S.S.S.S.S.S.S.S.S.S.S.",
"S.S.S.S.S.S.S.S.S.S.S.S.S.S.S.S.S.S.S.S.S.S.S.S.S.S.S.S.S.S.S.S.S.S.S.S.S.S.S.S.S.S.S.S.S.S.S.S.S.S.S.S.S.S.S.S.S.S.S.S.S.S.S.S.",
"S.S.S.S.S.S.S.S.S.S.S.S.S.S.S.S.S.S.S.S.S.S.S.S.S.S.S.S.S.S.S.5 0 / / / e 5 S.S.S.S.S.S.S.S.S.S.S.S.S.S.S.S.S.S.S.S.S.S.S.S.S.S.",
"S.S.S.S.S.S.S.S.S.S.S.S.S.S.S.S.S.S.S.S.S.S.S.S.S.S.S.S.7 ..-.-.-.-.-.-.-.-.-...w S.S.S.S.S.S.S.S.S.S.S.S.S.S.S.S.S.S.S.S.S.S.S.",
"S.S.S.S.S.S.S.S.S.S.S.S.S.S.S.S.S.S.S.S.S.S.S.S.S.S.3.Z.x.=.-.-.-.-.-.-.-.-.-.-.-.-._ S.S.S.S.S.S.S.S.S.S.S.S.S.S.S.S.S.S.S.S.S.",
"S.S.S.S.S.S.S.S.S.S.S.S.S.S.S.S.S.S.S.S.S.S.S.S.S.M.A.A.c.*.-.-.-.-.-.-.-.-.-.-.-.-.-.=.0 S.S.S.S.S.S.S.S.S.S.S.S.S.S.S.S.S.S.S.",
"S.S.S.S.S.S.S.S.S.S.S.S.S.S.S.S.S.S.S.S.S.S.S.4.Z.A.A.A.e.-.-.-.-.-.-.-.-.-.-.-.-.-.-.-.=.%.4 S.S.S.S.S.S.S.S.S.S.S.S.S.S.S.S.S.",
"S.S.S.S.S.S.S.S.S.S.S.S.S.S.S.S.$ M M O S.S.g C.A.A.A.Z.o.=.-.-.-.-.-.-.-.-.-.-.-.-.-.-.-.-.=.8 S.S.S.S.S.S.S.S.S.S.S.S.S.S.S.S.",
"S.S.S.S.S.S.S.S.S.S.S.S.S.S.S.@ M M M M S.o   k A.A.A.0.=.=.-.-.-.-.-.-.-.-.-.-.-.-.-.-.-.-.-.-.e S.S.S.S.S.S.S.S.S.S.S.S.S.S.S.",
"S.S.S.S.S.S.S.S.S.S.S.S.S.S.S.$ M M M M + i.X B.A.C.c.V.b.y.+...-.-.-.-.-.-.-.-.-.-.-.-.-.-.-.-.=.t S.S.S.S.S.S.S.S.S.S.S.S.S.S.",
"S.S.S.S.S.S.S.S.S.S.S.S.S.S.S.# M M M v v.3.V.Z.M.B.A.Z.b.b.b.h.+.=.-.-.-.-.-.-.-.-.-.-.-.-.-.-.-.-.5 S.S.S.S.S.S.S.S.S.S.S.S.S.",
"S.S.S.S.S.S.S.S.S.S.S.S.S.S.S.S.@ M m 7.A.C.j.b.B.c.j.b.Z.A.A.A.Z.#.-.-.-.-.-.-.-.-.-.-.-.-.-.-.-.-.%.S.S.S.S.S.S.S.S.S.S.S.S.S.",
"S.S.S.S.S.S.S.S.S.S.S.S.S.S.S.S.S.S.y Z.A.A.A.C.V.A.A.A.A.A.A.A.A.A.w.-.-.-.-.-.-.-.-.-.-.-.-.-.-.-.-.9 S.S.S.S.S.S.S.S.S.S.S.S.",
"S.S.S.S.S.S.S.S.S.S.S.S.S.S.S.S.p.3.j.A.A.A.A.A.A.A.A.A.A.A.A.A.A.A.Z.;.-.-.-.-.-.-.-.-.-.-.-.-.-.-.-.=.S.S.S.S.S.S.S.S.S.S.S.S.",
"S.S.S.S.S.S.S.S.S.S.S.S.S.S.h A.A.A.A.A.A.A.A.A.B.j.j.j.j.c.j.j.j.M.A.B...-.-.-.-.-.-.-.-.-.-.-.-.-.-.-.8 S.S.S.S.S.S.S.S.S.S.S.",
"S.S.S.S.S.S.S.S.S.S.S.S.S.S.p.A.A.A.A.A.A.A.A.A.A.A.A.A.A.A.A.A.A.A.A.A.>.=.-.-.-.-.-.-.-.-.-.-.-.-.-.-.r S.S.S.S.S.S.S.S.S.S.S.",
"S.S.S.S.S.S.S.S.S.S.S.S.S.S.i.A.A.A.A.A.A.A.A.A.A.c.c.m.A.A.A.A.A.A.A.A.m.%.-.-.-.-.-.-.-.-.-.-.-.-.-.-...S.S.S.S.S.S.S.S.S.S.S.",
"S.S.S.S.S.S.S.S.S.S.S.S.S.S.<.A.A.A.A.A.A.A.A.A.A.A.A.b.a 1.V.A.A.A.A.A.A.] -.-.-.-.-.-.-.-.-.-.-.-.-.-.=.S.S.S.S.S.S.S.S.S.S.S.",
"S.S.S.S.S.S.S.S.S.S.S.S.S.S.S.N.A.A.A.A.A.A.B.l.8.U C Z D Z g.c.c.C.A.A.A.w.-.-.-.-.-.-.-.-.-.-.-.-.-.-.-.S.S.S.S.S.S.S.S.S.S.S.",
"S.S.S.S.S.S.S.S.S.S.S.S.S.S.S.S.i.p.i.j G b c % D F F F F V C.A.A.A.A.A.A.c.=.=.-.-.-.-.-.-.-.-.-.-.-.-.-.S.S.S.S.S.S.S.S.S.S.S.",
"S.S.S.S.S.S.S.S.S.S.S.S.S.S.S.S.S.S.S.S.n M % F F F F F F Q A.A.A.A.A.A.A.Z.{ -.-.-.-.-.-.-.-.-.-.-.-.-.-.S.S.S.S.S.S.S.S.S.S.S.",
"S.S.S.S.S.S.S.S.S.S.S.S.S.S.S.S.S.S.S.S.@ x S F F F F F A B.A.A.A.A.A.A.A.A.} -.-.-.-.-.-.-.-.-.-.-.-.-.-.S.S.S.S.S.S.S.S.S.S.S.",
"S.S.S.S.S.S.S.S.S.S.S.S.S.S.S.S.S.S.S.S.S.N F F F F F D 8.A.A.A.A.A.A.A.A.A.X.-.-.-.-.-.-.-.-.-.-.-.-.-.*.S.S.S.S.S.S.S.S.S.S.S.",
"S.S.S.S.S.S.S.S.S.S.S.S.S.S.S.S.S.S.S.S.S.S F F F F D J A.A.A.A.A.A.A.A.A.A. .-.-.-.-.-.-.-.-.-.-.-.-.-.` S.S.S.S.S.S.S.S.S.S.S.",
"S.S.S.S.S.S.S.S.S.S.S.S.S.S.S.S.S.S.S.S.S.F F F F F C V.A.A.A.A.A.A.A.A.A.A.' -.-.-.-.-.-.-.-.-.-.-.-.-.e S.S.S.S.S.S.S.S.S.S.S.",
"S.S.S.S.S.S.S.S.S.S.S.S.S.S.S.S.S.S.S.S.S.D F F F J V.A.A.A.A.A.A.A.A.A.A.B.| -.-.-.-.-.-.-.-.-.-.-.-.-.5 S.S.S.S.S.S.S.S.S.S.S.",
"S.S.S.S.S.S.S.S.S.S.S.S.S.S.S.S.S.S.S.S.S.B F S I C.A.A.A.A.A.A.A.A.A.A.A.a.-.-.-.-.-.-.-.-.-.-.-.-.-.%.S.S.S.S.S.S.S.S.S.S.S.S.",
"S.S.S.S.S.S.S.S.S.S.S.S.S.S.S.S.S.S.S.S.S.p P c.A.A.A.A.A.A.A.A.A.A.A.A.A.O.-.-.-.-.-.-.-.-.-.-.-.-.-.q S.S.S.S.S.S.S.S.S.S.S.S.",
"S.S.S.S.S.S.S.S.S.S.S.S.S.S.S.S.S.S.S.S.Z.A.A.A.A.A.A.A.A.A.A.A.A.A.A.A.N.} -.-.-.-.-.-.-.-.-.-.-.-.&.S.S.S.S.S.S.S.S.S.S.S.S.S.",
"S.S.S.S.S.S.S.S.S.S.S.S.S.S.S.S.S.S.S.S.k A.A.A.A.A.A.A.A.A.A.A.A.A.A.A.#.-.-.-.-.-.-.-.-.-.-.-.-.=.#.V.A.B.<.S.S.S.S.S.S.S.S.S.",
"S.S.S.S.S.S.S.S.S.S.S.S.S.S.S.S.S.S.S.S.S.4.A.A.A.A.A.A.A.A.A.A.A.A.A.n.} -.-.-.-.-.-.-.-.-.-.-.-.:.A.A.A.A.A.S.S.S.S.S.S.S.S.S.",
"S.S.S.S.S.S.S.S.S.S.S.S.S.S.S.S.S.S.S.S.S.S.s.l.M.Z.A.A.A.A.A.A.A.A.V.] -.-.-.-.-.-.-.-.=.` ` _ _ f.A.A.A.A.A.p.S.S.S.S.S.S.S.S.",
"S.S.S.S.S.S.S.S.S.S.S.S.S.S.S.S.S.S.S.* - - l m n c v G L 5.q.k.b.g.X.-.-.-.-.-.-.*./ / _ =.-.-.=.z.A.A.A.A.A.p.S.S.S.S.S.S.S.S.",
"S.S.S.S.S.S.S.S.S.S.S.S.S.S.S.S.S.S.S.z ^ Y : & x n M M M M M M M c 1 < u d f ( r / =.-.-.-.-.-.-.u.A.A.A.A.A.3.S.S.S.S.S.S.S.S.",
"S.S.S.S.S.S.S.S.S.S.S.S.S.S.S.S.S.S.S.z T ^ E = Z.M.l.s.6.U H 2 x m M M M x u { -.-.-.-.-.-.-.-.-.*.n.A.A.A.g.S.S.S.S.S.S.S.S.S.",
"S.S.S.S.S.S.S.S.S.S.S.S.S.S.S.S.S.S.S.R ^ ^ ^ 7.A.A.A.A.A.A.A.w.=...` ) f *.=.-.-.-.-.-.-.-.-.-.-.` S.S.3.S.S.S.S.S.S.S.S.S.S.S.",
"S.S.S.S.S.S.S.S.S.S.g c.b.,.S.S.S.S.S.S.Y ^ W C.A.A.A.A.A.A.A.V...=.-.=.-.-.-.-.-.-.-.-.-.-.-.-.( S.S.S.S.S.S.S.S.S.S.S.S.S.S.S.",
"S.S.S.S.S.S.S.S.S.,.A.A.A.A.,.S.S.S.S.S.V.b.A.A.A.A.A.A.A.A.A.A. .-.-.-.-.-.-.-.-.-.-.-.-.-.%.5 S.S.S.S.S.S.S.S.S.S.S.S.S.S.S.S.",
"S.S.S.S.S.S.S.S.S.Z.A.A.A.A.Z.S.S.S.S.k b.b.b.v.b.M.Z.A.A.A.A.A.X.-.-.-.-.-.-.-.-.-.-.-.=.e S.S.S.S.S.S.S.S.S.S.S.S.S.S.S.S.S.S.",
"S.S.S.S.S.S.S.S.3.A.A.A.A.A.A.@.-.-.*.b.A.A.A.A.A.Z.b.j.j.N.A.A. .-.-.-.-.-.-.-.-.-.=.{ . S.S.S.S.S.S.S.S.S.S.S.S.S.S.S.S.S.S.S.",
"S.S.S.S.S.S.S.S.g.A.A.A.A.A.A.e.-.-.} V.A.A.A.A.A.A.A.A.A.b.A.C...-.-.-.-.-.-.-.=.%.8 S.S.S.S.S.S.S.S.S.S.S.S.S.S.S.S.S.S.S.S.S.",
"S.S.S.S.S.S.S.S.N.A.A.A.A.A.A.h.-.-.` A.A.A.A.A.A.A.A.A.C.B.A.f.=.-.-.-.-.-.-.-.-.| S.S.S.S.S.S.S.S.S.S.S.S.S.S.S.S.S.S.S.S.S.S.",
"S.S.S.S.S.S.S.S.V.A.A.A.A.A.A.x.-.-.` M.A.A.A.A.A.A.A.A.j.A.Z.o.-.-.-.-.-.-.-.-.-.-.0 S.S.$ x @ S.S.S.S.S.S.S.S.S.S.S.S.S.S.S.S.",
"S.S.S.S.S.S.S.S.B.A.A.A.A.A.A.x.-.-.{ V.c.A.A.A.A.A.A.g.C.A.:.-.-.-.-.-.-.-.-.-.-.-.w S.@ Z M M S.S.S.S.S.S.S.S.S.S.S.S.S.S.S.S.",
"S.S.S.S.S.S.S.S.c.A.A.A.A.A.A.h.-.-.*.c.A.b.c.b.b.b.c.Z.Z.w.-.-.-.-.-.-.-.-.-.-.-.-.@.Z.v.K n M S.S.S.S.S.S.S.S.S.S.S.S.S.S.S.S.",
"S.S.S.S.S.S.S.S.p.A.A.A.A.A.A.y.-.-.-.} t.Z.A.A.A.A.A.N.;.-.-.-.-.-.-.-.-.-.-.-.-.-.:.A.A.A.5.# S.S.S.S.S.S.S.S.S.S.S.S.S.S.S.S.",
"S.S.S.S.S.S.S.S.,.A.A.A.A.A.A.0.-.-.-.-.-.' 2.r.y.y.;.*.-.-.-.-.-.-.-.-.-.-.-.-.-.-.$.A.A.A.Z.i S.S.S.S.S.S.S.S.S.S.S.S.S.S.S.S.",
"S.S.S.S.S.S.S.S.S.V.A.A.A.A.Z. .-.-.-.-.-.-.-.-.-.-.-.-.-.-.-.-.-.-.-.-.-.-.-.-.-.-.9.A.A.A.A.V.S.S.S.S.S.S.S.S.S.S.S.S.S.S.S.S.",
"S.S.S.S.S.S.S.S.S.i Z.A.A.A.t.=.-.-.-.-.-.-.-.-.-.-.-.-.-.-.-.-.-.-.-.-.-.-.-.-.-.-.[ A.A.A.A.A.3.S.S.S.S.S.S.S.S.S.S.S.S.S.S.S.",
"S.S.S.S.S.S.S.S.S.S.S.3.i.g S.S.S.3 5 q e &.-.-.-.-.-.-.-.-.-.-.-.-.-.-.-.-.-.-.-.=.{ C.A.A.A.A.g.S.S.S.S.S.S.S.S.S.S.S.S.S.S.S.",
"S.S.S.S.S.S.S.S.S.S.S.S.S.S.S.S.S.S.S.S.S.S.S.q r *.-.-.-.-.-.-.-.-.-.-.-.-.-.-.-.=.*.M.A.A.A.A.C.S.S.S.S.S.S.S.S.S.S.S.S.S.S.S.",
"S.S.S.S.S.S.S.S.S.S.S.S.S.S.S.S.S.S.S.S.S.S.S.S.S.S.5 r -.-.-.-.-.-.-.-.-.-.-.-.-.-.=.M.A.A.A.A.A.S.S.S.S.S.S.S.S.S.S.S.S.S.S.S.",
"S.S.S.S.S.S.S.S.S.S.S.S.S.S.S.S.S.S.S.S.S.S.S.S.S.S.S.S.S.r -.=.-.-.-.=.-.-.-.-.-.-.{ Z.A.A.A.A.A.S.S.S.S.S.S.S.S.S.S.S.S.S.S.S.",
"S.S.S.S.S.S.S.S.S.S.S.S.S.S.S.S.S.S.S.S.S.S.S.S.S.S.S.S.S.S.S.0 *.-.-.=.-.-.-.-.=.-.>.A.A.A.A.A.C.S.S.S.S.S.S.S.S.S.S.S.S.S.S.S.",
"S.S.S.S.S.S.S.S.S.S.S.S.S.S.S.S.S.S.S.S.S.S.S.S.S.S.S.S.S.S.S.S.S.4 r %.-.-.-.-.&.q ,.A.A.A.A.A.p.S.S.S.S.S.S.S.S.S.S.S.S.S.S.S.",
"S.S.S.S.S.S.S.S.S.S.S.S.S.S.S.S.S.S.S.S.S.S.S.S.S.S.S.S.S.S.S.S.S.S.S.S.S.> > > S.S.S.j.A.A.A.Z.S.S.S.S.S.S.S.S.S.S.S.S.S.S.S.S.",
"S.S.S.S.S.S.S.S.S.S.S.S.S.S.S.S.S.S.S.S.S.S.S.S.S.S.S.S.S.S.S.S.S.S.S.S.S.S.S.S.S.S.S.S.g.b.p.S.S.S.S.S.S.S.S.S.S.S.S.S.S.S.S.S.",
"S.S.S.S.S.S.S.S.S.S.S.S.S.S.S.S.S.S.S.S.S.S.S.S.S.S.S.S.S.S.S.S.S.S.S.S.S.S.S.S.S.S.S.S.S.S.S.S.S.S.S.S.S.S.S.S.S.S.S.S.S.S.S.S.",
"S.S.S.S.S.S.S.S.S.S.S.S.S.S.S.S.S.S.S.S.S.S.S.S.S.S.S.S.S.S.S.S.S.S.S.S.S.S.S.S.S.S.S.S.S.S.S.S.S.S.S.S.S.S.S.S.S.S.S.S.S.S.S.S."
};
