/* XPM */
static char *result[] = {
/* columns rows colors chars-per-pixel */
"64 64 161 2 ",
"   c #070707",
".  c #1E1E1E",
"X  c #3A151D",
"o  c gray14",
"O  c #35323E",
"+  c #4B1B25",
"@  c #49262D",
"#  c #5D222E",
"$  c #652532",
"%  c #6F2937",
"&  c #6A2735",
"*  c #712A38",
"=  c #683033",
"-  c #723937",
";  c #655830",
":  c #695B32",
">  c #756534",
",  c #1E3640",
"<  c #233E4A",
"1  c #6F3747",
"2  c #683D4A",
"3  c #25414E",
"4  c #294857",
"5  c #2B4B59",
"6  c #274552",
"7  c #2E5262",
"8  c #345A6C",
"9  c #305465",
"0  c #375F72",
"q  c #396377",
"w  c #3A667A",
"e  c #3C697E",
"r  c #5C4759",
"t  c #754D4E",
"y  c #685944",
"u  c #654456",
"i  c #714D53",
"p  c #7E7352",
"a  c #585468",
"s  c #575D73",
"d  c #644D60",
"f  c #615367",
"g  c #4F6670",
"h  c #42697C",
"j  c #506479",
"k  c #6B6B6B",
"l  c #64767F",
"z  c #747474",
"x  c #7B7B7B",
"c  c #80353F",
"v  c #806F3D",
"b  c #85733F",
"n  c #853344",
"m  c #8E3547",
"M  c #893C4B",
"N  c #95374A",
"B  c #9A394D",
"V  c #A43D52",
"C  c #8C4344",
"Z  c #924946",
"A  c #9D4E4C",
"S  c #8C4453",
"D  c #8E5351",
"F  c #98595A",
"G  c #A04F4D",
"H  c #AD5653",
"J  c #A05553",
"K  c #B35A57",
"L  c #B65B58",
"P  c #8B7842",
"I  c #927E46",
"U  c #8B5963",
"Y  c #965966",
"T  c #8E6160",
"R  c #976967",
"E  c #956469",
"W  c #956E76",
"Q  c #8F7278",
"!  c #978759",
"~  c #9E8C57",
"^  c #A28C4D",
"/  c #B29A55",
"(  c #BFA65B",
")  c #C2A85D",
"_  c #C1A75C",
"`  c #3E6C82",
"'  c #406F86",
"]  c #407087",
"[  c #44758C",
"{  c #4D798E",
"}  c #4B7188",
"|  c #5B7D8C",
" . c #557787",
".. c #467A92",
"X. c #4A7C94",
"o. c #4A7F99",
"O. c #617D8A",
"+. c #4B829D",
"@. c #518097",
"#. c #5D8091",
"$. c #61808F",
"%. c #698897",
"&. c #678A9A",
"*. c #748B96",
"=. c #7C9099",
"-. c #4D86A1",
";. c #4F89A5",
":. c #5086A0",
">. c #508BA6",
",. c #518EAA",
"<. c #5390AD",
"1. c #658FA3",
"2. c #7594A2",
"3. c #7F98A3",
"4. c #848484",
"5. c #8C8C8C",
"6. c #9B8988",
"7. c #87969C",
"8. c #929292",
"9. c #AE8D8C",
"0. c #A39B84",
"q. c #A78B91",
"w. c #AC989C",
"e. c #A9A18A",
"r. c #839AA5",
"t. c #809BA8",
"y. c #929EA4",
"u. c #B19FA3",
"i. c #8CA2AC",
"p. c #9AA5AA",
"a. c #8DA5B0",
"s. c #9EAAB1",
"d. c #A4A4A4",
"f. c #ABABAB",
"g. c #ADA5A7",
"h. c #B7AAAB",
"j. c #A7ADB0",
"k. c #A8B5BB",
"l. c #A8B1B5",
"z. c #B3B3B3",
"x. c #B5BBBE",
"c. c #BCBCBC",
"v. c #BAB6B7",
"b. c #C1B1B1",
"n. c #C2BABA",
"m. c #B9BFC2",
"M. c #BCC1C4",
"N. c #BDC5C8",
"B. c #C5C6C6",
"V. c #CAC6C6",
"C. c #C6C8C9",
"Z. c #CCCCCC",
"A. c #D2D3D3",
"S. c #DBDBDB",
"D. c #D6D8D9",
"F. c #E0DFDF",
"G. c #E4E4E4",
"H. c #ECECEC",
"J. c #F3F3F3",
"K. c #FFFFFF",
"L. c None",
/* pixels */
"L.L.L.L.L.L.L.L.L.L.L.L.L.L.L.L.L.L.L.L.L.L.L.L.L.L.L.L.L.L.L.L.L.L.L.L.L.L.L.L.L.L.L.L.L.L.L.L.L.L.L.L.L.L.L.L.L.L.L.L.L.L.L.L.",
"L.L.L.L.L.L.L.L.L.L.L.L.L.L.L.L.L.L.L.L.L.L.L.L.L.L.L.L.L.L.L.L.L.L.L.L.L.L.L.L.L.L.L.L.L.L.L.L.L.L.L.L.L.L.L.L.L.L.L.L.L.L.L.L.",
"L.L.L.L.L.L.L.L.L.L.L.L.L.L.L.L.L.L.L.L.L.L.L.L.L.L.L.L.L.L.L.L.L.L.L.L.L.L.L.L.L.L.L.L.L.L.L.L.L.L.L.L.L.L.L.L.L.L.L.L.L.L.L.L.",
"L.L.L.L.L.L.L.L.L.L.L.L.L.L.L.L.L.L.L.L.L.L.L.L.L.L.L.L.L.L.L.L.L.L.L.L.L.L.L.L.L.L.L.L.L.L.L.L.L.L.L.L.L.L.L.L.L.L.L.L.L.L.L.L.",
"L.L.L.L.L.L.L.L.L.L.L.L.L.L.L.L.L.L.L.L.L.L.L.L.L.L.L.L.L.L.L.L.L.L.L.L.L.L.L.L.L.L.L.L.L.L.L.L.L.L.L.L.L.L.L.L.L.L.L.L.L.L.L.L.",
"L.L.L.L.L.L.L.L.L.L.L.L.L.L.L.L.L.L.L.L.L.L.L.L.L.L.L.L.L.L.L.L.L.L.L.L.L.L.L.L.L.L.L.L.L.L.L.L.L.L.L.L.L.L.L.L.L.L.L.L.L.L.L.L.",
"L.L.L.L.L.L.L.L.L.L.L.L.L.L.L.L.L.L.L.L.L.L.L.L.L.L.L.L.L.L.L.L.L.L.L.L.L.L.L.L.L.L.L.L.L.L.L.L.L.L.L.L.L.L.L.L.L.L.L.L.L.L.L.L.",
"L.L.L.L.L.L.L.L.L.L.L.L.L.L.L.L.L.L.L.L.L.L.L.L.L.L.L.L.L.L.L.5 8 7 7 7 L.L.L.L.L.L.L.L.L.L.L.L.L.L.L.L.L.L.L.L.L.L.L.L.L.L.L.L.",
"L.L.L.L.L.L.L.L.L.L.L.L.L.L.L.L.L.L.L.L.L.L.L.L.L.L.L.8 ' ,.<.<.,.<.<.<.<.<...9 L.L.L.L.L.L.L.L.L.L.L.L.L.L.L.L.L.L.L.L.L.L.L.L.",
"L.L.L.L.L.L.L.L.L.L.L.L.L.L.L.L.L.L.L.L.L.L.L.L.3 ..<.<.<.<.<.<.<.<.<.<.<.<.,.<.<.q L.L.L.L.L.L.L.L.L.L.L.L.L.L.L.L.L.L.L.L.L.L.",
"L.L.L.L.L.L.L.L.L.L.L.L.L.L.L.L.L.L.L.L.L.L.4 ..<.<.<.<.<.<.<.<.<.<.<.<.<.<.<.<.<.<.h L.L.L.L.L.L.L.L.L.L.L.L.L.L.L.L.L.L.L.L.L.",
"L.L.L.L.L.L.L.L.L.L.L.L.L.L.L.L.L.L.L.L.L.w <.<.<.<.<.<.<.<.<.<.<.<.<.<.<.<.<.<.<.,.x.J.4.L.L.L.L.L.L.L.L.L.L.L.L.L.L.L.L.L.L.L.",
"L.L.L.L.L.L.L.L.L.L.L.L.L.L.L.L.L.L.L.L.] <.<.<.<.<.<.<.<.<.<.<.<.<.<.<.<.<.<.<.<.>.D.K.K.5.L.L.L.L.L.L.L.L.L.L.L.L.L.L.L.L.L.L.",
"L.L.L.L.L.L.L.L.L.L.L.L.L.L.L.L.L.L.L.' <.<.<.<.<.<.<.<.<.<.<.<.<.<.<.<.<.<.<.<.<.,.M.K.K.K.z L.L.L.L.L.L.L.L.L.L.L.L.L.L.L.L.L.",
"L.L.L.L.L.L.L.L.L.L.L.L.L.L.L.L.L.L.q <.<.<.<.<.<.<.<.<.<.<.<.<.<.<.<.<.<.<.<.<.<.,.3.K.K.K.J.L.L.L.L.L.L.L.L.L.L.L.L.L.L.L.L.L.",
"L.L.L.L.L.L.L.L.L.L.L.L.L.L.L.L.L.< ,.<.<.<.<.<.<.<.<.<.<.<.<.<.<.<.<.<.<.<.-.{ &.&. .D.K.K.D.z L.L.L.L.L.L.L.L.L.L.L.L.L.L.L.L.",
"L.L.L.L.L.L.L.L.L.L.L.L.L.L.L.L.L.] <.<.<.<.<.<.<.<.<.<.<.<.<.<.<.<.<.,.[ =.f.z.J.K.K.c.K.K.d.  o L.* V V % L.L.L.L.L.L.L.L.L.L.",
"L.L.L.L.L.L.L.L.L.L.L.L.L.L.L.L., <.<.<.<.<.<.<.<.<.<.<.<.<.<.<.<.<.;.*.G.K.K.K.C.n.H.J.f.J.G.. f.@ V V V V + L.L.L.L.L.L.L.L.L.",
"L.L.L.L.L.L.L.L.L.L.L.L.L.L.L.L.` <.<.<.<.<.<.<.<.<.<.<.<.<.<.<.<.o.s.K.K.K.K.K.K.K.A.c.G.c.Z.B.x Q V V V V # L.L.L.L.L.L.L.L.L.",
"L.L.L.L.L.L.L.L.L.L.L.L.L.L.L.L.<.<.<.<.<.<.<.<.<.<.<.<.<.<.<.<.o.z.K.J.K.K.K.K.K.K.K.K.Z.c.J.c.H.D.N V V V X L.L.L.L.L.L.L.L.L.",
"L.L.L.L.L.L.L.L.L.L.L.L.L.L.L.5 <.<.<.<.<.<.<.<.<.<.<.<.<.<.,.,.y.K.K.H.Z.Z.Z.Z.S.K.K.K.K.K.K.K.K.K.2 c n + L.L.L.L.L.L.L.L.L.L.",
"L.L.L.L.L.L.L.L.L.L.L.L.L.L.L.0 <.<.<.<.<.<.<.<.<.<.<.<.<.<.<.$.K.K.K.K.K.K.K.K.H.Z.Z.Z.G.K.K.K.K.K.8.L.L.L.L.L.L.L.L.L.L.L.L.L.",
"L.L.L.L.L.L.L.L.L.L.L.L.L.L.L.` <.<.<.<.<.<.<.<.<.<.<.<.<.<.-.B.K.K.K.K.K.K.K.K.K.K.K.K.K.K.K.K.K.K.B.z L.L.L.L.L.L.L.L.L.L.L.L.",
"L.L.L.L.L.L.L.L.L.L.L.L.L.L.L...<.<.<.<.<.<.<.<.<.<.<.<.<.<.| K.K.K.K.K.K.H.Z.z.Z.Z.Z.G.K.K.K.K.K.K.K.K.K.c.L.L.L.L.L.L.L.L.L.L.",
"L.L.L.L.L.L.L.L.L.L.L.L.L.L.L.-.<.<.<.<.<.<.<.<.<.<.<.<.<.+.C.K.K.K.K.Z.Z.S.D H R n.K.K.K.K.K.K.K.K.K.K.K.K.L.L.L.L.L.L.L.L.L.L.",
"L.L.L.L.L.L.L.L.L.L.L.L.L.L.L.;.<.<.<.<.<.<.<.<.<.<.<.<.<.| K.K.K.K.K.K.K.K.Z L L H F B.K.K.K.K.K.K.K.K.K.K.L.L.L.L.L.L.L.L.L.L.",
"L.L.L.L.L.L.L.L.L.L.L.L.L.L.L.+.<.<.<.<.<.<.<.<.<.<.<.<.<.i.K.K.K.K.K.K.K.K.F L L L L A i g.H.K.K.K.K.K.K.B.L.L.L.L.L.L.L.L.L.L.",
"L.L.L.L.L.L.L.L.L.L.L.L.L.L.L...<.<.<.<.<.<.<.<.<.<.<.<.,.x.K.K.K.K.K.K.K.K.9.L L L L L C N M W g.H.K.K.G.L.L.L.L.L.L.L.L.L.L.L.",
"L.L.L.L.L.L.L.L.L.L.L.L.L.L.L.e <.<.<.<.<.<.<.<.<.<.<.<.;.A.K.K.K.K.K.K.K.K.V.K L L L L L - V N L.L.L.5.L.L.L.L.L.L.L.L.L.L.L.L.",
"L.L.L.L.L.L.L.L.L.L.L.L.L.L.L.8 <.<.<.<.<.<.<.<.<.<.<.<.o.H.K.K.K.K.K.K.K.K.K.F L L L L L C B L.L.L.L.L.L.L.L.L.L.L.L.L.L.L.L.L.",
"L.L.L.L.L.L.L.L.L.L.L.L.L.L.L.4 <.<.<.<.<.<.<.<.<.<.<.<...J.K.K.K.K.K.K.K.K.K.h.K K L L L G X L.L.L.L.L.L.L.L.L.L.L.L.L.L.L.L.L.",
"L.L.L.L.L.L.L.L.L.L.L.L.L.d.Z.B.i.>.<.<.<.<.<.<.<.<.<.<.+.G.K.K.K.K.K.K.K.K.K.K.E L L L L K L.L.L.L.L.L.L.L.L.L.L.L.L.L.L.L.L.L.",
"L.L.L.L.L.L.L.L.L.L.L.L.c.K.K.K.K.a.<.<.<.<.<.<.<.<.<.<.,.C.K.K.K.K.K.K.K.K.K.K.G.A L L L Z L.L.L.L.L.L.L.L.L.L.L.L.L.L.L.L.L.L.",
"L.L.L.L.L.L.L.L.L.L.L.L.K.K.K.K.K.A.>.<.<.<.<.<.<.<.<.<.<.l.K.K.K.K.K.K.K.K.K.K.K.b.H L L - L.L.L.L.L.L.L.L.L.L.L.L.L.L.L.L.L.L.",
"L.L.L.L.L.L.L.L.L.L.L.L.K.K.K.K.K.G.q ' o.<.<.<.<.<.<.<.<.&.K.K.K.K.K.K.K.K.K.K.K.K.b.J L L.L.L.L.L.L.L.L.L.L.L.L.L.L.L.L.L.L.L.",
"L.L.L.L.L.L.L.L.L.L.L.L.K.K.K.K.K.N.<.<...q >.,.<.<.<.<.,.+.A.K.K.K.K.K.K.K.K.K.K.K.K.S.6.k L.L.L.L.L.L.L.L.L.L.L.L.L.L.L.L.L.L.",
"L.L.L.L.L.L.L.L.L.L.L.L.x J.K.K.G.1.<.<.<.,.] ` ;.<.<.<.<.<.| J.K.K.K.K.K.K.K.K.K.K.K.K.K.K.5.L.L.L.L.L.L.L.L.L.L.L.L.L.L.L.L.L.",
"L.L.L.L.L.L.L.L.L.L.L.L.L.L.8.l -.,.<.<.<.<.<.<.` [ <.<.<.,.,.r.K.K.K.K.K.K.K.K.K.K.K.K.K.H.L.L.L.L.L.L.L.L.L.L.L.L.L.L.L.L.L.L.",
"L.L.L.L.L.L.L.L.L.L.L.L.L.L.L.L.+.<.<.<.<.<.<.<.,.+.< 1 2 u u r W q.w.h.v.B.A.H.K.K.K.K.J.L.L.L.L.L.L.L.L.L.L.L.L.L.L.L.L.L.L.L.",
"L.L.L.L.L.L.L.L.L.L.L.L.L.L.L.L.L.-.<.<.<.<.<.<.<.,.>.d B V V V V V V V V V N m n n S t y L.L.L.L.L.L.L.L.L.L.L.L.L.L.L.L.L.L.L.",
"L.L.L.L.L.L.L.L.L.L.L.L.L.L.L.L.L.< >.<.<.<.<.<.<.<.<.<.} j s s a f d U E Y F S M n & > : b ; L.L.L.L.L.L.L.L.L.L.L.L.L.L.L.L.L.",
"L.L.L.L.L.L.L.L.L.L.L.L.L.L.L.L.L.L.3 ,.<.<.<.<.<.<.<.<.<.<.<.<.<.<.{ K.K.K.K.K.K.K.p ^ ( ) ^ L.L.L.L.L.L.L.L.L.L.L.L.L.L.L.L.L.",
"L.L.L.L.L.L.L.L.L.L.L.L.L.L.L.L.L.L.L.6 ;.<.<.<.<.<.<.<.<.<.<.<.<.<.r.K.K.K.K.K.K.K.~ ( ) / > L.L.L.L.L.L.L.L.L.L.L.L.L.L.L.L.L.",
"L.L.L.L.L.L.L.L.L.L.L.L.L.L.L.L.L.L.L.L.L.o.<.<.<.<.<.<.<.<.<.<.<.<.M.K.K.K.K.K.K.K.e.( ) ) P L.L.L.L.L.L.L.L.L.L.L.L.L.L.L.L.L.",
"L.L.L.L.L.L.L.L.L.L.L.L.L.L.L.L.L.L.L.L.L.L.[ <.<.<.<.<.<.<.<.<.<.-.D.K.K.K.K.K.K.K.K.0.! ; L.L.L.L.L.L.L.L.L.L.L.L.L.L.L.L.L.L.",
"L.L.L.L.L.L.L.L.L.L.L.L.L.L.L.L.L.L.L.L.L.L...` ;.<.<.<.<.<.<.<.<.o.G.K.K.A.Z.Z.Z.Z.Z.Z.z.L.L.L.L.L.L.L.L.L.L.L.L.L.L.L.L.L.L.L.",
"L.L.L.L.L.L.L.L.L.L.L.L.L.L.L.L.L.$ % + L.L.<.<.-.<.<.<.<.<.<.<.<.+.D.K.K.B.K.K.K.K.K.K.c.L.L.L.L.L.L.L.L.L.L.L.L.L.L.L.L.L.L.L.",
"L.L.L.L.L.L.L.L.L.L.L.L.L.L.L.L.# V V V L.L.<.<.<.<.<.<.<.<.<.<.<.<.x.K.K.c.K.K.K.K.K.K.4.L.L.L.L.L.L.L.L.L.L.L.L.L.L.L.L.L.L.L.",
"L.L.L.L.L.L.L.L.L.L.L.L.L.L.L.L.$ V V V L.L.-.,.<.<.<.<.<.<.<.<.<.<.r.K.K.c.K.K.K.K.K.K.L.L.L.L.L.L.L.L.L.L.L.L.L.L.L.L.L.L.L.L.",
"L.L.L.L.L.L.L.L.L.L.L.L.L.L.L.L.L.N B & L.d...<.<.<.<.<.<.<.<.<.<.<.{ H.K.A.G.K.K.K.K.c.L.L.L.L.L.L.L.L.L.L.L.L.L.L.L.L.L.L.L.L.",
"L.L.L.L.L.L.L.L.L.L.L.L.L.L.L.L.L.L.L.L.S.K.&.<.<.<.<.<.<.<.<.<.<.<.<.*.K.K.c.J.K.K.J.k L.L.L.L.L.L.L.L.L.L.L.L.L.L.L.L.L.L.L.L.",
"L.L.L.L.L.L.L.L.L.L.L.L.L.L.L.L.L.L.L.4.K.K.j.<.<.<.<.<.<.<.<.<.<.<.,.+.7.K.K.B.c.c.5.L.L.L.L.L.L.L.L.L.L.L.L.L.L.L.L.L.L.L.L.L.",
"L.L.L.L.L.L.L.L.L.L.L.L.L.L.L.L.L.L.L.f.K.K.G...<.<.<.<.<.<.<.<.<.<.<.<.;.| i.k.k.7.L.L.L.L.L.L.L.L.L.L.L.L.L.L.L.L.L.L.L.L.L.L.",
"L.L.L.L.L.L.L.L.L.L.L.L.L.L.L.L.L.L.L.8.K.K.K.y.,.<.<.<.<.<.<.<.<.<.<.<.,...<.<.-.q L.L.L.L.L.L.L.L.L.L.L.L.L.L.L.L.L.L.L.L.L.L.",
"L.L.L.L.L.L.L.L.L.L.L.L.L.L.L.L.L.L.L.L.K.K.K.K.$.<.<.<.<.<.<.<.<.<.<.<.<.q <.<.<.-.L.L.L.L.L.L.L.L.L.L.L.L.L.L.L.L.L.L.L.L.L.L.",
"L.L.L.L.L.L.L.L.L.L.L.L.L.L.L.L.L.L.L.L.A.K.K.K.S.@.<.<.<.<.<.<.<.<.<.<.<.' >.<.<.+.L.L.L.L.L.L.L.L.L.L.L.L.L.L.L.L.L.L.L.L.L.L.",
"L.L.L.L.L.L.L.L.L.L.L.L.L.L.L.L.L.L.L.L.x K.K.K.K.D.| ,.<.<.<.<.<.<.<.<.<.q ,.<.,.0 L.L.L.L.L.L.L.L.L.L.L.L.L.L.L.L.L.L.L.L.L.L.",
"L.L.L.L.L.L.L.L.L.L.L.L.L.L.L.L.L.L.L.L.L.Z.K.K.K.K.K.7.o.<.<.<.<.<.<.<.[ [ ,.[ g L.L.L.L.L.L.L.L.L.L.L.L.L.L.L.L.L.L.L.L.L.L.L.",
"L.L.L.L.L.L.L.L.L.L.L.L.L.L.L.L.L.L.L.L.L.L.K.K.K.K.K.K.Z.p.i.3.2.2.r.s.j.m.Z.J.K.5.L.L.L.L.L.L.L.L.L.L.L.L.L.L.L.L.L.L.L.L.L.L.",
"L.L.L.L.L.L.L.L.L.L.L.L.L.L.L.L.L.L.L.L.L.L.4.K.K.K.K.K.c.K.K.K.K.K.K.K.K.K.K.K.K.A.L.L.L.L.L.L.L.L.L.L.L.L.L.L.L.L.L.L.L.L.L.L.",
"L.L.L.L.L.L.L.L.L.L.L.L.L.L.L.L.L.L.L.L.L.L.L.x J.K.S.x 5.K.K.K.K.K.K.K.K.K.K.K.K.z.L.L.L.L.L.L.L.L.L.L.L.L.L.L.L.L.L.L.L.L.L.L.",
"L.L.L.L.L.L.L.L.L.L.L.L.L.L.L.L.L.L.L.L.L.L.L.L.L.L.L.L.L.L.f.G.K.K.K.K.K.K.G.v.5.L.L.L.L.L.L.L.L.L.L.L.L.L.L.L.L.L.L.L.L.L.L.L.",
"L.L.L.L.L.L.L.L.L.L.L.L.L.L.L.L.L.L.L.L.L.L.L.L.L.L.L.L.L.L.L.L.L.L.L.L.L.L.L.L.L.L.L.L.L.L.L.L.L.L.L.L.L.L.L.L.L.L.L.L.L.L.L.L.",
"L.L.L.L.L.L.L.L.L.L.L.L.L.L.L.L.L.L.L.L.L.L.L.L.L.L.L.L.L.L.L.L.L.L.L.L.L.L.L.L.L.L.L.L.L.L.L.L.L.L.L.L.L.L.L.L.L.L.L.L.L.L.L.L."
};
