/* XPM */
static char *result[] = {
/* columns rows colors chars-per-pixel */
"64 64 146 2 ",
"   c gray1",
".  c #2D151A",
"X  c #3C161E",
"o  c #3D351D",
"O  c #363636",
"+  c #3C3C3C",
"@  c #43391B",
"#  c #481B24",
"$  c #541F2A",
"%  c #5C222E",
"&  c #642532",
"*  c #722A39",
"=  c #7C2D3D",
"-  c #79373B",
";  c #594D2A",
":  c #5A4133",
">  c #715836",
",  c #726335",
"<  c #243F4C",
"1  c #493643",
"2  c #7C3444",
"3  c #25414E",
"4  c #2C4D5C",
"5  c #284553",
"6  c #2F5162",
"7  c #315566",
"8  c #33596A",
"9  c #365E71",
"0  c #376174",
"q  c #386275",
"w  c #3A6579",
"e  c #3C697E",
"r  c #574A48",
"t  c #5A5757",
"y  c #575A5C",
"u  c #465669",
"i  c #4A6E7F",
"p  c #5C737E",
"a  c #666666",
"s  c #6D6D6D",
"d  c #767676",
"f  c #7A7B7C",
"g  c #806F3D",
"h  c #802F40",
"j  c #853242",
"k  c #8E3547",
"l  c #823E4C",
"z  c #95374A",
"x  c #9B394D",
"c  c #A43D52",
"v  c #8D4444",
"b  c #8D4B49",
"n  c #914846",
"m  c #8C4E5B",
"M  c #884452",
"N  c #8C535F",
"B  c #945856",
"V  c #A3524F",
"C  c #A45351",
"Z  c #AB5653",
"A  c #B55A57",
"S  c #B65B58",
"D  c #847752",
"F  c #915E68",
"G  c #856261",
"H  c #9E7877",
"J  c #987078",
"K  c #997877",
"L  c #A67675",
"P  c #9C874B",
"I  c #A79150",
"U  c #B49B56",
"Y  c #BAA159",
"T  c #988E71",
"R  c #C1A75C",
"E  c #C2A85D",
"W  c #3E6D82",
"Q  c #416F84",
"!  c #42738A",
"~  c #4B778D",
"^  c #4A7487",
"/  c #507A8E",
"(  c #5F7F8E",
")  c #477B93",
"_  c #497C94",
"`  c #497F98",
"'  c #557D91",
"]  c #687F89",
"[  c #4B829C",
"{  c #5E8191",
"}  c #53869E",
"|  c #62808F",
" . c #6D828B",
".. c #798184",
"X. c #628392",
"o. c #6B8A99",
"O. c #748790",
"+. c #728E9B",
"@. c #718B97",
"#. c #7A909A",
"$. c #4D86A1",
"%. c #4F89A5",
"&. c #508BA7",
"*. c #518EAA",
"=. c #5390AD",
"-. c #7793A0",
";. c #858585",
":. c #8C8C8C",
">. c #9D8080",
",. c #838E93",
"<. c #83959E",
"1. c #949494",
"2. c #9E9E9E",
"3. c #A98C8B",
"4. c #A39C89",
"5. c #AB9295",
"6. c #8097A2",
"7. c #819AA5",
"8. c #8F9EA5",
"9. c #879FAA",
"0. c #919BA0",
"q. c #B59BA0",
"w. c #A2A2A2",
"e. c #ADACAC",
"r. c #B8A2A4",
"t. c #BBA8AB",
"y. c #A1AFB6",
"u. c #BDAFB2",
"i. c #AEB7BC",
"p. c #B3B3B4",
"a. c #B3B9BC",
"s. c #BDBDBD",
"d. c #C3B8BB",
"f. c #BEC2C4",
"g. c #C4C3C3",
"h. c #CCCCCC",
"j. c #C3C9CC",
"k. c #CDD0D1",
"l. c #D3D3D3",
"z. c #D3D7D8",
"x. c #DCDCDC",
"c. c #E4E4E4",
"v. c #ECECEC",
"b. c #F4F4F4",
"n. c #FFFFFF",
"m. c None",
/* pixels */
"m.m.m.m.m.m.m.m.m.m.m.m.m.m.m.m.m.m.m.m.m.m.m.m.m.m.m.m.m.m.m.m.m.m.m.m.m.m.m.m.m.m.m.m.m.m.m.m.m.m.m.m.m.m.m.m.m.m.m.m.m.m.m.m.",
"m.m.m.m.m.m.m.m.m.m.m.m.m.m.m.m.m.m.m.m.m.m.m.m.m.m.m.m.m.m.m.m.m.m.m.m.m.m.m.m.m.m.m.m.m.m.m.m.m.m.m.m.m.m.m.m.m.m.m.m.m.m.m.m.",
"m.m.m.m.m.m.m.m.m.m.m.m.m.m.m.m.m.m.m.m.m.m.m.m.m.m.m.m.m.m.m.m.m.m.m.m.m.m.m.m.m.m.m.m.m.m.m.m.m.m.m.m.m.m.m.m.m.m.m.m.m.m.m.m.",
"m.m.m.m.m.m.m.m.m.m.m.m.m.m.m.m.m.m.m.m.m.m.m.m.m.m.m.m.m.m.m.m.m.m.m.m.m.m.m.m.m.m.m.m.m.m.m.m.m.m.m.m.m.m.m.m.m.m.m.m.m.m.m.m.",
"m.m.m.m.m.m.m.m.m.m.m.m.m.m.m.m.m.m.m.m.m.m.m.m.m.m.m.m.m.m.m.m.m.m.m.m.m.m.m.m.m.m.m.m.m.m.m.m.m.m.m.m.m.m.m.m.m.m.m.m.m.m.m.m.",
"m.m.m.m.m.m.m.m.m.m.m.m.m.m.m.m.m.m.m.m.m.m.m.m.m.m.m.m.m.m.m.m.m.m.m.m.m.m.m.m.m.m.m.m.m.m.m.m.m.m.m.m.m.m.m.m.m.m.m.m.m.m.m.m.",
"m.m.m.m.m.m.m.m.m.m.m.m.m.m.m.m.m.m.m.m.m.m.m.m.m.m.m.4 8 e ! ! ! 8 4 m.m.m.m.m.m.m.m.m.m.m.m.m.m.m.m.m.m.m.m.m.m.m.m.m.m.m.m.m.",
"m.m.m.m.m.m.m.m.m.m.m.m.m.m.m.m.m.m.m.m.m.m.m.m.7 ` =.=.=.=.=.=.=.=.=.=.! 4 m.m.m.m.m.m.m.m.m.m.m.m.m.m.m.m.m.m.m.m.m.m.m.m.m.m.",
"m.m.m.m.m.m.m.m.m.m.m.m.m.m.m.m.m.m.m.m.m.3 Q =.=.=.=.=.=.=.=.=.=.=.=.=.=.[ 0.f m.m.m.m.m.m.m.m.m.m.m.m.m.m.m.m.m.m.m.m.m.m.m.m.",
"m.m.m.m.m.m.m.m.m.m.m.m.m.m.m.m.m.m.m.m.q =.=.=.=.=.=.=.=.=.=.=.=.=.=.=.=.i n.n.p.m.m.m.m.m.m.m.m.m.m.m.m.m.m.m.m.m.m.m.m.m.m.m.",
"m.m.m.m.m.m.m.m.m.m.m.m.m.m.m.m.m.m.5 [ =.=.=.=.=.=.=.=.=.=.=.=.=.=.=.=.=.Q n.n.n.l.m.m.m.m.m.m.m.m.m.m.m.m.m.m.m.m.m.m.m.m.m.m.",
"m.m.m.m.m.m.m.m.m.m.m.m.m.m.m.m.m.9 =.=.=.=.=.=.=.=.=.=.=.=.=.=.=.=.=.=.=.%.i.n.n.n.c.m.m.m.m.m.m.m.m.m.m.m.m.m.m.m.m.m.m.m.m.m.",
"m.m.m.m.m.m.m.m.m.m.m.m.m.m.m.m.w *.=.=.=.=.=.=.=.=.=.=.=.=.=.=.=.=.=.=.=.=.( n.n.n.b.:.m.m.m.$ & $ m.m.m.m.m.m.m.m.m.m.m.m.m.m.",
"m.m.m.m.m.m.m.m.m.m.m.m.m.m.m.7 =.=.=.=.=.=.=.=.=.=.=.=.=.=.=.=.=.=.=.%.~ o.+.p.n.n.l.  O m.= c c c $ m.m.m.m.m.m.m.m.m.m.m.m.m.",
"m.m.m.m.m.m.m.m.m.m.m.m.m.m.m.*.=.=.=.=.=.=.=.=.=.=.=.=.=.=.=.=.=._ #.1.x.n.n.b.h.n.n.O 2.t c c c c = m.m.m.m.m.m.m.m.m.m.m.m.m.",
"m.m.m.m.m.m.m.m.m.m.m.m.m.m.! =.=.=.=.=.=.=.=.=.=.=.=.=.=.=.=.*.+.c.n.n.c.g.g.k.n.h.h.x.:.g.M c c c * m.m.m.m.m.m.m.m.m.m.m.m.m.",
"m.m.m.m.m.m.m.m.m.m.m.m.m.m.=.=.=.=.=.=.=.=.=.=.=.=.=.=.=.=.*.O.n.n.n.n.n.n.n.v.p.p.x.g.c.n.5.c c x m.m.m.m.m.m.m.m.m.m.m.m.m.m.",
"m.m.m.m.m.m.m.m.m.m.m.m.m.q =.=.=.=.=.=.=.=.=.=.=.=.=.=.=.*. .b.n.n.n.n.n.n.n.n.n.n.n.n.n.n.c.. % m.m.m.m.m.m.m.m.m.m.m.m.m.m.m.",
"m.m.m.m.m.m.m.m.m.m.m.m.m.%.=.=.=.=.=.=.=.=.=.=.=.=.=.=.=.| n.n.z.h.h.h.h.h.h.x.b.n.n.n.n.n.n.f m.m.m.m.m.m.m.m.m.m.m.m.m.m.m.m.",
"m.m.m.m.m.m.m.m.m.m.m.m.m.=.=.=.=.=.=.=.=.=.=.=.=.=.=.=.[ l.n.n.n.n.n.n.n.n.n.c.k.x.n.n.n.n.n.n.n.n.:.m.m.m.m.m.m.m.m.m.m.m.m.m.",
"m.m.m.m.m.m.m.m.m.m.m.m.4 =.=.=.=.=.=.=.=.=.=.=.=.=.=.=.@.n.n.n.n.n.n.n.n.n.n.n.v.n.n.n.n.n.n.n.n.n.n.m.m.m.m.m.m.m.m.m.m.m.m.m.",
"m.m.m.m.m.m.m.m.m.m.m.m.8 =.=.=.=.=.=.=.=.=.=.=.=.=.=.&.f.n.n.n.n.n.n.c.e.s.h.h.v.n.n.n.n.n.n.n.n.n.n.a m.m.m.m.m.m.m.m.m.m.m.m.",
"m.m.m.m.m.m.m.m.m.m.m.m.e =.=.=.=.=.=.=.=.=.=.=.=.=.=.~ n.n.n.n.h.f.d.G S b >.h.n.n.n.n.n.n.n.n.n.n.n.m.m.m.m.m.m.m.m.m.m.m.m.m.",
"m.m.m.m.m.m.m.m.m.m.m.m.W =.=.=.=.=.=.=.=.=.=.=.=.=.=.+.n.n.n.n.n.n.n.L S S S C B K u.v.n.n.n.n.n.n.p.m.m.m.m.m.m.m.m.m.m.m.m.m.",
"m.m.m.m.m.m.m.m.m.m.m.m.W =.=.=.=.=.=.=.=.=.=.=.=.=.=.y.n.n.n.n.n.n.n.r.S S S S S Z j k m J w.e.h.e.m.m.m.m.m.m.m.m.m.m.m.m.m.m.",
"m.m.m.m.m.m.m.m.m.m.m.m.0 =.=.=.=.=.=.=.=.=.=.=.=.=.=.f.n.n.n.n.n.n.n.v.C S S S S S v x c % m.m.m.m.m.m.m.m.m.m.m.m.m.m.m.m.m.m.",
"m.m.m.m.m.m.m.m.m.m.m.m.7 =.=.=.=.=.=.=.=.=.=.=.=.=.%.l.n.n.n.n.n.n.n.n.3.S S S S S S - x m.m.m.m.m.m.m.m.m.m.m.m.m.m.m.m.m.m.m.",
"m.m.m.m.m.m.m.m.m.m.m.m.3 =.=.=.=.=.=.=.=.=.=.=.=.=.[ x.n.n.n.n.n.n.n.n.v.B S S S S S n X m.m.m.m.m.m.m.m.m.m.m.m.m.m.m.m.m.m.m.",
"m.m.m.m.m.m.m.m.m.m.m.m.m.*.=.=.=.=.=.=.=.=.=.=.=.=.$.x.n.n.n.n.n.n.n.n.n.g.V S A S S Z m.m.m.m.m.m.m.m.m.m.m.m.m.m.m.m.m.m.m.m.",
"m.m.m.m.m.m.m.m.m.m.m.m.m.Q =.=.=.=.=.=.=.=.=.=.=.=.=.h.n.n.n.n.n.n.n.n.n.n.3.S A A S C m.m.m.m.m.m.m.m.m.m.m.m.m.m.m.m.m.m.m.m.",
"m.m.m.m.m.m.m.m.m.m.m.m.m.6 =.=.=.=.=.=.=.=.=.=.=.=.=.a.n.n.n.n.n.n.n.n.n.n.n.J A A A n m.m.m.m.m.m.m.m.m.m.m.m.m.m.m.m.m.m.m.m.",
"m.m.m.m.m.m.m.m.m.m.:.p.p.f [ =.=.=.=.=.=.=.=.=.=.=.=.9.n.n.n.n.n.n.n.n.n.n.n.b.5.C A - m.m.m.m.m.m.m.m.m.m.m.m.m.m.m.m.m.m.m.m.",
"m.m.m.m.m.m.m.m.m.:.n.n.n.n.8.=.=.=.=.=.=.=.=.=.=.=.=.' n.n.n.n.n.n.n.n.n.n.n.n.n.z.L r m.m.m.m.m.m.m.m.m.m.m.m.m.m.m.m.m.m.m.m.",
"m.m.m.m.m.m.m.m.m.n.n.n.n.n.b.e %.=.=.=.=.=.=.=.=.=.=.*.f.n.n.n.n.n.n.n.n.n.n.n.n.n.n.n.p.m.m.m.m.m.m.m.m.m.m.m.m.m.m.m.m.m.m.m.",
"m.m.m.m.m.m.m.m.m.n.n.n.n.n.n./ ) ! ! ! *.=.=.=.=.=.=.=.X.b.n.n.n.n.n.n.n.n.n.n.n.n.n.l.m.m.m.m.m.m.m.m.m.m.m.m.m.m.m.m.m.m.m.m.",
"m.m.m.m.m.m.m.m.m.n.n.n.n.n.v.) =.*.*.&.W W =.=.=.=.=.=.=.8.n.n.n.n.n.n.n.n.n.n.n.n.z.m.m.m.m.m.m.m.m.m.m.m.m.m.m.m.m.m.m.m.m.m.",
"m.m.m.m.m.m.m.m.m.1.n.n.n.n.6.=.=.=.=.=.=.%.W W &.=.=.=.&._ ,.z.l.h.g.d.d.u.t.r.q.5.r m.m.m.m.m.m.m.m.m.m.m.m.m.m.m.m.m.m.m.m.m.",
"m.m.m.m.m.m.m.m.m.m.m.e.w.y %.*.=.=.=.=.=.=.*.*.e 1 2 j j k z x x c c c c c c c k > g , ; m.m.m.m.m.m.m.m.m.m.m.m.m.m.m.m.m.m.m.",
"m.m.m.m.m.m.m.m.m.m.m.m.m.m.3 *.=.=.=.=.=.=.=.=.=.&.u 2 k k j j = = 2 M M m N F : , P E I m.m.m.m.m.m.m.m.m.m.m.m.m.m.m.m.m.m.m.",
"m.m.m.m.m.m.m.m.m.m.m.m.m.m.m.5 &.=.=.=.=.=.=.=.=.=.=.$.[ [ %.%.=.^ b.n.n.n.n.n.D E E U , @ m.m.m.m.m.m.m.m.m.m.m.m.m.m.m.m.m.m.",
"m.m.m.m.m.m.m.m.m.m.m.m.m.m.m.m.m.W *.=.=.=.=.=.=.=.=.=.=.=.=.=.=.<.n.n.n.n.n.n.4.Y E E Y m.m.m.m.m.m.m.m.m.m.m.m.m.m.m.m.m.m.m.",
"m.m.m.m.m.m.m.m.m.m.m.m.m.m.m.m.m.m.e *.=.=.=.=.=.=.=.=.=.=.=.=.*.a.n.n.n.n.n.n.n.T U P o m.m.m.m.m.m.m.m.m.m.m.m.m.m.m.m.m.m.m.",
"m.m.m.m.m.m.m.m.m.m.m.m.m.m.m.m.m.m.m.4 $.*.=.=.=.=.=.=.=.=.=.=.` c.n.n.n.n.n.n.n.n.x.f m.m.m.m.m.m.m.m.m.m.m.m.m.m.m.m.m.m.m.m.",
"m.m.m.m.m.m.m.m.m.m.m.m.m.m.m.m.m.m.m.m.m.W =.=.=.=.=.=.=.=.=.=.) v.n.n.b.c.c.c.z.h.h.m.m.m.m.m.m.m.m.m.m.m.m.m.m.m.m.m.m.m.m.m.",
"m.m.m.m.m.m.m.m.m.m.m.m.m.m.m.m.m.m.m.m.m.` ) *.=.=.=.=.=.=.=.=.) v.n.n.h.c.x.c.b.n.n.m.m.m.m.m.m.m.m.m.m.m.m.m.m.m.m.m.m.m.m.m.",
"m.m.m.m.m.m.m.m.m.m.m.m.m.m.m.m.m.m.m.m.m.*.=.*.=.=.=.=.=.=.=.=.%.g.n.n.h.n.n.n.n.n.n.m.m.m.m.m.m.m.m.m.m.m.m.m.m.m.m.m.m.m.m.m.",
"m.m.m.m.m.m.m.m.m.m.m.m.m.m.m.m.% $ m.m.m.=.=.=.=.=.=.=.=.=.=.=.=.<.n.b.e.a.x.b.n.n.n.m.m.m.m.m.m.m.m.m.m.m.m.m.m.m.m.m.m.m.m.m.",
"m.m.m.m.m.m.m.m.m.m.m.m.m.m.m.z c c & m.m.=.=.=.=.=.=.=.=.=.=.=.=._ +.) *.=.$.~ 6.c.c.m.m.m.m.m.m.m.m.m.m.m.m.m.m.m.m.m.m.m.m.m.",
"m.m.m.m.m.m.m.m.m.m.m.m.m.m.m.c c c * m.m.$.=.=.=.=.=.=.=.=.=.=.=.=.=.=.=.=.=.=.*.} a.m.m.m.m.m.m.m.m.m.m.m.m.m.m.m.m.m.m.m.m.m.",
"m.m.m.m.m.m.m.m.m.m.m.m.m.m.m.h c c # m.m.W =.=.=.=.=.=.=.=.=.=.=.=.=.=.=.=.=.=.=.=.! m.m.m.m.m.m.m.m.m.m.m.m.m.m.m.m.m.m.m.m.m.",
"m.m.m.m.m.m.m.m.m.m.m.m.m.m.m.m.m.m.m.+ s | =.=.=.=.=.=.=.=.=.=.=.=.=.=.=.=.=.=.=.=.=.4 m.m.m.m.m.m.m.m.m.m.m.m.m.m.m.m.m.m.m.m.",
"m.m.m.m.m.m.m.m.m.m.m.m.m.m.m.m.m.m.m.b.b...=.=.=.=.=.=.=.=.=.=.=.=.=.=.=.=.=.=.=.=._ p 2.2.1.m.m.m.m.m.m.m.m.m.m.m.m.m.m.m.m.m.",
"m.m.m.m.m.m.m.m.m.m.m.m.m.m.m.m.m.m.2.n.n.b.Q =.=.=.=.=.=.=.=.=.=.=.=.=.=.=.=.=.[ 6.x.n.n.n.n.c.m.m.m.m.m.m.m.m.m.m.m.m.m.m.m.m.",
"m.m.m.m.m.m.m.m.m.m.m.m.m.m.m.m.m.m.g.n.n.n.] ) =.=.=.=.=.=.=.=.=.=.=.=.=.=.=.{ k.n.n.n.n.n.n.n.1.m.m.m.m.m.m.m.m.m.m.m.m.m.m.m.",
"m.m.m.m.m.m.m.m.m.m.m.m.m.m.m.m.m.m.x.n.n.n.i.e _ =.=.=.=.=.=.=.=.=.=.=.=.=.( b.n.n.n.n.n.n.n.n.2.m.m.m.m.m.m.m.m.m.m.m.m.m.m.m.",
"m.m.m.m.m.m.m.m.m.m.m.m.m.m.m.m.m.m.l.n.n.n.b.' ! ! =.=.=.=.=.=.=.=.=.=.=.| v.n.n.n.n.n.n.n.n.n.m.m.m.m.m.m.m.m.m.m.m.m.m.m.m.m.",
"m.m.m.m.m.m.m.m.m.m.m.m.m.m.m.m.m.m.p.n.n.n.n.z.} $.W ! ! ! ! ! ! ` *.*.{ b.n.n.n.n.n.n.n.n.n.1.m.m.m.m.m.m.m.m.m.m.m.m.m.m.m.m.",
"m.m.m.m.m.m.m.m.m.m.m.m.m.m.m.m.m.m.s n.n.n.n.n.j.$.=.=.=.=.=.=.W m.m.6 j.n.n.n.n.n.n.n.n.n.s.m.m.m.m.m.m.m.m.m.m.m.m.m.m.m.m.m.",
"m.m.m.m.m.m.m.m.m.m.m.m.m.m.m.m.m.m.m.a.n.n.n.n.n.z.7.q W w 9 m.m.m.m.m.n.n.n.n.n.n.n.n.n.g.m.m.m.m.m.m.m.m.m.m.m.m.m.m.m.m.m.m.",
"m.m.m.m.m.m.m.m.m.m.m.m.m.m.m.m.m.m.m.m.v.n.n.n.n.n.n.m.m.m.m.m.m.m.m.m.b.n.n.n.n.n.n.v.;.m.m.m.m.m.m.m.m.m.m.m.m.m.m.m.m.m.m.m.",
"m.m.m.m.m.m.m.m.m.m.m.m.m.m.m.m.m.m.m.m.d n.n.n.n.n.c.m.m.m.m.m.m.m.m.m.y c.n.n.n.b.1.m.m.m.m.m.m.m.m.m.m.m.m.m.m.m.m.m.m.m.m.m.",
"m.m.m.m.m.m.m.m.m.m.m.m.m.m.m.m.m.m.m.m.m.e.n.n.n.n.d m.m.m.m.m.m.m.m.m.m.m.m.m.m.m.m.m.m.m.m.m.m.m.m.m.m.m.m.m.m.m.m.m.m.m.m.m.",
"m.m.m.m.m.m.m.m.m.m.m.m.m.m.m.m.m.m.m.m.m.m.s w.w.a m.m.m.m.m.m.m.m.m.m.m.m.m.m.m.m.m.m.m.m.m.m.m.m.m.m.m.m.m.m.m.m.m.m.m.m.m.m.",
"m.m.m.m.m.m.m.m.m.m.m.m.m.m.m.m.m.m.m.m.m.m.m.m.m.m.m.m.m.m.m.m.m.m.m.m.m.m.m.m.m.m.m.m.m.m.m.m.m.m.m.m.m.m.m.m.m.m.m.m.m.m.m.m."
};
