/* XPM */
static char *result[] = {
/* columns rows colors chars-per-pixel */
"64 64 149 2 ",
"   c #090909",
".  c #2B2514",
"X  c #162830",
"o  c #1B3039",
"O  c #282828",
"+  c #3C3D3D",
"@  c #401E1F",
"#  c #4F1D27",
"$  c #551F2A",
"%  c #5D222E",
"&  c #642532",
"*  c #6B2735",
"=  c #6D2937",
"-  c #782C3C",
";  c #78363B",
":  c #4B401F",
">  c #4C4224",
",  c #675931",
"<  c #6A5333",
"1  c #756535",
"2  c #213A45",
"3  c #7D3444",
"4  c #25414E",
"5  c #2A4957",
"6  c #2D4F5F",
"7  c #2D5060",
"8  c #325768",
"9  c #345B6D",
"0  c #365E71",
"q  c #376174",
"w  c #386275",
"e  c #3A6479",
"r  c #3D6A7F",
"t  c #75504F",
"y  c #664051",
"u  c #654F53",
"i  c #6C5F61",
"p  c #476B7E",
"a  c #646464",
"s  c #6B6B6B",
"d  c #6F7475",
"f  c #777779",
"g  c #82713E",
"h  c #833041",
"j  c #8C3446",
"k  c #8D3748",
"l  c #93374A",
"z  c #9B394E",
"x  c #A43D52",
"c  c #834448",
"v  c #964E4C",
"b  c #8A4E5A",
"n  c #8E5452",
"m  c #8D575D",
"M  c #985956",
"N  c #A4524F",
"B  c #AC5653",
"V  c #A55350",
"C  c #B65B58",
"Z  c #B45A57",
"A  c #867440",
"S  c #97605E",
"D  c #915C67",
"F  c #976B6A",
"G  c #9C716F",
"H  c #986C75",
"J  c #9A7776",
"K  c #948147",
"L  c #AA9351",
"P  c #A29059",
"I  c #BEA55B",
"U  c #9D947A",
"Y  c #C2A85D",
"T  c #3E6C82",
"R  c #436F85",
"E  c #486D84",
"W  c #43758C",
"Q  c #4A778C",
"!  c #4B788E",
"~  c #517B8F",
"^  c #467A93",
"/  c #497E96",
"(  c #497F98",
")  c #527D91",
"_  c #5A7F90",
"`  c #607D8B",
"'  c #9E7880",
"]  c #A57A83",
"[  c #4C829C",
"{  c #53839A",
"}  c #588296",
"|  c #668898",
" . c #6D8A98",
".. c #708E9B",
"X. c #74919E",
"o. c #78929F",
"O. c #4D86A1",
"+. c #4F89A5",
"@. c #528AA4",
"#. c #518DAA",
"$. c #5390AD",
"%. c #868485",
"&. c gray54",
"*. c #87959C",
"=. c #939394",
"-. c #9C9B9B",
";. c #A8878B",
":. c #AE8D94",
">. c #AC969B",
",. c #A89F9F",
"<. c #B3979D",
"1. c #AFA587",
"2. c #8097A1",
"3. c #839AA5",
"4. c #899CA5",
"5. c #929FA6",
"6. c #93A6AF",
"7. c #9DA5A9",
"8. c #A4A4A4",
"9. c #ABABAB",
"0. c #B3A1A3",
"q. c #B7AEAF",
"w. c #B8ADA9",
"e. c #A0AFB6",
"r. c #A1B0B6",
"t. c #A5B3B9",
"y. c #ABB6BB",
"u. c #AEB8BC",
"i. c #B3B3B3",
"p. c #B2BABE",
"a. c #BDBDBD",
"s. c #B1B7BA",
"d. c #C2B7B9",
"f. c #B4BEC2",
"g. c #B9BFC1",
"h. c #BCC0C2",
"j. c #BFC6C9",
"k. c #C3C3C4",
"l. c #C9C6C6",
"z. c #CBCCCC",
"x. c #CCD1D3",
"c. c #D4D5D5",
"v. c #DCDCDC",
"b. c #D7DADB",
"n. c #E5E5E5",
"m. c #ECECEC",
"M. c #F4F4F4",
"N. c #FFFFFF",
"B. c None",
/* pixels */
"B.B.B.B.B.B.B.B.B.B.B.B.B.B.B.B.B.B.B.B.B.B.B.B.B.B.B.B.B.B.B.B.B.B.B.B.B.B.B.B.B.B.B.B.B.B.B.B.B.B.B.B.B.B.B.B.B.B.B.B.B.B.B.B.",
"B.B.B.B.B.B.B.B.B.B.B.B.B.B.B.B.B.B.B.B.B.B.B.B.B.B.B.B.B.B.B.B.B.B.B.B.B.B.B.B.B.B.B.B.B.B.B.B.B.B.B.B.B.B.B.B.B.B.B.B.B.B.B.B.",
"B.B.B.B.B.B.B.B.B.B.B.B.B.B.B.B.B.B.B.B.B.B.B.B.B.B.B.B.B.B.B.B.B.B.B.B.B.B.B.B.B.B.B.B.B.B.B.B.B.B.B.B.B.B.B.B.B.B.B.B.B.B.B.B.",
"B.B.B.B.B.B.B.B.B.B.B.B.B.B.B.B.B.B.B.B.B.B.B.B.B.B.B.B.B.B.B.B.B.B.B.B.B.B.B.B.B.B.B.B.B.B.B.B.B.B.B.B.B.B.B.B.B.B.B.B.B.B.B.B.",
"B.B.B.B.B.B.B.B.B.B.B.B.B.B.B.B.B.B.B.B.B.B.B.B.B.B.B.B.5 9 w T W W T w 8 B.B.B.B.B.B.B.B.B.B.B.B.B.B.B.B.B.B.B.B.B.B.B.B.B.B.B.",
"B.B.B.B.B.B.B.B.B.B.B.B.B.B.B.B.B.B.B.B.B.B.B.B.B.9 W #.$.$.$.$.#.$.$.$.$.$.O.9 B.B.B.B.B.B.B.B.B.B.B.B.B.B.B.B.B.B.B.B.B.B.B.B.",
"B.B.B.B.B.B.B.B.B.B.B.B.B.B.B.B.B.B.B.B.B.B.B.r #.$.$.$.$.$.$.$.$.$.$.$.$.$.$.$.#.7 B.B.B.B.B.B.B.B.B.B.B.B.B.B.B.B.B.B.B.B.B.B.",
"B.B.B.B.B.B.B.B.B.B.B.B.B.B.B.B.B.B.B.B.B.9 #.$.$.$.$.$.$.$.$.$.$.$.$.$.$.$.$.$.$.{ =.B.B.B.B.B.B.B.B.B.B.B.B.B.B.B.B.B.B.B.B.B.",
"B.B.B.B.B.B.B.B.B.B.B.B.B.B.B.B.B.B.B.B.W $.$.$.$.$.$.$.$.$.$.$.$.$.$.$.$.$.$.$.$.r.N.b.B.B.B.B.B.B.B.B.B.B.B.B.B.B.B.B.B.B.B.B.",
"B.B.B.B.B.B.B.B.B.B.B.B.B.B.B.B.B.B.B.O.$.$.$.$.$.$.$.$.$.$.$.$.$.$.$.$.$.$.$.$.$.r.N.N.m.B.B.B.B.B.B.B.B.B.B.B.B.B.B.B.B.B.B.B.",
"B.B.B.B.B.B.B.B.B.B.B.B.B.B.B.B.B.B.^ $.$.$.$.$.$.$.$.$.$.$.$.$.$.$.$.$.$.$.$.$.$.2.N.N.N.z.B.B.B.B.B.B.B.B.B.B.B.B.B.B.B.B.B.B.",
"B.B.B.B.B.B.B.B.B.B.B.B.B.B.B.B.B.q $.$.$.$.$.$.$.$.$.$.$.$.$.$.$.$.$.$.$.$.$.#.$./ m.N.N.N.8.B.B.B.B.B.B.B.B.B.B.B.B.B.B.B.B.B.",
"B.B.B.B.B.B.B.B.B.B.B.B.B.B.B.B.o $.$.$.$.$.$.$.$.$.$.$.$.$.$.$.$.$.$.$.$.W | *.4.2.8.N.N.M.+ O B.B.$ % B.B.B.B.B.B.B.B.B.B.B.B.",
"B.B.B.B.B.B.B.B.B.B.B.B.B.B.B.B.W $.$.$.$.$.$.$.$.$.$.$.$.$.$.$.$.$.#.} e.n.k.k.M.N.v.b.N.n.  a B.* x x z B.B.B.B.B.B.B.B.B.B.B.",
"B.B.B.B.B.B.B.B.B.B.B.B.B.B.B.4 $.$.$.$.$.$.$.$.$.$.$.$.$.$.$.$.$./ 5.M.N.N.N.M.l.h.m.c.l.N.s s i x x x x * B.B.B.B.B.B.B.B.B.B.",
"B.B.B.B.B.B.B.B.B.B.B.B.B.B.B.e $.$.$.$.$.$.$.$.$.$.$.$.$.$.$.$.) z.N.N.N.N.N.N.N.N.x.d.c.a.a.8.l.k x x x * B.B.B.B.B.B.B.B.B.B.",
"B.B.B.B.B.B.B.B.B.B.B.B.B.B.B.+.$.$.$.$.$.$.$.$.$.$.$.$.$.$.#./ z.N.M.a.v.N.N.N.N.N.N.N.z.M.N.N.N.D x x x B.B.B.B.B.B.B.B.B.B.B.",
"B.B.B.B.B.B.B.B.B.B.B.B.B.B.B.$.$.$.$.$.$.$.$.$.$.$.$.$.$.$.@.5.N.N.N.N.m.l.z.l.l.v.N.N.N.N.N.N.N.%.% & B.B.B.B.B.B.B.B.B.B.B.B.",
"B.B.B.B.B.B.B.B.B.B.B.B.B.B.6 $.$.$.$.$.$.$.$.$.$.$.$.$.$.$._ N.N.N.N.N.N.N.N.N.N.m.l.v.N.N.N.N.N.l.B.B.B.B.B.B.B.B.B.B.B.B.B.B.",
"B.B.B.B.B.B.B.B.B.B.B.B.B.B.q $.$.$.$.$.$.$.$.$.$.$.$.$.$./ c.N.N.N.N.N.N.N.N.N.N.N.N.N.N.N.N.N.N.N.l.i.f B.B.B.B.B.B.B.B.B.B.B.",
"B.B.B.B.B.B.B.B.B.B.B.B.B.B.0 $.$.$.$.$.$.$.$.$.$.$.$.$.$...N.N.N.N.b.z.z.,.G -.z.z.b.N.N.N.N.N.N.N.N.N.M.B.B.B.B.B.B.B.B.B.B.B.",
"B.B.B.B.B.B.B.B.B.B.B.B.B.B.p $.$.$.$.$.$.$.$.$.$.$.$.$.#.g.N.N.N.N.N.N.N.n Z V G d.N.N.N.N.N.N.N.N.N.N.N.-.B.B.B.B.B.B.B.B.B.B.",
"B.B.B.B.B.B.B.B.B.B.B.B.B.B.w $.$.$.$.$.$.$.$.$.$.$.$.$.Q M.N.N.N.N.N.N.N.n C C Z B m h.N.N.N.N.N.N.N.N.N.B.B.B.B.B.B.B.B.B.B.B.",
"B.B.B.B.B.B.B.B.B.B.B.B.B.B.0 $.$.$.$.$.$.$.$.$.$.$.$.$.X.N.N.N.N.N.N.N.N.J C C C Z Z ; m >.n.N.N.N.N.N.z.B.B.B.B.B.B.B.B.B.B.B.",
"B.B.B.B.B.B.B.B.B.B.B.B.B.B.p $.$.$.$.$.$.$.$.$.$.$.$.$.6.N.N.N.N.N.N.N.N.l.B C C C C B ; x l u -.k.m.l.B.B.B.B.B.B.B.B.B.B.B.B.",
"B.B.B.B.B.B.B.B.B.B.B.B.B.B.6 $.$.$.$.$.$.$.$.$.$.$.$.$.y.N.N.N.N.N.N.N.N.N.M C C C C C 3 x - B.B.B.B.B.B.B.B.B.B.B.B.B.B.B.B.B.",
"B.B.B.B.B.B.B.B.B.B.B.B.B.B.B.$.$.$.$.$.$.$.$.$.$.$.$.$.g.N.N.N.N.N.N.N.N.N.0.C C C C C V h B.B.B.B.B.B.B.B.B.B.B.B.B.B.B.B.B.B.",
"B.B.B.B.B.B.B.B.B.B.B.B.B.B.2 [ $.$.$.$.$.$.$.$.$.$.$.$.g.N.N.N.N.N.N.N.N.N.M.M C C C C C @ B.B.B.B.B.B.B.B.B.B.B.B.B.B.B.B.B.B.",
"B.B.B.B.B.B.B.B.B.B.B.B.l.N.N.c.{ $.$.$.$.$.$.$.$.$.$.$.y.N.N.N.N.N.N.N.N.N.N.0.Z Z Z C C B.B.B.B.B.B.B.B.B.B.B.B.B.B.B.B.B.B.B.",
"B.B.B.B.B.B.B.B.B.B.B.k.N.N.N.N.x.+.$.$.$.$.$.$.$.$.$.$.6.N.N.N.N.N.N.N.N.N.N.M.F Z Z Z B B.B.B.B.B.B.B.B.B.B.B.B.B.B.B.B.B.B.B.",
"B.B.B.B.B.B.B.B.B.B.B.N.N.N.N.N.N.p #.$.$.$.$.$.$.$.$.$.| N.N.N.N.N.N.N.N.N.N.N.M.F C C ; B.B.B.B.B.B.B.B.B.B.B.B.B.B.B.B.B.B.B.",
"B.B.B.B.B.B.B.B.B.B.B.M.N.N.N.N.N.) R R / $.$.$.$.$.$.$.[ b.N.N.N.N.N.N.N.N.N.N.N.N.;.v B.B.B.B.B.B.B.B.B.B.B.B.B.B.B.B.B.B.B.B.",
"B.B.B.B.B.B.B.B.B.B.B.i.N.N.N.N.j.#.$.$.^ e #.#.$.$.$.#.$.2.N.N.N.N.N.N.N.N.N.N.N.N.N.m.l.s B.B.B.B.B.B.B.B.B.B.B.B.B.B.B.B.B.B.",
"B.B.B.B.B.B.B.B.B.B.B.B.9.M.M.f.@.$.$.$.#.#.T T #.$.$.#.$.[ z.N.N.N.N.N.N.N.N.N.N.N.N.N.N.9.B.B.B.B.B.B.B.B.B.B.B.B.B.B.B.B.B.B.",
"B.B.B.B.B.B.B.B.B.B.B.B.B.B.X #.#.$.$.$.$.$.$.#.R p R W ^ / Q c.N.N.N.N.N.N.N.N.N.N.N.N.c.B.B.B.B.B.B.B.B.B.B.B.B.B.B.B.B.B.B.B.",
"B.B.B.B.B.B.B.B.B.B.B.B.B.B.B.e $.$.$.$.$.$.$.$.#.E 3 x z l j h 3 c b D H ' ;.>.0.w.a.a.B.B.B.B.B.B.B.B.B.B.B.B.B.B.B.B.B.B.B.B.",
"B.B.B.B.B.B.B.B.B.B.B.B.B.B.B.B./ #.$.$.$.$.$.$.#.$.( y h l l z x x x x x x x x x x c < > B.B.B.B.B.B.B.B.B.B.B.B.B.B.B.B.B.B.B.",
"B.B.B.B.B.B.B.B.B.B.B.B.B.B.B.B.B./ $.$.$.$.$.$.$.$.$.$.#.O.( ^ E f d.q.0.<.:.;.] t , g K L B.B.B.B.B.B.B.B.B.B.B.B.B.B.B.B.B.B.",
"B.B.B.B.B.B.B.B.B.B.B.B.B.B.B.B.B.B.+.$.$.$.$.$.$.$.$.$.$.$.$.$.! M.N.N.N.N.N.N.N.U I Y I 1 : B.B.B.B.B.B.B.B.B.B.B.B.B.B.B.B.B.",
"B.B.B.B.B.B.B.B.B.B.B.B.B.B.B.B.B.B.B.+.$.$.$.$.$.$.$.$.$.$.$.$.4.N.N.N.N.N.N.N.N.1.Y Y Y L B.B.B.B.B.B.B.B.B.B.B.B.B.B.B.B.B.B.",
"B.B.B.B.B.B.B.B.B.B.B.B.B.B.B.B.B.B.B.B.^ #.$.$.$.$.$.$.$.$.$.$.u.N.N.N.N.N.N.N.N.v.P Y Y g B.B.B.B.B.B.B.B.B.B.B.B.B.B.B.B.B.B.",
"B.B.B.B.B.B.B.B.B.B.B.B.B.B.B.B.B.B.B.B.4 W $.$.$.$.$.$.$.$.$.$.k.N.N.N.N.N.N.N.N.N.n.w.. B.B.B.B.B.B.B.B.B.B.B.B.B.B.B.B.B.B.B.",
"B.B.B.B.B.B.B.B.B.B.B.B.B.B.B.B.* B.B.B.e [ +.$.$.$.$.$.$.$.$.$.k.N.N.N.z.z.z.z.z.z.z.a.B.B.B.B.B.B.B.B.B.B.B.B.B.B.B.B.B.B.B.B.",
"B.B.B.B.B.B.B.B.B.B.B.B.B.B.B.x x z B.B./ $.$.$.$.$.$.$.$.$.$.$.y.N.N.N.l.N.N.N.N.N.N.k.B.B.B.B.B.B.B.B.B.B.B.B.B.B.B.B.B.B.B.B.",
"B.B.B.B.B.B.B.B.B.B.B.B.B.B.& x x x B.B.#.$.$.$.$.$.$.$.$.$.$.$.3.N.N.N.l.N.N.N.N.N.N.8.B.B.B.B.B.B.B.B.B.B.B.B.B.B.B.B.B.B.B.B.",
"B.B.B.B.B.B.B.B.B.B.B.B.B.B.B.x x z B.  $.$.$.$.$.$.$.$.$.$.$.$.) M.N.N.l.N.N.N.N.N.N.B.B.B.B.B.B.B.B.B.B.B.B.B.B.B.B.B.B.B.B.B.",
"B.B.B.B.B.B.B.B.B.B.B.B.B.B.B.B.B.B.B.s O.$.$.$.$.$.$.$.$.$.$.$.#.*.N.N.M.s.N.N.N.N.c.B.B.B.B.B.B.B.B.B.B.B.B.B.B.B.B.B.B.B.B.B.",
"B.B.B.B.B.B.B.B.B.B.B.B.B.B.B.B.B.B.B.z.W $.$.$.$.$.$.$.$.$.$.$.$.[ p.N.N.n.h.m.m.l.a B.B.B.B.B.B.B.B.B.B.B.B.B.B.B.B.B.B.B.B.B.",
"B.B.B.B.B.B.B.B.B.B.B.B.B.B.B.B.B.B.B.M.X.$.$.$.$.$.$.$.$.$.$.$.$.$.[ h.N.N.N.c.c.n.B.B.B.B.B.B.B.B.B.B.B.B.B.B.B.B.B.B.B.B.B.B.",
"B.B.B.B.B.B.B.B.B.B.B.B.B.B.B.B.B.B.B.N.g.#.$.$.$.$.$.$.$.$.$.$.$.$.#.[ X.p.c.b.h.d B.B.B.B.B.B.B.B.B.B.B.B.B.B.B.B.B.B.B.B.B.B.",
"B.B.B.B.B.B.B.B.B.B.B.B.B.B.B.B.B.B.B.M.N. .$.$.$.$.$.$.$.$.$.$.$.$.$.$.[ $.@.+.W B.B.B.B.B.B.B.B.B.B.B.B.B.B.B.B.B.B.B.B.B.B.B.",
"B.B.B.B.B.B.B.B.B.B.B.B.B.B.B.B.B.B.B.l.N.n./ $.$.$.$.$.$.$.$.$.$.$.$.$.( T $.[ B.B.B.B.B.B.B.B.B.B.B.B.B.B.B.B.B.B.B.B.B.B.B.B.",
"B.B.B.B.B.B.B.B.B.B.B.B.B.B.B.B.B.B.B.-.N.N.v.} #.$.$.$.$.$.$.$.$.$.$.$.$.( W 2 B.B.B.B.B.B.B.B.B.B.B.B.B.B.B.B.B.B.B.B.B.B.B.B.",
"B.B.B.B.B.B.B.B.B.B.B.B.B.B.B.B.B.B.B.B.M.N.N.M.7.{ $.$.$.$.$.$.$.$.$.$.$.$.5 B.B.B.B.B.B.B.B.B.B.B.B.B.B.B.B.B.B.B.B.B.B.B.B.B.",
"B.B.B.B.B.B.B.B.B.B.B.B.B.B.B.B.B.B.B.B.8.N.N.N.N.s.#.$.$.$.$.$.$.$.$.$.$.$.6 B.B.B.B.B.B.B.B.B.B.B.B.B.B.B.B.B.B.B.B.B.B.B.B.B.",
"B.B.B.B.B.B.B.B.B.B.B.B.B.B.B.B.B.B.B.B.B.c.N.N.N.c.W $.$.$.$.$.$.$.#.^ } o.B.B.B.B.B.B.B.B.B.B.B.B.B.B.B.B.B.B.B.B.B.B.B.B.B.B.",
"B.B.B.B.B.B.B.B.B.B.B.B.B.B.B.B.B.B.B.B.B.B.8.M.a.+ h.f.t.e.e.e.u.g.z.M.N.N.l.B.B.B.B.B.B.B.B.B.B.B.B.B.B.B.B.B.B.B.B.B.B.B.B.B.",
"B.B.B.B.B.B.B.B.B.B.B.B.B.B.B.B.B.B.B.B.B.B.B.B.B.=.N.N.N.N.N.N.N.N.N.N.N.N.N.B.B.B.B.B.B.B.B.B.B.B.B.B.B.B.B.B.B.B.B.B.B.B.B.B.",
"B.B.B.B.B.B.B.B.B.B.B.B.B.B.B.B.B.B.B.B.B.B.B.B.B.-.N.N.N.N.N.N.N.N.N.N.N.N.N.&.B.B.B.B.B.B.B.B.B.B.B.B.B.B.B.B.B.B.B.B.B.B.B.B.",
"B.B.B.B.B.B.B.B.B.B.B.B.B.B.B.B.B.B.B.B.B.B.B.B.B.B.m.N.N.N.N.N.N.N.N.N.N.M.8.B.B.B.B.B.B.B.B.B.B.B.B.B.B.B.B.B.B.B.B.B.B.B.B.B.",
"B.B.B.B.B.B.B.B.B.B.B.B.B.B.B.B.B.B.B.B.B.B.B.B.B.B.B.%.a.v.v.n.v.l.i.=.s B.B.B.B.B.B.B.B.B.B.B.B.B.B.B.B.B.B.B.B.B.B.B.B.B.B.B.",
"B.B.B.B.B.B.B.B.B.B.B.B.B.B.B.B.B.B.B.B.B.B.B.B.B.B.B.B.B.B.B.B.B.B.B.B.B.B.B.B.B.B.B.B.B.B.B.B.B.B.B.B.B.B.B.B.B.B.B.B.B.B.B.B.",
"B.B.B.B.B.B.B.B.B.B.B.B.B.B.B.B.B.B.B.B.B.B.B.B.B.B.B.B.B.B.B.B.B.B.B.B.B.B.B.B.B.B.B.B.B.B.B.B.B.B.B.B.B.B.B.B.B.B.B.B.B.B.B.B.",
"B.B.B.B.B.B.B.B.B.B.B.B.B.B.B.B.B.B.B.B.B.B.B.B.B.B.B.B.B.B.B.B.B.B.B.B.B.B.B.B.B.B.B.B.B.B.B.B.B.B.B.B.B.B.B.B.B.B.B.B.B.B.B.B."
};
