/* XPM */
static char *result[] = {
/* columns rows colors chars-per-pixel */
"44 44 5 1 ",
"  c #362720",
". c #4E392E",
"X c #674B3D",
"o c #8E6754",
"O c None",
/* pixels */
"OOOOOOOOOOOOOOOOOOOOOOOOOOOOOOOOOOOOOOOOOOOO",
"OOOOOOOOOOOOOOOOOOOOOOOOOOOOOOOOOOOOOOOOOOOO",
"OOOOOOOOOOOOOOOOOOOOOOOOOOOOOOOOOOOOOOOOOOOO",
"OOOOOOOOOOOOOOOOOOOOOOOOOOOOOOOOOOOOOOOOOOOO",
"OOOOOOOOOOOOOOOOOOOOOOOOOOOOOOOOOOOOOOOOOOOO",
"OOOOOOOOOOOOOOOOOOOOOOOOOOOOOOOOOOOOOOOOOOOO",
"OOOOOOOOOOOOOOOOOOOOOOOOOOOOOOOOOOOOOOOOOOOO",
"OOOOOOOOOOOOOOOOOOOOOOOOOOOOOOOOOOOOOOOOOOOO",
"OOOOOOOOOOOOOOOOOOOOOO OOOOOOOOOOOOOOOOOOOOO",
"OOOOOOOOOOOOOOOOOOOOOO OOOOOOOOOOOOOOOOOOOOO",
"OOOOOOOOOOOOOOOOOOOOO OOOOOOOOOOOOOOOOOOOOOO",
"OOOOOOOOOOOOOOOOOOOOO OOOOOOOOOOOOOOOOOOOOOO",
"OOOOOOOOOOOOOOOOOOOOO OOOOOOOOOOOOOOOOOOOOOO",
"OOOOOOOOOOOOOOOOOOOOOO OOOOOOOOOOOOOOOOOOOOO",
"OOOOOOOOOOOOOOOOOOOO    OOOOOOOOOOOOOOOOOOOO",
"OOOOOOOOOOOOOOOOOOO  XX  OOOOOOOOOOOOOOOOOOO",
"OOOOOOOOOOOOOOOOOO .XooX. OOOOOOOOOOOOOOOOOO",
"OOOOOOOOOOOOOOOOO XooooooX OOOOOOOOOOOOOOOOO",
"OOOOOOOOOOOOOOOOO .Xooooo. OOOOOOOOOOOOOOOOO",
"OOOOOOOOOOOOOOOOO   XXXX   OOOOOOOOOOOOOOOOO",
"OOOOOOOOOOOOOOOOO Xo    oX OOOOOOOOOOOOOOOOO",
"OOOOOOOOOOOOOOOOO X XooX X OOOOOOOOOOOOOOOOO",
"OOOOOOOOOOOOOOOOO  . oo .  OOOOOOOOOOOOOOOOO",
"OOOOOOOOOOOOOOOOO  X oo X  OOOOOOOOOOOOOOOOO",
"OOOOOOOOOOOOOOOOOO XooooX OOOOOOOOOOOOOOOOOO",
"OOOOOOOOOOOOOOOOOO   XX   OOOOOOOOOOOOOOOOOO",
"OOOOOOOOOOOOOOOOOO .    . OOOOOOOOOOOOOOOOOO",
"OOOOOOOOOOOOOOOOOO X OO X OOOOOOOOOOOOOOOOOO",
"OOOOOOOOOOOOOOOOOOO OOOO OOOOOOOOOOOOOOOOOOO",
"OOOOOOOOOOOOOOOOOOOOOOOOOOOOOOOOOOOOOOOOOOOO",
"OOOOOOOOOOOOOOOOOOOOOOOOOOOOOOOOOOOOOOOOOOOO",
"OOOOOOOOOOOOOOOOOOOOOOOOOOOOOOOOOOOOOOOOOOOO",
"OOOOOOOOOOOOOOOOOOOOOOOOOOOOOOOOOOOOOOOOOOOO",
"OOOOOOOOOOOOOOOOOOOOOOOOOOOOOOOOOOOOOOOOOOOO",
"OOOOOOOOOOOOOOOOOOOOOOOOOOOOOOOOOOOOOOOOOOOO",
"OOOOOOOOOOOOOOOOOOOOOOOOOOOOOOOOOOOOOOOOOOOO",
"OOOOOOOOOOOOOOOOOOOOOOOOOOOOOOOOOOOOOOOOOOOO",
"OOOOOOOOOOOOOOOOOOOOOOOOOOOOOOOOOOOOOOOOOOOO",
"OOOOOOOOOOOOOOOOOOOOOOOOOOOOOOOOOOOOOOOOOOOO",
"OOOOOOOOOOOOOOOOOOOOOOOOOOOOOOOOOOOOOOOOOOOO",
"OOOOOOOOOOOOOOOOOOOOOOOOOOOOOOOOOOOOOOOOOOOO",
"OOOOOOOOOOOOOOOOOOOOOOOOOOOOOOOOOOOOOOOOOOOO",
"OOOOOOOOOOOOOOOOOOOOOOOOOOOOOOOOOOOOOOOOOOOO",
"OOOOOOOOOOOOOOOOOOOOOOOOOOOOOOOOOOOOOOOOOOOO"
};
