/* XPM */
static char *result[] = {
/* columns rows colors chars-per-pixel */
"44 44 5 1 ",
"  c #362720",
". c #4E392E",
"X c #674B3D",
"o c #8E6754",
"O c None",
/* pixels */
"OOOOOOOOOOOOOOOOOOOOOOOOOOOOOOOOOOOOOOOOOOOO",
"OOOOOOOOOOOOOOOOOOOOOOOOOOOOOOOOOOOOOOOOOOOO",
"OOOOOOOOOOOOOOOOOOOOOOOOOOOOOOOOOOOOOOOOOOOO",
"OOOOOOOOOOOOOOOOOOOOOOOOOOOOOOOOOOOOOOOOOOOO",
"OOOOOOOOOOOOOOOOOOOOOOOOOOOOOOOOOOOOOOOOOOOO",
"OOOOOOOOOOOOOOOOOOOOOOOOOOOOOOOOOOOOOOOOOOOO",
"OOOOOOOOOOOOOOOOOOOOOOOOOOOOOOOOOOOOOOOOOOOO",
"OOOOOOOOOOOOOOOOOOOOOOOOOOOOOOOOOOOOOOOOOOOO",
"OOOOOOOOOOOOOOOOOOOOOOOOOOOOOOOOOOOOOOOOOOOO",
"OOOOOOOOOOOOOOOOOOOOOOOOOOOOOOOOOOOOOOOOOOOO",
"OOOOOOOOOOOOOOOOOOOOOOOOOOOOOOOOOOOOOOOOOOOO",
"OOOOOOOOOOOOOOOOOOOOOOOOOOOOOOOOOOOOOOOOOOOO",
"OOOOOOOOOOOOOOOOOOOOOOOOOOOOOOOOOOOOOOOOOOOO",
"OOOOOOOOOOOOOOOOOOOOOOOOOOOOOOOOOOOOOOOOOOOO",
"OOOOOOOOOOOOOOOOOO  OOOO  OOOOOOOOOOOOOOOOOO",
"OOOOOOOOOOOOOOOOO Xo    oX OOOOOOOOOOOOOOOOO",
"OOOOOOOOOOOOOOOOO   XXXX   OOOOOOOOOOOOOOOOO",
"OOOOOOOOOOOOOOOOOO .XooX. OOOOOOOOOOOOOOOOOO",
"OOOOOOOOOOOOOOOOOO .XooX. OOOOOOOOOOOOOOOOOO",
"OOOOOOOOOOOOOOOOOO .oooo. OOOOOOOOOOOOOOOOOO",
"OOOOOOOOOOOOOOOOOO .XooX. OOOOOOOOOOOOOOOOOO",
"OOOOOOOOOOOOOOOOOO oooooo OOOOOOOOOOOOOOOOOO",
"OOOOOOOOOOOOOOOOO .XooooX. OOOOOOOOOOOOOOOOO",
"OOOOOOOOOOOOOOOOO .XooooX. OOOOOOOOOOOOOOOOO",
"OOOOOOOOOOOOOOOOO .XooooX. OOOOOOOOOOOOOOOOO",
"OOOOOOOOOOOOOOOOO  XooooX  OOOOOOOOOOOOOOOOO",
"OOOOOOOOOOOOOOOOO  .ooooX  OOOOOOOOOOOOOOOOO",
"OOOOOOOOOOOOOOOOOO .XX X. OOOOOOOOOOOOOOOOOO",
"OOOOOOOOOOOOOOOOOO  .. .  OOOOOOOOOOOOOOOOOO",
"OOOOOOOOOOOOOOOOOO O    O OOOOOOOOOOOOOOOOOO",
"OOOOOOOOOOOOOOOOOOOOO OOOOOOOOOOOOOOOOOOOOOO",
"OOOOOOOOOOOOOOOOOOOO OOOOOOOOOOOOOOOOOOOOOOO",
"OOOOOOOOOOOOOOOOOOO OOOOOOOOOOOOOOOOOOOOOOOO",
"OOOOOOOOOOOOOOOOOOOOOOOOOOOOOOOOOOOOOOOOOOOO",
"OOOOOOOOOOOOOOOOOOOOOOOOOOOOOOOOOOOOOOOOOOOO",
"OOOOOOOOOOOOOOOOOOOOOOOOOOOOOOOOOOOOOOOOOOOO",
"OOOOOOOOOOOOOOOOOOOOOOOOOOOOOOOOOOOOOOOOOOOO",
"OOOOOOOOOOOOOOOOOOOOOOOOOOOOOOOOOOOOOOOOOOOO",
"OOOOOOOOOOOOOOOOOOOOOOOOOOOOOOOOOOOOOOOOOOOO",
"OOOOOOOOOOOOOOOOOOOOOOOOOOOOOOOOOOOOOOOOOOOO",
"OOOOOOOOOOOOOOOOOOOOOOOOOOOOOOOOOOOOOOOOOOOO",
"OOOOOOOOOOOOOOOOOOOOOOOOOOOOOOOOOOOOOOOOOOOO",
"OOOOOOOOOOOOOOOOOOOOOOOOOOOOOOOOOOOOOOOOOOOO",
"OOOOOOOOOOOOOOOOOOOOOOOOOOOOOOOOOOOOOOOOOOOO"
};
