/* XPM */
static char *result[] = {
/* columns rows colors chars-per-pixel */
"44 44 5 1 ",
"  c #362720",
". c #4E392E",
"X c #674B3D",
"o c #8E6754",
"O c None",
/* pixels */
"OOOOOOOOOOOOOOOOOOOOOOOOOOOOOOOOOOOOOOOOOOOO",
"OOOOOOOOOOOOOOOOOOOOOOOOOOOOOOOOOOOOOOOOOOOO",
"OOOOOOOOOOOOOOOOOOOOOOOOOOOOOOOOOOOOOOOOOOOO",
"OOOOOOOOOOOOOOOOOOOOOOOOOOOOOOOOOOOOOOOOOOOO",
"OOOOOOOOOOOOOOOOOOOOOOOOOOOOOOOOOOOOOOOOOOOO",
"OOOOOOOOOOOOOOOOOOOOOOOOOOOOOOOOOOOOOOOOOOOO",
"OOOOOOOOOOOOOOOOOOOOOOOOOOOOOOOOOOOOOOOOOOOO",
"OOOOOOOOOOOOOOOOOOOOOOOOOOOOOOOOOOOOOOOOOOOO",
"OOOOOOOOOOOOOOOOOOOOOOOOOOOOOOOOOOOOOOOOOOOO",
"OOOOOOOOOOOOOOOOOOOOOOOOOOOOOOOOOOOOOOOOOOOO",
"OOOOOOOOOOOOOOOOOOOOOOOOOOOOOOOOOOOOOOOOOOOO",
"OOOOOOOOOOOOOOOOOOOOOO OOOOOOOOOOOOOOOOOOOOO",
"OOOOOOOOOOOOOOOOOOOOOOO OOOOOOOOOOOOOOOOOOOO",
"OOOOOOOOOOOOOOOOOOOOOOO OOOOOOOOOOOOOOOOOOOO",
"OOOOOOOOOOOOOOOOOOOOOOO OOOOOOOOOOOOOOOOOOOO",
"OOOOOOOOOOOOOOOOOOOOOO OOOOOOOOOOOOOOOOOOOOO",
"OOOOOOOOOOOOOOOOOOOOOO OOOOOOOOOOOOOOOOOOOOO",
"OOOOOOOOOOOOOOOOOOOO    OOOOOOOOOOOOOOOOOOOO",
"OOOOOOOOOOOOOOOOOOO  XX  OOOOOOOOOOOOOOOOOOO",
"OOOOOOOOOOOOOOOOOO .XooX. OOOOOOOOOOOOOOOOOO",
"OOOOOOOOOOOOOOOOO XooooooX OOOOOOOOOOOOOOOOO",
"OOOOOOOOOOOOOOOOO .Xooooo. OOOOOOOOOOOOOOOOO",
"OOOOOOOOOOOOOOOOO .XooooX. OOOOOOOOOOOOOOOOO",
"OOOOOOOOOOOOOOOOO .XXooXX. OOOOOOOOOOOOOOOOO",
"OOOOOOOOOOOOOOOOOO  XXXX  OOOOOOOOOOOOOOOOOO",
"OOOOOOOOOOOOOOOOO Xo    oX OOOOOOOOOOOOOOOOO",
"OOOOOOOOOOOOOOOOO X XooX X OOOOOOOOOOOOOOOOO",
"OOOOOOOOOOOOOOOOOO . oo . OOOOOOOOOOOOOOOOOO",
"OOOOOOOOOOOOOOOOOO X oo X OOOOOOOOOOOOOOOOOO",
"OOOOOOOOOOOOOOOOOO XooooX OOOOOOOOOOOOOOOOOO",
"OOOOOOOOOOOOOOOOOOO  XX  OOOOOOOOOOOOOOOOOOO",
"OOOOOOOOOOOOOOOOOOO .  . OOOOOOOOOOOOOOOOOOO",
"OOOOOOOOOOOOOOOOOOOO OO OOOOOOOOOOOOOOOOOOOO",
"OOOOOOOOOOOOOOOOOOOOOOOOOOOOOOOOOOOOOOOOOOOO",
"OOOOOOOOOOOOOOOOOOOOOOOOOOOOOOOOOOOOOOOOOOOO",
"OOOOOOOOOOOOOOOOOOOOOOOOOOOOOOOOOOOOOOOOOOOO",
"OOOOOOOOOOOOOOOOOOOOOOOOOOOOOOOOOOOOOOOOOOOO",
"OOOOOOOOOOOOOOOOOOOOOOOOOOOOOOOOOOOOOOOOOOOO",
"OOOOOOOOOOOOOOOOOOOOOOOOOOOOOOOOOOOOOOOOOOOO",
"OOOOOOOOOOOOOOOOOOOOOOOOOOOOOOOOOOOOOOOOOOOO",
"OOOOOOOOOOOOOOOOOOOOOOOOOOOOOOOOOOOOOOOOOOOO",
"OOOOOOOOOOOOOOOOOOOOOOOOOOOOOOOOOOOOOOOOOOOO",
"OOOOOOOOOOOOOOOOOOOOOOOOOOOOOOOOOOOOOOOOOOOO",
"OOOOOOOOOOOOOOOOOOOOOOOOOOOOOOOOOOOOOOOOOOOO"
};
