/* XPM */
static char *result[] = {
/* columns rows colors chars-per-pixel */
"30 30 170 2 ",
"   c #37260A",
".  c #37270A",
"X  c #3A290A",
"o  c #3B2A0B",
"O  c #3C280B",
"+  c #41280C",
"@  c #472A0D",
"#  c #402C10",
"$  c #532E10",
"%  c #542E10",
"&  c #552E10",
"*  c #572F10",
"=  c #592F11",
"-  c #5D3012",
";  c #5F3112",
":  c #653313",
">  c #673314",
",  c #6B3414",
"<  c #6E3515",
"1  c #703115",
"2  c #743316",
"3  c #753317",
"4  c #723716",
"5  c #763417",
"6  c #793917",
"7  c #7E3A18",
"8  c #4D401C",
"9  c #5D5128",
"0  c #6A5C31",
"q  c #6C6033",
"w  c #796E3C",
"e  c #813919",
"r  c #843A19",
"t  c #883C1A",
"y  c #893C1A",
"u  c #883D1A",
"i  c #8B3D1B",
"p  c #8D3E1B",
"a  c #8C3F1B",
"s  c #8F3F1C",
"d  c #903F1C",
"f  c #913F1C",
"g  c #8D431F",
"h  c #92411D",
"j  c #94411D",
"k  c #95411D",
"l  c #96421D",
"z  c #9A441E",
"x  c #9B441E",
"c  c #9C441E",
"v  c #9F461F",
"b  c #884822",
"n  c #9F4922",
"m  c #A44820",
"M  c #A74920",
"N  c #A24C23",
"B  c #A44D23",
"V  c #A84A21",
"C  c #A84B21",
"Z  c #A94C22",
"A  c #AA4E24",
"S  c #AB5125",
"D  c #A25C2F",
"F  c #AF592B",
"G  c #B05B2D",
"H  c #B15C2D",
"J  c #A25D30",
"K  c #AA6232",
"L  c #B56533",
"P  c #B76936",
"I  c #BB703B",
"U  c #BC733D",
"Y  c #BE763F",
"T  c #847944",
"R  c #9E7E49",
"E  c #AC7B45",
"W  c #AE7C46",
"Q  c #A87E48",
"!  c #C07A42",
"~  c #C17C43",
"^  c #8E834A",
"/  c #968C51",
"(  c #9D9355",
")  c #A9834C",
"_  c #A19157",
"`  c #A39A5A",
"'  c #A79E5D",
"]  c #B09357",
"[  c #ADA461",
"{  c #AFA662",
"}  c #ACA767",
"|  c #AFA968",
" . c #B2AA65",
".. c #B3AA65",
"X. c #B3AB66",
"o. c #B6AD67",
"O. c #B0AA69",
"+. c #B2AD6A",
"@. c #B6AE68",
"#. c #B5AF6C",
"$. c #B8AF69",
"%. c #C48348",
"&. c #C7874B",
"*. c #C88B4E",
"=. c #CA8E4F",
"-. c #CB9152",
";. c #CC9252",
":. c #CF9756",
">. c #D19C59",
",. c #D19D5A",
"<. c #D3A05C",
"1. c #C5AF69",
"2. c #D7A761",
"3. c #D7A963",
"4. c #D9AD65",
"5. c #DAAE66",
"6. c #C4B06A",
"7. c #DBB067",
"8. c #DBB167",
"9. c #DEB66B",
"0. c #C0BA72",
"q. c #C6BE74",
"w. c #E2BE70",
"e. c #E3BF72",
"r. c #C8C277",
"t. c #CBC579",
"y. c #CDC77A",
"u. c #CEC77A",
"i. c #D0CA7C",
"p. c #D3CD7E",
"a. c #D4CD7E",
"s. c #D9CA7B",
"d. c #E5C374",
"f. c #E5C475",
"g. c #E6C676",
"h. c #E7C777",
"j. c #EACD7B",
"k. c #EBCF7C",
"l. c #ECD37F",
"z. c #D7D080",
"x. c #D8D180",
"c. c #DCD583",
"v. c #DDD684",
"b. c #E0D280",
"n. c #EDD480",
"m. c #E0D985",
"M. c #E4D884",
"N. c #E6DF89",
"B. c #F0D983",
"V. c #F2DE86",
"C. c #E8E18A",
"Z. c #E9E28B",
"A. c #ECE38B",
"S. c #EBE48C",
"D. c #F3E088",
"F. c #F5E48B",
"G. c #F6E68C",
"H. c #F7E78D",
"J. c #F7E88E",
"K. c #F8E98E",
"L. c #F7EF93",
"P. c #FAED91",
"I. c #FAF295",
"U. c #FCF194",
"Y. c #FCF294",
"T. c #FDF395",
"R. c #FEF597",
"E. c #FEF697",
"W. c #FFF798",
"Q. c None",
/* pixels */
"Q.Q.Q.Q.Q.Q.Q.Q.Q.Q.Q.Q.Q.Q.Q.Q.Q.Q.Q.Q.Q.Q.Q.Q.Q.Q.Q.Q.Q.Q.",
"Q.Q.Q.Q.Q.Q.Q.Q.Q.Q.Q.Q.Q.Q.Q.Q.Q.Q.Q.Q.Q.Q.Q.Q.Q.Q.Q.Q.Q.Q.",
"Q.Q.Q.Q.Q.Q.Q.Q.Q.Q.Q.Q.Q.Q.Q.Q.Q.Q.Q.Q.Q.Q.Q.Q.Q.Q.Q.Q.Q.Q.",
"Q.Q.Q.Q.Q.Q.Q.Q.Q.Q.Q.Q.Q.Q.Q.Q.Q.Q.Q.Q.Q.Q.Q.Q.Q.Q.Q.Q.Q.Q.",
"Q.Q.Q.Q.Q.Q.Q.Q.Q.Q.Q.e y p s f p i r 3 Q.Q.Q.Q.Q.Q.Q.Q.Q.Q.",
"Q.Q.Q.Q.Q.Q.Q.Q.t m V V V V V V V V V V M p 2 Q.Q.Q.Q.Q.Q.Q.",
"Q.Q.Q.Q.Q.1 l V V V V V V V V V V V V V V V V z 3 Q.Q.Q.Q.Q.",
"Q.Q.Q.Q.p V V V V V V V V V V V V V V V V V V V V d Q.Q.Q.Q.",
"Q.Q.Q.x V V V V V V V V V V V V V V V V V V V V V V c Q.Q.Q.",
"Q.Q.v V V V V V V V V V V V V V V V V V V V V V V V V v Q.Q.",
"Q.k V V V V V V V V V V V V V V V V V V V V V V V V V V j Q.",
"3 V V V V V V V V V V V V V V V V V V V V V V V V V V V V 5 ",
"y V V V V V V V V V V V V V V V V V V V V V V V V V V V V g ",
"E V V V V V V V V V V V V V V V V V V V V V V V V V V V V W ",
"t.,.V V V V V V V V V V V V V V V V V V V V V V V V V V V 1.",
"_ T.Y V V V V V V V V V V V V V V V V V V V V V V V V V :.#.",
") M.U.4.I V V V V V V V V V V V V V V V V V V V V V L w.A.R ",
"6.D b.W.W.n.%.Z V V V V V V V V V V V V F >.<.Y *.g.R.s.J ] ",
"+.2.n Q q.I.W.J.d.7.,.=.&.-.8.l.V.f.4.e.Y.W.W.W.S. .0 h 3.Q.",
"Q.m.j.G 7 # 9 w ^ ( ' { X.o.$.$.@...[ ` / T q 8 . O b 9.r.Q.",
"Q.Q.C.D.%.B < + X o o o o o o o o o o o o o   @ , K K.v.Q.Q.",
"Q.Q.Q.x.W.U.h.~ a 4 > ; = & $ % * - : < 6 u N U ;.F.p.Q.Q.Q.",
"Q.Q.Q.Q.O.N.W.W.G.k.5.P V V V V C A S H ! 7.P.W.Z.| Q.Q.Q.Q.",
"Q.Q.Q.Q.Q.Q.Q.y.L.W.W.E.B.f.k.H.R.W.W.W.W.I.i.} Q.Q.Q.Q.Q.Q.",
"Q.Q.Q.Q.Q.Q.Q.Q.Q.Q.0.y.p.z.c.c.z.a.u.0.Q.Q.Q.Q.Q.Q.Q.Q.Q.Q.",
"Q.Q.Q.Q.Q.Q.Q.Q.Q.Q.Q.Q.Q.Q.Q.Q.Q.Q.Q.Q.Q.Q.Q.Q.Q.Q.Q.Q.Q.Q.",
"Q.Q.Q.Q.Q.Q.Q.Q.Q.Q.Q.Q.Q.Q.Q.Q.Q.Q.Q.Q.Q.Q.Q.Q.Q.Q.Q.Q.Q.Q.",
"Q.Q.Q.Q.Q.Q.Q.Q.Q.Q.Q.Q.Q.Q.Q.Q.Q.Q.Q.Q.Q.Q.Q.Q.Q.Q.Q.Q.Q.Q.",
"Q.Q.Q.Q.Q.Q.Q.Q.Q.Q.Q.Q.Q.Q.Q.Q.Q.Q.Q.Q.Q.Q.Q.Q.Q.Q.Q.Q.Q.Q.",
"Q.Q.Q.Q.Q.Q.Q.Q.Q.Q.Q.Q.Q.Q.Q.Q.Q.Q.Q.Q.Q.Q.Q.Q.Q.Q.Q.Q.Q.Q."
};
