/* XPM */
static char *result[] = {
/* columns rows colors chars-per-pixel */
"64 64 163 2 ",
"   c #251F1F",
".  c #262120",
"X  c #342B2D",
"o  c #392D2D",
"O  c #3C3233",
"+  c #453D3C",
"@  c #493E3D",
"#  c #4A413F",
"$  c #473E41",
"%  c #4E4644",
"&  c #4E444A",
"*  c #50474A",
"=  c #51484B",
"-  c #5B4E4A",
";  c #58504B",
":  c #5D5354",
">  c #5E5559",
",  c #5F5858",
"<  c #655B5C",
"1  c #6A5C5C",
"2  c #6D625D",
"3  c #77655E",
"4  c #665D61",
"5  c #6C5C64",
"6  c #6A5E6B",
"7  c #656060",
"8  c #6B6263",
"9  c #6D636C",
"0  c #6E6869",
"q  c #736666",
"w  c #736966",
"e  c #746B6C",
"r  c #7A6B6A",
"t  c #776E72",
"y  c #737171",
"u  c #7C7474",
"i  c #7E777B",
"p  c #7F7C7D",
"a  c #816D6C",
"s  c #81756E",
"d  c #827575",
"f  c #827976",
"g  c #8B7872",
"h  c #83777B",
"j  c #8C767A",
"k  c #837B7C",
"l  c #8B7C7C",
"z  c #917F79",
"x  c #80807E",
"c  c #8E827F",
"v  c #8C7F81",
"b  c #858180",
"n  c #8C8282",
"m  c #8F8B87",
"M  c #8F8688",
"N  c #8F8A8A",
"B  c #938485",
"V  c #998682",
"C  c #91868B",
"Z  c #948B8B",
"A  c #9A8D8C",
"S  c #93918F",
"D  c #99918F",
"F  c #8F8591",
"G  c #948C92",
"H  c #9A8E92",
"J  c #968D98",
"K  c #9B8F9B",
"L  c #979191",
"P  c #9C9494",
"I  c #9E9996",
"U  c #9A929B",
"Y  c #9E9A9A",
"T  c #A18F90",
"R  c #AB8F91",
"E  c #A19594",
"W  c #A29995",
"Q  c #A99996",
"!  c #A2959C",
"~  c #A59B9B",
"^  c #AA9C9C",
"/  c #B19C9C",
"(  c #A1A19E",
")  c #ABA09E",
"_  c #A59BA2",
"`  c #AC9DA2",
"'  c #B09FA9",
"]  c #A7A4A5",
"[  c #ABA3A4",
"{  c #ADA5AA",
"}  c #B4A5A4",
"|  c #B1A9A5",
" . c #B2A6A9",
".. c #B4ABAB",
"X. c #BBAAAB",
"o. c #B3B0AD",
"O. c #BBB0AE",
"+. c #B5ACB3",
"@. c #BCADB3",
"#. c #B5B0B0",
"$. c #BBB2B4",
"%. c #BEB8B6",
"&. c #BEB4BB",
"*. c #BDB9BC",
"=. c #C5ACAE",
"-. c #C6AFB2",
";. c #C4B4B5",
":. c #CBB4B5",
">. c #C2B6BB",
",. c #CBB5B8",
"<. c #C4BCBC",
"1. c #CBBABC",
"2. c #D2BBBB",
"3. c #D2C0BE",
"4. c #C2B7C3",
"5. c #C5BBC2",
"6. c #CABEC3",
"7. c #CDBFC8",
"8. c #D0BDC1",
"9. c #D8BEC4",
"0. c #C6C1C1",
"q. c #CBC3C5",
"w. c #CDC8C6",
"e. c #CDC4CB",
"r. c #CFC9CD",
"t. c #D2C4C5",
"y. c #DBC4C5",
"u. c #D2C6CB",
"i. c #DBC6C9",
"p. c #D3CACD",
"a. c #DCCACB",
"s. c #CFCAD0",
"d. c #D1C7D1",
"f. c #D4CCD3",
"g. c #D8CFD6",
"h. c #D7CDDA",
"j. c #D9CED9",
"k. c #D6D0D6",
"l. c #D9D2D6",
"z. c #D7D2D9",
"x. c #DBD3DA",
"c. c #DED9DE",
"v. c #E0C7CB",
"b. c #E4CDCE",
"n. c #E1D0CF",
"m. c #E4CED0",
"M. c #E4D3D5",
"N. c #EAD5D6",
"B. c #E2D6DB",
"V. c #EAD7D9",
"C. c #E2DBDE",
"Z. c #ECDADC",
"A. c #F0DADF",
"S. c #DACFE1",
"D. c #DCD3E2",
"F. c #DFDBE0",
"G. c #DFD8E9",
"H. c #E1D5E4",
"J. c #E2DCE2",
"K. c #EDDEE1",
"L. c #E2DBEA",
"P. c #F0DCE1",
"I. c None",
/* pixels */
"I.I.I.I.I.I.I.I.I.I.I.I.I.I.I.I.I.I.I.I.I.I.I.I.I.I.I.I.I.I.I.I.I.I.I.I.I.I.I.I.I.I.I.I.I.I.I.I.I.I.I.I.I.I.I.I.I.I.I.I.I.I.I.I.",
"I.I.I.I.I.I.I.I.I.I.I.I.I.I.I.I.I.I.I.I.I.I.I.I.I.I.I.I.I.I.I.I.I.I.I.I.I.I.I.I.I.I.I.I.I.I.I.I.I.I.I.I.I.I.I.I.I.I.I.I.I.I.I.I.",
"I.I.I.I.I.I.I.I.I.I.I.I.I.I.I.I.I.I.I.I.I.I.I.I.I.I.I.I.I.I.I.( I.I.I.I.I.I.I.I.I.I.I.I.I.I.I.I.I.I.I.I.I.I.I.I.I.I.I.I.I.I.I.I.",
"I.I.I.I.I.I.I.I.I.I.I.I.I.I.I.I.I.I.I.I.I.I.I.I.I.I.I.I.I.I.I.Y S I.I.I.I.I.I.I.I.I.I.I.I.I.I.I.I.I.I.I.I.I.I.I.I.I.I.I.I.I.I.I.",
"I.I.I.I.I.I.I.I.I.I.I.I.I.I.I.I.I.I.I.I P t.I.I.I.I.I.I.I.I.q.I y I.I.I.I.I.I.I.I.I.I.I.I.I.I.I.I.I.I.I.I.I.I.I.I.I.I.I.I.I.I.I.",
"I.I.I.I.I.I.I.I.I.I.I.I.I.I.I.I.I.o.I.I.;.c A L I.I.I.I.I.I.l w.2 I.I.I.I.I.I.I.I.I.I.I.I.I.I.I.I.I.I.I.I.I.I.I.I.I.I.I.I.I.I.I.",
"I.I.I.I.I.I.I.I.I.I.I.I.I.I.I.I.( I.I.I.I.K.1.O...c I.I.I.I.M p.w Z I.I.I.I.I.I.I.I.I.I.I.I.I.I.I.I.I.I.I.I.I.I.I.I.I.I.I.I.I.I.",
"I.I.I.I.I.I.I.I.I.I.I.I.I.I.I.P I.I.I.I.Z.V.b.X.V g.k I.I.*.w u # : f f I.I.I.I.I.I.I.I.I.I.I.I.I.I.I.I.I.I.I.I.I.I.I.I.I.I.I.I.",
"I.I.I.I.I.I.I.I.I.I.I.I.I.I.I.Q I.I.I.I.I.V.m.=.| Q p.[ Y _ >.>.r.w.q.[ m m I.I.I.I.I.I.I.I.I.I.I.I.I.I.I.I.I.I.I.I.I.I.I.I.I.I.",
"I.I.I.I.I.I.I.I.I.I.I.I.I.I.I.k.I.I.I.I.I.N.y./ V Z %.p.l.l.x.l.l.x.x.x.l.l.p.Y ] I.I.I.I.I.I.I.I.I.I.I.I.I.I.I.I.I.I.I.I.I.I.I.",
"I.I.I.I.I.I.I.I.I.I.I.I.I.I.%.I.I.I.I.I.I.i.2.,.E d [ z.l.l.l.f.l.f.g.g.l.l.f.k.e.N { I.I.I.I.I.I.I.I.I.I.I.I.I.I.I.I.I.I.I.I.I.",
"I.I.I.I.I.I.I.I.I.I.I.I.I.I.>.I.I.I.I.I.N.Z.:.:.X.E #.k.f.k.f.p.f.a.l.p.l.l.f.k.z.f.{ ~ I.I.I.I.I.I.I.I.I.I.I.I.I.I.I.I.I.I.I.I.",
"I.I.I.I.I.I.I.I.I.I.I.I.I.I.~ I.I.I.t.I.y.b.b.2.v H g.x.d.h.p.p.p.p.f.l.p.k.f.f.p.q.u.p.x I.I.I.I.I.I.I.I.I.I.I.I.I.I.I.I.I.I.I.",
"I.I.I.I.I.I.I.I.I.I.I.I.I.I.| I.I.I.;.I./ 2.3.3.T ;.p.p.e.h.f.f.p.f.f.f.k.k.h.l.k.6.r.c.r.i x.I.I.I.I.I.I.I.I.I.I.I.I.I.I.I.I.I.",
"I.I.I.I.I.I.I.I.I.I.I.I.I.I.I.I.I.I.N.I.2.g 3 c 3.a.l.g.f.f.z.f.r.e.f.k.f.z.z.l.l.z.x.k.l.e.! I.I.I.I.I.I.I.I.I.I.I.I.I.I.I.I.I.",
"I.I.I.I.I.I.I.I.I.I.I.I.I.I.W I.I.I.A.I.3.c c <.r.x.p.f.f.f.d.f.z.f.x.z.l.c.J.c.x.x.l.z.c.B.p.f I.I.I.I.I.I.I.I.I.I.I.I.I.I.I.I.",
"I.I.I.I.I.I.I.I.I.I.I.I.I.I...I.I.M.I.N.;.a ;.a.l.p.g.g.d.g.f.l.z.z.f.c.x.x.x.H.J.I.J.c.x.C.l.[ Z I.I.I.I.I.I.I.I.I.I.I.I.I.I.x.",
"I.I.I.I.I.I.I.I.I.I.I.I.I.I.I.I.I.V.I.m.;.j Q p.f.g.l.j.f.f.z.f.f.f.z.z.x.z.x.c.C.I.I.J.C.x.C.x.L I.I.I.I.I.I.I.I.I.I.I.I.I.I.I.",
"I.I.I.I.I.I.I.I.I.I.I.I.I.I.I.<.I.I.V.i.=.1.M f.l.j.f.d.f.j.d.d.l.x.h.z.z.z.l.l.c.I.J.I.I.C.J.x.l.x I.I.I.I.I.I.I.I.I.I.I.I.I.I.",
"I.I.I.I.I.I.I.I.I.I.I.I.I.I.I.A I.I.N.a.,.X.p.p.j.f.z.h.f.f.g.f.h.x.x.l.F.x.z.h.J.I.I.I.I.I.J.C.C.[ I.I.I.I.I.I.I.I.I.I.I.I.I.I.",
"I.I.I.I.I.I.I.I.I.I.I.I.I.I.I.I Z.A.Z.i.$.H $.f.h.s.z.z.f.f.d.f.f.j.f.f.x.l.j.c.I.I.I.I.I.I.F.l.C.l.m I.I.I.I.I.I.I.I.I.I.I.I.I.",
"I.I.I.I.I.I.I.I.I.I.I.I.I.I.I.I.>.A.A.,.Q @.+.s.f.k.k.f.j.f.f.f.f.f.f.l.f.g.x.c.I.I.Y I.I.I.c.c.c.l.w.I I.I.I.I.I.I.I.I.I.I.I.I.",
"I.I.I.I.I.I.I.I.I.I.I.I.I.I.I.I.n I.V.M.;.u e.f.d.f.d.s.d.p.j.e.@.&.4.f.x.c.f.k.I.I.k { I.J.c.C.C.l.w.3.I.I.I.I.I.I.I.I.I.I.I.I.",
"I.I.I.I.I.I.I.I.I.I.I.I.I.I.I.I.I.<.M.V.-.1.6.d.f.f.f.f.f.f.f.e.4.+.u.&.+.*.f.k.J.I.I.I.I.C.c.C.C.C.V.w.I.I.I.I.I.I.I.I.I.I.I.I.",
"I.I.I.I.I.I.I.I.I.I.I.I.I.I.I.I.I.) n.i.=.-.6.d.e.d.j.f.h.s.r.f.f.f.g.g.f.f.d.l.x.I.I.I.I.l.p.f.C.I.M.M.S I.I.I.I.I.I.I.I.I.I.I.",
"I.I.I.I.I.I.I.I.I.I.I.I.I.I.I.I.I.~ 3.y.y.t.,.u.6.u.d.u.r.s.r.d.x.f.j.B.j.c.f.c.l.c.I.I.I.I.I.I.I.I.C.} D I.I.I.I.I.I.I.I.I.I.I.",
"I.I.I.I.I.I.I.I.I.I.I.I.I.I.I.I.I.I.Q 2.R j I 5 ' t.u.f.r.s.f.f.f.f.x.j.z.x.c.l.x.C.I.I.I.I.I.I.I.I.I.B I.I.I.I.I.I.I.I.I.I.I.I.",
"I.I.I.I.I.I.I.I.I.I.I.I.I.I.I.I.I.I.I.o.I.o ` a.a 6.f.f.f.j.g.j.x.H.B.j.c.z.z.f.c.I.I.I.I.I.I.I.I.I.I.y I.I.I.I.I.I.I.I.I.I.I.I.",
"I.I.I.I.I.I.I.I.I.I.I.I.I.I.I.I.I.I.I.q.X.r Q ;.d i.k.l.z.x.j.x.j.j.j.B.D.x.c.F.I.I.I.I.I.I.I.I.I.u.2 I.I.I.I.I.I.I.I.I.I.I.I.I.",
"I.I.I.I.I.I.I.I.I.I.I.I.I.I.I.I.I.I.I.I.~ I.I.,.1 l %.z.z.f.f.l.x.x.x.x.c.c.J.I.I.I.I.I.I.I.I.I.<.8 I.I.I.I.I.I.I.I.I.I.I.I.I.I.",
"I.I.I.I.I.I.I.I.I.I.I.I.I.I.I.I.I.I.I.I.n I.I.,.I..._ f.z.f.h.x.x.j.x.B.c.z.I.I.I.I.I.I.I.I.I...4 ; I.I.I.I.I.I.I.I.I.I.I.I.I.I.",
"I.I.I.I.I.I.I.I.I.I.I.I.I.I.I.I.I.I.I.I.I.| V.Z.a.C L h H @.d.f.f.g.g.g.C.I.I.I.I.I.I.I.e.^ E X.^ I.I.I.I.I.I.I.I.I.I.I.I.I.I.I.",
"I.| I.I.I.I.I.I.I.I.I.I.I.I.I.I.I.I.I.I.I.q M.i.y.p.p.u...h & C u.p.g.x.I.I.I.I.I.q.m 2 y ..i.v.,.r I.I.I.I.I.I.I.I.I.I.I.I.I.I.",
"~ I.I.I.I.I.I.I.I.I.I.I.I.I.I.I.I.I.I.I.I.d } 1.6.6.q.g.f.e.&.] >.u.g.x.J. .I ~ n f W q.t.t.9.m.m.^ I.I.I.I.I.I.I.I.I.I.I.I.I.I.",
"I.*...3.I.I.I.I.I.I.I.I.I.I.I.I.I.I.I.I.I.I.O ` ;.6.e.d.e.e.s.d.r.s.f.J.J.r.I.I.I.I.z.q.t.u.y.;.f I.I.I.I.I.I.I.I.I.I.I.I.I.I.I.",
"I.I.I.E o.I.I.I.I.I.I.I.I.I.I.I.I.I.I.I.I.I.H ` u.<.6.7.e.e.s.f.r.d.h.J.J.I.I.I.I.I.J.] p.t.Z k I.I.I.I.I.I.I.I.I.I.I.I.I.I.I.I.",
"I.I.I.[  .I.I.I.I.I.I.I.I.I.I.I.I.I.I.I.I.I.I.Z >.u.u.7.7.d.d.e.f.f.f.c.J.I.I.I.I.I.I.3., u L I.I.I.I.I.I.I.I.I.I.I.I.I.I.I.I.I.",
"I.I.I.I.I.| I.I.I.I.I.I.I.I.I.I.I.I.I.I.I.I.I. .< ~ 5.5.5.d.d.f.f.f.l.J.I.I.I.I.I.I.I.x.. I.I.I.I.I.I.I.I.I.I.I.I.I.I.I.I.I.I.I.",
"I.I.I.I.I.>.o.^ I.I.I.I.I.I.I.I.I.I.I.I.I.I.I.I.4  .&.e.7.u.f.f.d.z.x.I.I.I.I.I.I.I.I.k.. 0.I.I.I.I.I.I.I.I.O Z - I I.I.I.I.I.I.",
"I.I.I.I.I.I.[ ;.I.I.I.I.I.I.I.I.I.I.I.I.I.I.I.I.= &.6.e.u.6.s.z.z.x.c.J.I.I.I.I.I.I.I.p p m x x k I.I.I.I.I.n A c u I.I.I.I.I.I.",
"I.I.I.I.I.I.I.%.$...I.I.I.I.I.I.I.I.I.I.I.I.I.4 X @.7.7.5.7.f.z.D.c.J.I.I.I.I.I.I.I.I.I.J.C.J.F.#.M G I.I.I.E ) r f I I.I.I.I.I.",
"I.I.I.I.I.I.I.I.I.<.Q I.I.I.I.I.I.I.I.I.I.I.I.> 5.7.d.d.e.f.z.z.c.F.I.I.I.I.I.I.I.I.I.J.J.J.J.F.I.F.q.0 I.I.E E } 3.Z I.I.I.I.I.",
"I.I.I.I.I.I.I.I.I.| O...I.I.I.I.I.I.I.I.I.I.+ ] 7.e.t.f.f.f.h.k.x.J.J.I.I.I.I.I.I.I.I.I.I.I.I.I.J.I.C.e.Z I.c I.I.< I.I.I.I.I.I.",
"I.I.I.I.I.I.I.I.I.I.I.~ ) [ I.I.I.I.I.I.v v <.d.f.f.f.g.j.f.f.x.J.I.I.I.I.I.I.I.I.I.I.I.I.I.J.J.J.I.I.C.Z p.d I.I.n I.I.I.I.I.I.",
"I.I.I.I.I.I.I.I.I.I.I.I.| I  .I I.I.: e *.q.s.f.f.f.f.j.g.c.c.J.J.I.I.I.I.I.I.I.I.I.I.I.I.I.I.J.I.I.L.I.| v d I.I.Q I.I.I.I.I.I.",
"I.I.I.I.I.I.I.I.I.I.I.I.I.I.) 3.u + I q.e.s.h.z.g.f.j.d.g.l.c.J.F.I.I.I.I.I.I.I.I.I.I.I.I.I.I.I.I.I.I.I.x.@ d I.I.E I.I.I.I.I.I.",
"I.I.I.I.I.I.I.I.I.I.I.I.I.I.I.w w  .p.f.f.h.h.z.l.g.j.f.l.x.c.D.I.I.I.I.I.I.I.I.I.I.I.I.I.I.I.I.I.I.I.I.I.<.: M.I.n I.I.I.I.I.I.",
"I.I.I.I.I.I.I.I.I.I.I.I.I.d M 1 <.g.f.z.x.F.x.z.j.x.B.J.B.H.J.I.I.I.I.I.I.I.I.I.I.I.I.I.I.I.I.I.I.I.I.I.I.J.A u.I.e I.I.I.I.I.I.",
"I.I.I.I.W n 2 A I.I.I.L B V.l @.f.z.c.c.z.F.J.F.c.F.J.J.J.J.I.I.I.I.I.I.I.I.I.I.I.I.I.I.I.I.I.I.I.I.I.I.I.I.I.B.I.v I.I.I.I.I.I.",
"I.I.m W 2 } w s ; D [ I.V.6.@.u.k.c.c.c.F.F.J.J.F.I.I.I.I.I.I.I.I.I.I.I.I.I.I.I.I.I.I.I.I.I.I.I.I.I.I.I.I.I.I.B.I.Z I.I.I.I.I.I.",
"I.I.o.X.I.I.I.I.I.I.I.I.P.V.t.r.l.F.J.J.J.J.I.I.I.I.I.I.I.I.I.I.I.I.I.I.I.I.I.I.I.I.I.I.I.I.I.I.I.I.I.I.I.I.I.B.M.A I.I.I.I.I.I.",
"I.I.I.! H ` @.B.I.I.I.Z.Z.u.<.p.f.F.J.I.J.I.J.I.I.I.I.I.I.I.I.I.I.I.I.I.I.I.I.I.I.I.I.I.I.I.I.I.I.I.I.I.I.I.I.I.I.C I.I.I.I.I.I.",
"I.I.I.I.f.r.&.&.{ U _ _ K U G _ _ { x.x.c.D.x.F.I.I.I.I.I.I.I.I.I.I.I.I.I.I.I.I.I.I.I.I.I.I.I.I.I.I.I.I.I.I.I.B.I.d I.I.I.I.I.I.",
"I.I.I.I.I.I.I.I.I.I.I.I.I.I.I.S.d._ 6 9 { u.j.D.B.J.x.H.I.I.I.I.I.$.t $ $ + X + + % + + > > = < i k u y 0 < v n l X.I.I.I.I.I.I.",
"I.I.I.I.I.I.I.I.I.I.I.I.I.I.I.I.I.I.H.4.K 9 6 v G _ ' G C C J F J +.d.H.l.x.x.c.k.z.r.d.h.B.H.J.I.l.4.Y 5.I.I.5.I.I.I.I.I.I.I.I.",
"I.I.I.I.I.I.I.I.I.I.I.I.I.I.I.I.I.I.H.S.H.h.S.f.h.h.d.&.e.p.D.L.I.I.I.I.I.I.I.I.I.I.I.I.I.I.I.I.I.I.I.I.I.I.I.I.I.I.I.I.I.I.I.I.",
"I.I.I.I.I.I.I.I.I.I.I.I.I.I.I.I.I.I.L.D.H.H.G.S.D.L.L.L.I.L.L.I.I.I.I.L.I.I.I.I.I.I.I.I.I.I.I.I.I.I.I.I.I.I.I.I.I.I.I.I.I.I.I.I.",
"I.I.I.I.I.I.I.I.I.I.I.I.I.I.I.I.I.G.D.S.G.L.L.L.I.I.I.I.I.I.I.I.I.I.I.I.I.I.I.I.I.I.I.I.I.I.I.I.I.I.I.I.I.I.I.I.I.I.I.I.I.I.I.I.",
"I.I.I.I.I.I.I.I.I.I.I.I.I.I.I.I.I.I.I.I.I.I.I.I.I.I.I.I.I.I.I.I.I.I.I.I.I.I.I.I.I.I.I.I.I.I.I.I.I.I.I.I.I.I.I.I.I.I.I.I.I.I.I.I.",
"I.I.I.I.I.I.I.I.I.I.I.I.I.I.I.I.I.I.I.I.I.I.I.I.I.I.I.I.I.I.I.I.I.I.I.I.I.I.I.I.I.I.I.I.I.I.I.I.I.I.I.I.I.I.I.I.I.I.I.I.I.I.I.I.",
"I.I.I.I.I.I.I.I.I.I.I.I.I.I.I.I.I.I.I.I.I.I.I.I.I.I.I.I.I.I.I.I.I.I.I.I.I.I.I.I.I.I.I.I.I.I.I.I.I.I.I.I.I.I.I.I.I.I.I.I.I.I.I.I.",
"I.I.I.I.I.I.I.I.I.I.I.I.I.I.I.I.I.I.I.I.I.I.I.I.I.I.I.I.I.I.I.I.I.I.I.I.I.I.I.I.I.I.I.I.I.I.I.I.I.I.I.I.I.I.I.I.I.I.I.I.I.I.I.I.",
"I.I.I.I.I.I.I.I.I.I.I.I.I.I.I.I.I.I.I.I.I.I.I.I.I.I.I.I.I.I.I.I.I.I.I.I.I.I.I.I.I.I.I.I.I.I.I.I.I.I.I.I.I.I.I.I.I.I.I.I.I.I.I.I.",
"I.I.I.I.I.I.I.I.I.I.I.I.I.I.I.I.I.I.I.I.I.I.I.I.I.I.I.I.I.I.I.I.I.I.I.I.I.I.I.I.I.I.I.I.I.I.I.I.I.I.I.I.I.I.I.I.I.I.I.I.I.I.I.I."
};
