/* XPM */
static char *result[] = {
/* columns rows colors chars-per-pixel */
"64 64 163 2 ",
"   c #251F1F",
".  c #262120",
"X  c #342B2D",
"o  c #392D2D",
"O  c #3C3233",
"+  c #453D3C",
"@  c #493E3D",
"#  c #4A413F",
"$  c #473E41",
"%  c #4E4644",
"&  c #4E444A",
"*  c #50474A",
"=  c #51484B",
"-  c #5B4E4A",
";  c #58504B",
":  c #5D5354",
">  c #5E5559",
",  c #5F5858",
"<  c #655B5C",
"1  c #6A5C5C",
"2  c #6D625D",
"3  c #77655E",
"4  c #665D61",
"5  c #6C5C64",
"6  c #6A5E6B",
"7  c #656060",
"8  c #6B6263",
"9  c #6D636C",
"0  c #6E6869",
"q  c #736666",
"w  c #736966",
"e  c #746B6C",
"r  c #7A6B6A",
"t  c #776E72",
"y  c #737171",
"u  c #7C7474",
"i  c #7E777B",
"p  c #7F7C7D",
"a  c #816D6C",
"s  c #81756E",
"d  c #827575",
"f  c #827976",
"g  c #8B7872",
"h  c #83777B",
"j  c #8C767A",
"k  c #837B7C",
"l  c #8B7C7C",
"z  c #917F79",
"x  c #80807E",
"c  c #8E827F",
"v  c #8C7F81",
"b  c #858180",
"n  c #8C8282",
"m  c #8F8B87",
"M  c #8F8688",
"N  c #8F8A8A",
"B  c #938485",
"V  c #998682",
"C  c #91868B",
"Z  c #948B8B",
"A  c #9A8D8C",
"S  c #93918F",
"D  c #99918F",
"F  c #8F8591",
"G  c #948C92",
"H  c #9A8E92",
"J  c #968D98",
"K  c #9B8F9B",
"L  c #979191",
"P  c #9C9494",
"I  c #9E9996",
"U  c #9A929B",
"Y  c #9E9A9A",
"T  c #A18F90",
"R  c #AB8F91",
"E  c #A19594",
"W  c #A29995",
"Q  c #A99996",
"!  c #A2959C",
"~  c #A59B9B",
"^  c #AA9C9C",
"/  c #B19C9C",
"(  c #A1A19E",
")  c #ABA09E",
"_  c #A59BA2",
"`  c #AC9DA2",
"'  c #B09FA9",
"]  c #A7A4A5",
"[  c #ABA3A4",
"{  c #ADA5AA",
"}  c #B4A5A4",
"|  c #B1A9A5",
" . c #B2A6A9",
".. c #B4ABAB",
"X. c #BBAAAB",
"o. c #B3B0AD",
"O. c #BBB0AE",
"+. c #B5ACB3",
"@. c #BCADB3",
"#. c #B5B0B0",
"$. c #BBB2B4",
"%. c #BEB8B6",
"&. c #BEB4BB",
"*. c #BDB9BC",
"=. c #C5ACAE",
"-. c #C6AFB2",
";. c #C4B4B5",
":. c #CBB4B5",
">. c #C2B6BB",
",. c #CBB5B8",
"<. c #C4BCBC",
"1. c #CBBABC",
"2. c #D2BBBB",
"3. c #D2C0BE",
"4. c #C2B7C3",
"5. c #C5BBC2",
"6. c #CABEC3",
"7. c #CDBFC8",
"8. c #D0BDC1",
"9. c #D8BEC4",
"0. c #C6C1C1",
"q. c #CBC3C5",
"w. c #CDC8C6",
"e. c #CDC4CB",
"r. c #CFC9CD",
"t. c #D2C4C5",
"y. c #DBC4C5",
"u. c #D2C6CB",
"i. c #DBC6C9",
"p. c #D3CACD",
"a. c #DCCACB",
"s. c #CFCAD0",
"d. c #D1C7D1",
"f. c #D4CCD3",
"g. c #D8CFD6",
"h. c #D7CDDA",
"j. c #D9CED9",
"k. c #D6D0D6",
"l. c #D9D2D6",
"z. c #D7D2D9",
"x. c #DBD3DA",
"c. c #DED9DE",
"v. c #E0C7CB",
"b. c #E4CDCE",
"n. c #E1D0CF",
"m. c #E4CED0",
"M. c #E4D3D5",
"N. c #EAD5D6",
"B. c #E2D6DB",
"V. c #EAD7D9",
"C. c #E2DBDE",
"Z. c #ECDADC",
"A. c #F0DADF",
"S. c #DACFE1",
"D. c #DCD3E2",
"F. c #DFDBE0",
"G. c #DFD8E9",
"H. c #E1D5E4",
"J. c #E2DCE2",
"K. c #EDDEE1",
"L. c #E2DBEA",
"P. c #F0DCE1",
"I. c None",
/* pixels */
"I.I.I.I.I.I.I.I.I.I.I.I.I.I.I.I.I.I.I.I.I.I.I.I.I.I.I.I.I.I.I.I.I.I.I.I.I.I.I.I.I.I.I.I.I.I.I.I.I.I.I.I.I.I.I.I.I.I.I.I.I.I.I.I.",
"I.I.I.I.I.I.I.I.I.I.I.I.I.I.I.I.I.I.I.I.I.I.I.I.I.I.I.I.I.I.I.I.I.I.I.I.I.I.I.I.I.I.I.I.I.I.I.I.I.I.I.I.I.I.I.I.I.I.I.I.I.I.I.I.",
"I.I.I.I.I.I.I.I.I.I.I.I.I.I.I.I.I.I.I.I.I.I.I.I.I.I.I.I.I.I.I.I.( I.I.I.I.I.I.I.I.I.I.I.I.I.I.I.I.I.I.I.I.I.I.I.I.I.I.I.I.I.I.I.",
"I.I.I.I.I.I.I.I.I.I.I.I.I.I.I.I.I.I.I.I.I.I.I.I.I.I.I.I.I.I.I.L Y I.I.I.I.I.I.I.I.I.I.I.I.I.I.I.I.I.I.I.I.I.I.I.I.I.I.I.I.I.I.I.",
"I.I.I.I.I.I.I.I.I.I.I.I.I.I.I.I.I.I.I.I.I.I.I.I.I.I.I.I.I.I.I.e I q.I.I.I.I.I.I.I.I.w.P I I.I.I.I.I.I.I.I.I.I.I.I.I.I.I.I.I.I.I.",
"I.I.I.I.I.I.I.I.I.I.I.I.I.I.I.I.I.I.I.I.I.I.I.I.I.I.I.I.I.I.I.2 p.k I.I.I.I.I.I.L A B ;.I.I.o.I.I.I.I.I.I.I.I.I.I.I.I.I.I.I.I.I.",
"I.I.I.I.I.I.I.I.I.I.I.I.I.I.I.I.I.I.I.I.I.I.I.I.I.I.I.I.I.I.D w p.n I.I.I.I.b ..X.1.K.I.I.I.I.( I.I.I.I.I.I.I.I.I.I.I.I.I.I.I.I.",
"I.I.I.I.I.I.I.I.I.I.I.I.I.I.I.I.I.I.I.I.I.I.I.I.I.I.I.I.f f : # u w *.I.I.x n.V X.M.V.Z.I.I.I.I.P I.I.I.I.I.I.I.I.I.I.I.I.I.I.I.",
"I.I.I.I.I.I.I.I.I.I.I.I.I.I.I.I.I.I.I.I.I.I.I.I.I.I.m B [ q.t.w.<.$.~ ~ [ p.W } X.b.V.I.I.I.I.I.~ I.I.I.I.I.I.I.I.I.I.I.I.I.I.I.",
"I.I.I.I.I.I.I.I.I.I.I.I.I.I.I.I.I.I.I.I.I.I.I.] Y p.l.l.c.l.c.l.l.c.z.l.p.%.A B / y.N.I.I.I.I.I.l.I.I.I.I.I.I.I.I.I.I.I.I.I.I.I.",
"I.I.I.I.I.I.I.I.I.I.I.I.I.I.I.I.I.I.I.I.I.{ N q.k.k.x.g.f.f.g.l.g.l.z.l.l.[ j T :.2.i.I.I.I.I.I.I.$.I.I.I.I.I.I.I.I.I.I.I.I.I.I.",
"I.I.I.I.I.I.I.I.I.I.I.I.I.I.I.I.I.I.I.I._ { f.x.k.f.l.l.p.g.f.f.p.f.f.f.l.#.E X.:.:.Z.N.I.I.I.I.I.<.I.I.I.I.I.I.I.I.I.I.I.I.I.I.",
"I.I.I.I.I.I.I.I.I.I.I.I.I.I.I.I.I.I.I.x p.p.6.p.p.p.k.k.k.p.p.p.p.p.h.f.z.l.A B 2.b.b.v.I.3.I.I.I.~ I.I.I.I.I.I.I.I.I.I.I.I.I.I.",
"I.I.I.I.I.I.I.I.I.I.I.I.I.I.I.I.I.x.k r.x.e.5.g.l.l.f.k.f.k.k.p.f.f.h.e.f.p.%.Z 2.v.2./ I.;.I.I.I.| I.I.I.I.I.I.I.I.I.I.I.I.I.I.",
"I.I.I.I.I.I.I.I.I.I.I.I.I.I.I.I.I.~ q.z.f.x.z.c.z.x.l.f.h.f.e.r.f.l.f.d.f.l.g.3.c 3 g 2.I.n.I.I.I.I.I.I.I.I.I.I.I.I.I.I.I.I.I.I.",
"I.I.I.I.I.I.I.I.I.I.I.I.I.I.I.I.f p.J.x.x.l.x.z.F.c.c.z.z.z.f.g.f.s.f.f.f.p.l.u.1.c c 3.I.A.I.I.I.W I.I.I.I.I.I.I.I.I.I.I.I.I.I.",
"x.I.I.I.I.I.I.I.I.I.I.I.I.I.I.N [ l.B.x.x.J.I.J.J.x.D.c.c.f.z.z.g.f.j.u.g.l.p.f.p.;.a :.N.I.B.I.I...I.I.I.I.I.I.I.I.I.I.I.I.I.I.",
"I.I.I.I.I.I.I.I.I.I.I.I.I.I.I.D x.C.c.C.J.I.I.J.x.x.x.z.l.g.f.g.g.h.g.f.g.z.g.f.p.W j ;.b.I.V.I.I.I.I.I.I.I.I.I.I.I.I.I.I.I.I.I.",
"I.I.I.I.I.I.I.I.I.I.I.I.I.I.b l.c.J.C.I.I.J.I.c.z.z.z.l.z.g.x.z.f.r.g.f.f.h.z.g.g.B 1.X.a.N.I.I.<.I.I.I.I.I.I.I.I.I.I.I.I.I.I.I.",
"I.I.I.I.I.I.I.I.I.I.I.I.I.I.[ C.C.J.I.I.I.I.I.J.z.h.x.J.z.z.x.g.s.f.f.h.g.g.g.h.p.u.@.,.a.N.I.I.A I.I.I.I.I.I.I.I.I.I.I.I.I.I.I.",
"I.I.I.I.I.I.I.I.I.I.I.I.I.Z l.C.l.c.I.I.I.I.I.I.x.z.z.z.g.f.g.f.h.f.u.f.h.z.f.f.f.$.L ;.y.Z.A.K.I I.I.I.I.I.I.I.I.I.I.I.I.I.I.I.",
"I.I.I.I.I.I.I.I.I.I.I.I.I t.l.c.c.x.I.I.I.Y I.I.c.x.z.g.g.g.f.h.f.f.f.h.f.f.k.k.p.+.@.Q ,.A.A.;.I.I.I.I.I.I.I.I.I.I.I.I.I.I.I.I.",
"I.I.I.I.I.I.I.I.I.I.I.I.3.0.x.C.c.c.J.I.{ k I.I.l.f.x.j.d.>.&.@.e.z.r.s.r.s.f.f.h.7.u ;.M.V.I.b I.I.I.I.I.I.I.I.I.I.I.I.I.I.I.I.",
"I.I.I.I.I.I.I.I.I.I.I.I.w.c.C.C.C.c.C.I.I.I.I.J.g.f.4.+.&.u.+.5.e.f.f.f.f.f.d.f.u.6.5.-.N.N.1.I.I.I.I.I.I.I.I.I.I.I.I.I.I.I.I.I.",
"I.I.I.I.I.I.I.I.I.I.I.Z M.B.I.C.p.p.x.I.I.I.I.x.l.r.l.f.h.g.d.f.g.e.s.z.f.g.d.e.d.6.:.=.i.b.) I.I.I.I.I.I.I.I.I.I.I.I.I.I.I.I.I.",
"I.I.I.I.I.I.I.I.I.I.I.D [ Z.I.I.I.I.I.I.I.I.C.k.x.k.x.z.B.g.g.j.d.d.s.r.d.f.7.6.t.<.9.y.y.3.~ I.I.I.I.I.I.I.I.I.I.I.I.I.I.I.I.I.",
"I.I.I.I.I.I.I.I.I.I.I.I.V I.I.I.I.I.I.I.I.I.c.c.z.c.x.z.j.x.g.g.f.f.r.s.h.u.7.' 5 E j R 2.Q I.I.I.I.I.I.I.I.I.I.I.I.I.I.I.I.I.I.",
"I.I.I.I.I.I.I.I.I.I.I.I.y I.I.I.I.I.I.I.I.I.I.F.k.z.h.B.x.B.j.x.g.j.h.f.f.p.6.a i.[ o I.o.I.I.I.I.I.I.I.I.I.I.I.I.I.I.I.I.I.I.I.",
"I.I.I.I.I.I.I.I.I.I.I.I.I.7 u.I.I.I.I.I.I.I.I.I.c.c.x.H.x.x.j.B.j.g.x.z.x.k.p.g ;.~ r ..q.I.I.I.I.I.I.I.I.I.I.I.I.I.I.I.I.I.I.I.",
"I.I.I.I.I.I.I.I.I.I.I.I.I.I.8 <.I.I.I.I.I.I.I.I.I.F.F.x.B.x.j.x.z.f.h.z.l.$.l 1 ,.I.I.^ I.I.I.I.I.I.I.I.I.I.I.I.I.I.I.I.I.I.I.I.",
"I.I.I.I.I.I.I.I.I.I.I.I.I.I.; 7 ..I.I.I.I.I.I.I.I.I.c.x.x.x.j.l.x.g.h.j.f.~ ..I.,.I.I.n I.I.I.I.I.I.I.I.I.I.I.I.I.I.I.I.I.I.I.I.",
"I.I.I.I.I.I.I.I.I.I.I.I.I.I.I.^ X.E ^ w.I.I.I.I.I.I.I.C.l.g.g.f.g.u.@.L i L C a.V.V.} I.I.I.I.I.I.I.I.I.I.I.I.I.I.I.I.I.I.I.I.I.",
"I.I.I.I.I.I.I.I.I.I.I.I.I.I.w 1.v.y...u 2 n w.I.I.I.I.I.B.g.f.r.C & h +.e.p.p.t.i.M.q I.I.I.I.I.I.I.I.I.I.I.I.I.I.I.I.I.I.I.| I.",
"I.I.I.I.I.I.I.I.I.I.I.I.I.I.^ b.b.9.t.p.q.~ f b ~ L  .J.l.f.r.&.[ &.7.f.f.q.6.6.1.} a I.I.I.I.I.I.I.I.I.I.I.I.I.I.I.I.I.I.I.I.~ ",
"I.I.I.I.I.I.I.I.I.I.I.I.I.I.I.k ;.i.t.t.q.l.I.I.I.I.p.J.J.f.d.r.f.r.e.e.d.q.1.>.` O I.I.I.I.I.I.I.I.I.I.I.I.I.I.I.I.I.I.3...*.I.",
"I.I.I.I.I.I.I.I.I.I.I.I.I.I.I.I.k C w.p.{ c.I.I.I.I.I.J.J.g.s.r.f.r.7.e.t.q.6.u.[ H I.I.I.I.I.I.I.I.I.I.I.I.I.I.I.I.I.+.P I.I.I.",
"I.I.I.I.I.I.I.I.I.I.I.I.I.I.I.I.I.H u , 5.I.I.I.I.I.I.J.F.g.f.s.e.d.f.7.6.d.u.>.Z I.I.I.I.I.I.I.I.I.I.I.I.I.I.I.I.I.I...] I.I.I.",
"I.I.I.I.I.I.I.I.I.I.I.I.I.I.I.I.I.I.I.  x.I.I.I.I.I.I.I.J.z.f.f.f.d.d.4.6.5.^ <  .I.I.I.I.I.I.I.I.I.I.I.I.I.I.I.I.I.| I.I.I.I.I.",
"I.I.I.I.I.I.W - V O I.I.I.I.I.I.I.I.0.  s.I.I.I.I.I.I.I.I.x.z.s.h.f.u.7.7.&. .4 I.I.I.I.I.I.I.I.I.I.I.I.I.I.I.I.~ X.<.I.I.I.I.I.",
"I.I.I.I.I.I.u c A n I.I.I.I.I.p x x N k v I.I.I.I.I.I.I.J.x.x.z.g.r.6.d.t.6.&.= I.I.I.I.I.I.I.I.I.I.I.I.I.I.I.I.;.[ I.I.I.I.I.I.",
"I.I.I.I.I.Y f r / E I.I.I.L N $.c.J.J.J.I.I.I.I.I.I.I.I.I.J.F.c.g.f.7.6.7.6.@.X 4 I.I.I.I.I.I.I.I.I.I.I.I.I...O.%.I.I.I.I.I.I.I.",
"I.I.I.I.I.Z 3.} E W I.I.9 q.F.I.c.J.J.F.J.I.I.I.I.I.I.I.I.I.F.c.z.z.f.e.r.u.e.4.> I.I.I.I.I.I.I.I.I.I.I.I.W 1.I.I.I.I.I.I.I.I.I.",
"I.I.I.I.I.I.< I.I.c I.m e.F.I.J.I.I.I.I.I.I.I.I.I.I.I.I.I.J.J.x.k.f.h.f.u.e.7.6.{ O I.I.I.I.I.I.I.I.I.I...O. .I.I.I.I.I.I.I.I.I.",
"I.I.I.I.I.I.c I.I.d p.Z c.I.I.J.J.F.I.I.I.I.I.I.I.I.I.I.I.I.I.J.z.f.g.g.g.h.h.f.f.*.x v I.I.I.I.I.I.[ ) ~ I.I.I.I.I.I.I.I.I.I.I.",
"I.I.I.I.I.I.^ I.I.d c { I.J.I.I.J.I.I.I.I.I.I.I.I.I.I.I.I.I.I.J.F.F.B.g.j.g.f.g.h.r.e.*.t : I.I.W ..I | I.I.I.I.I.I.I.I.I.I.I.I.",
"I.I.I.I.I.I.E I.I.d @ l.I.I.I.I.I.I.I.I.I.I.I.I.I.I.I.I.I.I.I.J.F.F.x.z.d.g.f.g.z.f.s.r.6.I + u 3.~ I.I.I.I.I.I.I.I.I.I.I.I.I.I.",
"I.I.I.I.I.I.v I.B.; 3.I.I.I.I.I.I.I.I.I.I.I.I.I.I.I.I.I.I.I.I.I.F.x.x.z.g.j.g.z.x.z.x.f.f.p. .0 w I.I.I.I.I.I.I.I.I.I.I.I.I.I.I.",
"I.I.I.I.I.I.w I.p.L J.I.I.I.I.I.I.I.I.I.I.I.I.I.I.I.I.I.I.I.I.I.I.F.J.x.B.B.x.j.h.z.D.x.l.f.g.3.< B f I.I.I.I.I.I.I.I.I.I.I.I.I.",
"I.I.I.I.I.I.b I.B.I.I.I.I.I.I.I.I.I.I.I.I.I.I.I.I.I.I.I.I.I.I.I.I.I.J.J.J.J.J.x.c.F.F.F.z.c.z.k.#.v V.v G I.I.I.Z 2 n W I.I.I.I.",
"I.I.I.I.I.I.A I.B.I.I.I.I.I.I.I.I.I.I.I.I.I.I.I.I.I.I.I.I.I.I.I.I.I.I.I.I.I.I.J.F.F.F.J.c.c.c.l.p.@.8.V.I.[ D ; s w } 2 W m I.I.",
"I.I.I.I.I.I.H M.B.I.I.I.I.I.I.I.I.I.I.I.I.I.I.I.I.I.I.I.I.I.I.I.I.I.I.I.I.I.I.I.I.I.J.J.J.F.c.l.t.t.V.P.I.I.I.I.I.I.I.I.X.o.I.I.",
"I.I.I.I.I.I.B I.I.I.I.I.I.I.I.I.I.I.I.I.I.I.I.I.I.I.I.I.I.I.I.I.I.I.I.I.I.I.I.I.I.J.I.J.I.J.D.g.p.5.i.H.K.I.I.I.V.@.` H ! I.I.I.",
"I.I.I.I.I.I.d I.B.I.I.I.I.I.I.I.I.I.I.I.I.I.I.I.I.I.I.I.I.I.I.I.I.I.I.I.I.I.I.I.J.c.c.x.z.x. ._ ! G U U _ _ U { &.&.e.l.I.I.I.I.",
"I.I.I.I.I.I.X.l l v 4 0 y u f i < = > > + + % + # X + + $ t +.I.I.I.I.I.H.x.J.B.J.x.d.{ 9 6 _ e.D.I.I.I.I.I.I.I.I.I.I.I.I.I.I.I.",
"I.I.I.I.I.I.I.I.5.I.I.6.U *.j.I.J.J.H.h.f.r.z.g.x.z.x.x.H.d.+.J F G G C F ' ' F v 6 9 K 4.H.I.I.I.I.I.I.I.I.I.I.I.I.I.I.I.I.I.I.",
"I.I.I.I.I.I.I.I.I.I.I.I.I.I.I.I.I.I.I.I.I.I.I.I.I.I.I.I.I.I.I.I.L.D.f.7.4.d.h.d.h.S.h.H.D.H.I.I.I.I.I.I.I.I.I.I.I.I.I.I.I.I.I.I.",
"I.I.I.I.I.I.I.I.I.I.I.I.I.I.I.I.I.I.I.I.I.I.I.I.I.I.I.I.L.I.I.I.I.L.L.I.L.L.G.D.D.D.H.H.D.L.I.I.I.I.I.I.I.I.I.I.I.I.I.I.I.I.I.I.",
"I.I.I.I.I.I.I.I.I.I.I.I.I.I.I.I.I.I.I.I.I.I.I.I.I.I.I.I.I.I.I.I.I.I.I.I.I.I.I.I.G.L.L.G.D.D.D.I.I.I.I.I.I.I.I.I.I.I.I.I.I.I.I.I.",
"I.I.I.I.I.I.I.I.I.I.I.I.I.I.I.I.I.I.I.I.I.I.I.I.I.I.I.I.I.I.I.I.I.I.I.I.I.I.I.I.I.I.I.I.I.I.I.I.I.I.I.I.I.I.I.I.I.I.I.I.I.I.I.I.",
"I.I.I.I.I.I.I.I.I.I.I.I.I.I.I.I.I.I.I.I.I.I.I.I.I.I.I.I.I.I.I.I.I.I.I.I.I.I.I.I.I.I.I.I.I.I.I.I.I.I.I.I.I.I.I.I.I.I.I.I.I.I.I.I.",
"I.I.I.I.I.I.I.I.I.I.I.I.I.I.I.I.I.I.I.I.I.I.I.I.I.I.I.I.I.I.I.I.I.I.I.I.I.I.I.I.I.I.I.I.I.I.I.I.I.I.I.I.I.I.I.I.I.I.I.I.I.I.I.I.",
"I.I.I.I.I.I.I.I.I.I.I.I.I.I.I.I.I.I.I.I.I.I.I.I.I.I.I.I.I.I.I.I.I.I.I.I.I.I.I.I.I.I.I.I.I.I.I.I.I.I.I.I.I.I.I.I.I.I.I.I.I.I.I.I.",
"I.I.I.I.I.I.I.I.I.I.I.I.I.I.I.I.I.I.I.I.I.I.I.I.I.I.I.I.I.I.I.I.I.I.I.I.I.I.I.I.I.I.I.I.I.I.I.I.I.I.I.I.I.I.I.I.I.I.I.I.I.I.I.I.",
"I.I.I.I.I.I.I.I.I.I.I.I.I.I.I.I.I.I.I.I.I.I.I.I.I.I.I.I.I.I.I.I.I.I.I.I.I.I.I.I.I.I.I.I.I.I.I.I.I.I.I.I.I.I.I.I.I.I.I.I.I.I.I.I."
};
