/* XPM */
static char *result[] = {
/* columns rows colors chars-per-pixel */
"64 64 201 2 ",
"   c #5C492D",
".  c #6F582A",
"X  c #745A27",
"o  c #725B30",
"O  c #705B33",
"+  c #775F30",
"@  c #755E32",
"#  c #775F32",
"$  c #755F34",
"%  c #7A612F",
"&  c #786033",
"*  c #786133",
"=  c #7A6233",
"-  c #7A6234",
";  c #7E6534",
":  c #7F6634",
">  c #7F6635",
",  c #7D663A",
"<  c #84692F",
"1  c #8A6D2D",
"2  c #8E702D",
"3  c #90712E",
"4  c #806734",
"5  c #816834",
"6  c #826834",
"7  c #836935",
"8  c #876D37",
"9  c #886D35",
"0  c #8A6F35",
"q  c #886D36",
"w  c #896E36",
"e  c #896F36",
"r  c #8F7130",
"t  c #8B7036",
"y  c #8C7136",
"u  c #8D7136",
"i  c #8E7236",
"p  c #8F7337",
"a  c #917330",
"s  c #977730",
"d  c #947633",
"f  c #907436",
"g  c #917436",
"h  c #927537",
"j  c #937636",
"k  c #937637",
"l  c #937737",
"z  c #967837",
"x  c #977937",
"c  c #977A37",
"v  c #9C7B30",
"b  c #9D7C30",
"n  c #9F7E31",
"m  c #987A36",
"M  c #997A36",
"N  c #9B7C37",
"B  c #9E7F37",
"V  c #957838",
"C  c #967938",
"Z  c #987A38",
"A  c #997B38",
"S  c #987A39",
"D  c #9F7F38",
"F  c #9D7E3A",
"G  c #A07E30",
"H  c #A17F32",
"J  c #9F803B",
"K  c #A48232",
"L  c #A58232",
"P  c #A68333",
"I  c #A78432",
"U  c #A28136",
"Y  c #A28137",
"T  c #A38337",
"R  c #A48335",
"E  c #A58335",
"W  c #A48236",
"Q  c #A48336",
"!  c #A48337",
"~  c #A68437",
"^  c #A68537",
"/  c #A78537",
"(  c #A88532",
")  c #A88533",
"_  c #A98533",
"`  c #A98633",
"'  c #AA8633",
"]  c #AA8733",
"[  c #A98634",
"{  c #A88635",
"}  c #AA8634",
"|  c #AA8734",
" . c #AB8734",
".. c #A88536",
"X. c #A88636",
"o. c #A88637",
"O. c #A98737",
"+. c #AB8834",
"@. c #AD8934",
"#. c #AC8935",
"$. c #AD8A35",
"%. c #AE8A34",
"&. c #AF8A34",
"*. c #AF8B34",
"=. c #AC8936",
"-. c #AC8937",
";. c #A88739",
":. c #AA8838",
">. c #AB8938",
",. c #AA8839",
"<. c #A8883A",
"1. c #AB8A3B",
"2. c #AC8A39",
"3. c #AC8A3A",
"4. c #AF8C38",
"5. c #A8883C",
"6. c #A8883D",
"7. c #A8893E",
"8. c #AC8B3C",
"9. c #AC8B3D",
"0. c #B18C35",
"q. c #B28E38",
"w. c #B38F38",
"e. c #B59035",
"r. c #B59036",
"t. c #B69036",
"y. c #B79236",
"u. c #B89237",
"i. c #BA9437",
"p. c #BC9637",
"a. c #B69138",
"s. c #B79238",
"d. c #B79239",
"f. c #B99439",
"g. c #BB9539",
"h. c #BC9538",
"j. c #BD9739",
"k. c #BF9838",
"l. c #BF9939",
"z. c #C09938",
"x. c #C09939",
"c. c #C19939",
"v. c #C19A39",
"b. c #C39B39",
"n. c #C0993A",
"m. c #C19A3A",
"M. c #C59C39",
"N. c #C59D39",
"B. c #C59D3A",
"V. c #C69E3B",
"C. c #C89F3A",
"Z. c #C8A03A",
"A. c #CAA13A",
"S. c #CAA13B",
"D. c #CBA23B",
"F. c #CDA33B",
"G. c #CBA23C",
"H. c #D1A73C",
"J. c #D1A73D",
"K. c #D3A83C",
"L. c #D3A93C",
"P. c #D2A83D",
"I. c #D3A83D",
"U. c #D3A93D",
"Y. c #D4AA3D",
"T. c #D5AA3D",
"R. c #D7AC3D",
"E. c #D8AD3E",
"W. c #D9AD3E",
"Q. c #D9AE3E",
"!. c #DBAF3F",
"~. c #DCB03E",
"^. c #DCB03F",
"/. c #DDB13F",
"(. c #DEB13F",
"). c #DEB23F",
"_. c #DFB23F",
"`. c #DFB33F",
"'. c #E0B340",
"]. c #E0B440",
"[. c #E1B440",
"{. c #E2B440",
"}. c #E2B540",
"|. c #E3B540",
" X c #E3B541",
".X c #E3B640",
"XX c #E5B740",
"oX c #E5B741",
"OX c #E5B841",
"+X c #E6B841",
"@X c #E7B941",
"#X c #E7BA41",
"$X c #E6B842",
"%X c #E6B942",
"&X c #E7B942",
"*X c #E7BA42",
"=X c #E8B941",
"-X c #E8BA41",
";X c #E8B942",
":X c #E8BA42",
">X c None",
/* pixels */
">X>X>X>X>X>X>X>X>X>X>X>X>X>X>X>X>X>X>X>X>X>X>X>X>X>X>X>X>X>X>X>X>X>X>X>X>X>X>X>X>X>X>X>X>X>X>X>X>X>X>X>X>X>X>X>X>X>X>X>X>X>X>X>X",
">X>X>X>X>X>X>X>X>X>X>X>X>X>X>X>X>X>X>X>X>X>X>X>X>X>X>X>X>X>X>X>X>X>X>X>X>X>X>X>X>X>X>X>X>X>X>X>X>X>X>X>X>X>X>X>X>X>X>X>X>X>X>X>X",
">X>X>X>X>X>X>X>X>X>X>X>X>X>X>X>X>X>X>X>X>X>X>X>X>X>X>X>X>X>X>X>X>X>X>X>X>X>X>X>X>X>X>X>X>X>X>X>X>X>X>X>X>X>X>X>X>X>X>X>X>X>X>X>X",
">X>X>X>X>X>X>X>X>X>X>X>X>X>X>X>X>X>X>X>X>X>X>X>X>X>X>X>X>X>X>X>X>X>X>X>X>X>X>X>X>X>X>X>X>X>X>X>X>X>X>X>X>X>X>X>X>X>X>X>X>X>X>X>X",
">X>X>X>X>X>X>X: >X>X>X>X>X>X>X>X>X>X>X>X>X>X>X>X>X>X>X>X>X>X>X>X>X>X>X>X>X>X>X>X>X>X>X>X>X>X>X>X>X>X>X>X>X>X>X>X>X>X>X>X>X>X>X>X",
">X>X>X>X6 a.@X-XF.N >X>X>X>X>X>X>X>X>X>X>X>X>X>X>X>X>X>X>X>X>X>X>X>X>X>X>X>X>X>X>X>X>X>X>X>X>X>X>X>X>X>X>X>X>X>X>X>X>X>X>X>X>X>X",
">X>X0 V.=X:X:X:X:X#XoXq.8 >X>X>X>X>X>X>X>X>X>X>X>X>X>X>X>X>X>X>X>X>X>X>X>X>X>X>X>X>X>X>X>X>X>X>X>X>X>X>X>X>X>X>X>X>X>X>X>X>X>X>X",
">X+ | L Z.-X=X:X:X:X:X:X=XK.D >X>X>X>X>X>X>X>X>X>X>X>X>X>X>X>X>X>X>X>X>X>X>X>X>X>X>X>X>X>X>X>X>X>X>X>X>X>X>X>X>X>X>X>X>X>X>X>X>X",
">X>X>XT y.L @.{.@X&X:X:X:X:X-X+Xd.i >X>X>X>X>X>X>X>X>X>X>X>X>X>X>X>X>X>X>X>X>X>X>X>X>X>X>X>X>X>X>X>X>X>X>X>X>X>X>X>X>X>X>X>X>X>X",
">X>X>X>X>Xh u. .L N.=X;X:X:X:X:X:X=XQ.T >X>X>X>X>X>X>X>X>X>X>X>X>X>X>X>X>X>X>X>X>X>X>X>X>X>X>X>X>X>X>X>X>X>X>X>X>X>X>X>X>X>X>X>X",
">X>X>X>X>X>X>X@ ^ p.K +.`.=X=X:X:X:X:X=X&Xj.g >X>X>X>X>X>X>X>X>X>X>X>X>X>X>X>X>X>X>X>X>X>X>X>X>X>X>X>X>X>X>X>X>X>X>X>X>X>X>X>X>X",
">X>X>X>X>X>X>X>X>X>Xk h.@.L N.=X;X:X:X:X:X=X=X^./ - >X>X>X>X>X>X>X>X>X>X>X>X>X>X>X>X>X>X>X>X>X>X>X>X>X>X>X>X>X>X>X>X>X>X>X>X>X>X",
">X>X>X>X>X>X>X>X>X>X>X>X& O.z.K ' (.=X:X:X:X:X;X=X_.1 o C S y >X>X>X>X>X>X>X>X>X>X>X>X>X>X>X>X>X>X>X>X>X>X>X>X>X>X>X>X>X>X>X>X>X",
">X>X>X>X>X>X>X>X>X>X>X>X>X>X>Xx c.&.L v.=X:X:X=Xr.| }.Y.' [ i.@Xx.& >X>X>X>X>X>X>X>X>X>X>X>X>X>X>X>X>X>X>X>X>X>X>X>X>X>X>X>X>X>X",
">X>X>X>X>X>X>X>X>X>X>X>X>X>X>X>X>X= :.M.L ` (.R.0.=XL.( $X-XI.I ;X'.>X>X>X>X>X>X>X>X>X>X>X>X>X>X>X>X>X>X>X>X>X>X>X>X>X>X>X>X>X>X",
">X>X>X>X>X>X>X>X>X>X>X>X>X>X>X>X>X>X>X>XZ B.*.2 ) =X`.v e.k.I i.;X/.. >X>X>X>X>X>X>X>X>X>X>X>X>X>X>X>X>X>X>X>X>X>X>X>X>X>X>X>X>X",
">X>X>X>X>X>X>X>X>X>X>X>X>X>X>X>X>X>X>X>X>X>X4 a v P /.=X!.P.$X+Xy.X [.OXw.9 >X>X>X>X>X>X>X>X>X>X>X>X>X>X>X>X>X>X>X>X>X>X>X>X>X>X",
">X>X>X>X>X>X>X>X>X>X>X>X>X>X>X>X>X>X>X>X>X>X>X>XA.|.0._ } } ` ` *.b.*X:X;X=XU.B >X>X>X>X>X>X>X>X>X>X>X>X>X>X>X>X>X>X>X>X>X>X>X>X",
">X>X>X>X>X>X>X>X>X>X>X>X>X>X>X>X>X>X>X>X>X>X>X>X..;X*X;X=X=X=X~.n ;X-X:X:X:X;X@X%Xf.u >X>X>X>X>X>X>X>X>X>X>X>X>X>X>X>X>X>X>X>X>X",
">X>X>X>X>X>X>X>X>X>X>X>X>X>X>X>X>X>X>X>X>X>X>X>X>XM P.=X@X@X=XH T.=X;X:X:X:X:X:X:X:X=XE.U >X>X>X>X>X>X>X>X>X>X>X>X>X>X>X>X>X>X>X",
">X>X>X>X>X>X>X>X>X>X>X>X>X>X>X>X>X>X>X>X>X>X>X>X>X>X>X  ` } < >X>Xy g.@X=X:X:X:X:X:X:X:X:X&Xg.p >X>X>X>X>X>X>X>X>X>X>X>X>X>X>X>X",
">X>X>X>X>X>X>X>X>X>X>X>X>X>X>X>X>X>X>X>X>X>X>X>X>X>X>X>X@X:X! >X>X>X>XO ~ (.@X=X:X:X:X:X:X:X:X=X^.~ $ >X>X>X>X>X>X>X>X>X>X>X>X>X",
">X>X>X>X>X>X>X>X>X>X>X>X>X>X>X>X>X>X>X>X>X>X>X>X>X>X>X>X@X:X! >X>X>X>X>X>X>Xz C.=X;X:X:X:X:X:X:X:X:X;Xm.j >X>X>X>X>X>X>X>X>X>X>X",
">X>X>X>X>X>X>X>X>X>X>X>X>X>X>X>X>X>X>X>X>X>X>X>X>X>X>X>X=X:XQ >X>X>X>X>X>X>X>X>X; -. X@X&X:X:X:X:X:X:X:X=X).o.* >X>X>X>X>X>X>X>X",
">X>X>X>X>X>X>X>X>X>X>X>X>X>X>X>X>X>X>X>X>X>X>X>X>X>X>X>X=X:XR >X>X>X>X>X>X>X>X>X>X>X>XN H.=X;X:X:X:X:X:X:X:X:X=XB.x >X>X>X>X>X>X",
">X>X>X>X>X>X>X>X>X>X>X>X>X>X>X>X>X>X>X>X>X>X>X>X>X>X>X>X=X:XE >X>X>X>X>X>X>X>X>X>X>X>X>X>Xw s.&X-X;X:X:X:X:X:X:X=X=X}.-.> >X>X>X",
">X>X>X>X>X>X>X>X>X>X>X>X>X>X>X>X>X>X>X>X>X>X>X>X>X>X>X>X=X:X7.>X>X>X>X>X>X>X>X>X>X>X>X>X>X>X>X>XY W.=X-X:X:X:X:X:X:X*X#XA.3 >X>X",
">X>X>X>X>X>X>X>X>X>X>X>X>X>X>X>X>X>X>X>X>X>X>X>X>X>X>X>X=X:X6.>X>X>X>X>X>X>X>X>X>X>X>X>X>X>X>X>X>X>Xf n.@X#X:X:X:X@X.XK t.! >X>X",
">X>X>X>X>X>X>X>X>X>X>X>X>X>X>X>X>X>X>X>X>X>X>X>X>X>X>X>X=X:X5.>X>X>X>X>X>X>X>X>X>X>X>X>X>X>X>X>X>X>X>X>X# :.[.=X=Xk.G W >X>X>X>X",
">X>X>X>X>X>X>X>X>X>X>X>X>X>X>X>X>X>X>X>X>X>X>X>X>X>X>X>X=X:X<.>X>X>X>X>X>X>X>X>X>X>X>X>X>X>X>X>X>X>X>X>X>X>X>XA s r >X>X>X>X>X>X",
">X>X>X>X>X>X>X>X>X>X>X>X>X>X>X>X>X>X>X>X>X>X>X>X>X>X>X>X=X:X;.>X>X>X>X>X>X>X>X>X>X>X>X>X>X>X>X>X>X>X>X>X>X>X>X>X>X>X>X>X>X>X>X>X",
">X>X>X>X>X>X>X>X>X>X>X>X>X>X>X>X>X>X>X>X>X>X>X>X>X>X>X>X=X:X;.>X>X>X>X>X>X>X>X>X>X>X>X>X>X>X>X>X>X>X>X>X>X>X>X>X>X>X>X>X>X>X>X>X",
">X>X>X>X>X>X>X>X>X>X>X>X>X>X>X>X>X>X>X>X>X>X>X>X>X>X>X>X=X:Xo.>X>X>X>X>X>X>X>X>X>X>X>X>X>X>X>X>X>X>X>X>X>X>X>X>X>X>X>X>X>X>X>X>X",
">X>X>X>X>X>X>X>X>X>X>X>X>X>X>X>X>X>X>X>X>X>X>X>X>X>X>X>X=X:XX.>X>X>X>X>X>X>X>X>X>X>X>X>X>X>X>X>X>X>X>X>X>X>X>X>X>X>X>X>X>X>X>X>X",
">X>X>X>X>X>X>X>X>X>X>X>X>X>X>X>X>X>X>X>X>X>X>X>X>X>X>X>X=X:XX.>X>X>X>X>X>X>X>X>X>X>X>X>X>X>X>X>X>X>X>X>X>X>X>X>X>X>X>X>X>X>X>X>X",
">X>X>X>X>X>X>X>X>X>X>X>X>X>X>X>X>X>X>X>X>X>X>X>X>X>X>X>X=X:X{ >X>X>X>X>X>X>X>X>X>X>X>X>X>X>X>X>X>X>X>X>X>X>X>X>X>X>X>X>X>X>X>X>X",
">X>X>X>X>X>X>X>X>X>X>X>X>X>X>X>X>X>X>X>X>X>X>X>X>X>X>X>X;X:X,.>X>X>X>X>X>X>X>X>X>X>X>X>X>X>X>X>X>X>X>X>X>X>X>X>X>X>X>X>X>X>X>X>X",
">X>X>X>X>X>X>X>X>X>X>X>X>X>X>X>X>X>X>X>X>X>X>X>X>X>X>X>X;X:X9.>X>X>X>X>X>X>X>X>X>X>X>X>X>X>X>X>X>X>X>X>X>X>X>X>X>X>X>X>X>X>X>X>X",
">X>X>X>X>X>X>X>X>X>X>X>X>X>X>X>X>X>X>X>X>X>X>X>X>X>X>X>X;X:X8.>X>X>X>X>X>X>X>X>X>X>X>X>X>X>X>X>X>X>X>X>X>X>X>X>X>X>X>X>X>X>X>X>X",
">X>X>X>X>X>X>X>X>X>X>X>X>X>X>X>X>X>X>X>X>X>X>X>X>X>X>X>X;X:X1.>X>X>X>X>X>X>X>X>X>X>X>X>X>X>X>X>X>X>X>X>X>X>X>X>X>X>X>X>X>X>X>X>X",
">X>X>X>X>X>X>X>X>X>X>X>X>X>X>X>X>X>X>X>X>X>X>X>X>X>X>X>X;X:X3.>X>X>X>X>X>X>X>X>X>X>X>X>X>X>X>X>X>X>X>X>X>X>X>X>X>X>X>X>X>X>X>X>X",
">X>X>X>X>X>X>X>X>X>X>X>X>X>X>X>X>X>X>X>X>X>X>X>X>X>X>X>X=X:X2.>X>X>X>X>X>X>X>X>X>X>X>X>X>X>X>X>X>X>X>X>X>X>X>X>X>X>X>X>X>X>X>X>X",
">X>X>X>X>X>X>X>X>X>X>X>X>X>X>X>X>X>X>X>X>X>X>X>X>X>X>X>X=X:X>.>X>X>X>X>X>X>X>X>X>X>X>X>X>X>X>X>X>X>X>X>X>X>X>X>X>X>X>X>X>X>X>X>X",
">X>X>X>X>X>X>X>X>X>X>X>X>X>X>X>X>X>X>X>X>X>X>X>X>X>X>X>X;X:X-.>X>X>X>X>X>X>X>X>X>X>X>X>X>X>X>X>X>X>X>X>X>X>X>X>X>X>X>X>X>X>X>X>X",
">X>X>X>X>X>X>X>X>X>X>X>X>X>X>X>X>X>X>X>X>X>X>X>X>X>X>X>X;X:X-.>X>X>X>X>X>X>X>X>X>X>X>X>X>X>X>X>X>X>X>X>X>X>X>X>X>X>X>X>X>X>X>X>X",
">X>X>X>X>X>X>X>X>X>X>X>X>X>X>X>X>X>X>X>X>X>X>X>X>X>X>X>X;X:X=.>X>X>X>X>X>X>X>X>X>X>X>X>X>X>X>X>X>X>X>X>X>X>X>X>X>X>X>X>X>X>X>X>X",
">X>X>X>X>X>X>X>X>X>X>X>X>X>X>X>X>X>X>X>X>X>X>X>X>X>X>X>X;X:X#.>X>X>X>X>X>X>X>X>X>X>X>X>X>X>X>X>X>X>X>X>X>X>X>X>X>X>X>X>X>X>X>X>X",
">X>X>X>X>X>X>X>X>X>X>X>X>X>X>X>X>X>X>X>X>X>X>X>X>X>X>X>X=X:X$.>X>X>X>X>X>X>X>X>X>X>X>X>X>X>X>X>X>X>X>X>X>X>X>X>X>X>X>X>X>X>X>X>X",
">X>X>X>X>X>X>X>X>X>X>X>X>X>X>X>X>X>X>X>X>X>X>X>X>X>X>X% =X:X%., >X>X>X>X>X>X>X>X>X>X>X>X>X>X>X>X>X>X>X>X>X>X>X>X>X>X>X>X>X>X>X>X",
">X>X>X>X>X>X>X>X>X>X>X>X>X>X>X>X>X>X>X>X>X>X>X>X>XO.XX] ;X:X&. XS.5 >X>X>X>X>X>X>X>X>X>X>X>X>X>X>X>X>X>X>X>X>X>X>X>X>X>X>X>X>X>X",
">X>X>X>X>X>X>X>X>X>X>X>X>X>X>X>X>X>X>X>X>X>X>X>XJ.=X=Xz.P [ b @X;X@Xd >X>X>X>X>X>X>X>X>X>X>X>X>X>X>X>X>X>X>X>X>X>X>X>X>X>X>X>X>X",
">X>X>X>X>X>X>X>X>X>X>X>X>X>X>X>X>X>X>X>X>X>X>XG.:X:X:X:X;X@X:X:X:X:X@X7 >X>X>X>X>X>X>X>X>X>X>X>X>X>X>X>X>X>X>X>X>X>X>X>X>X>X>X>X",
">X>X>X>X>X>X>X>X>X>X>X>X>X>X>X>X>X>X>X>X>X>Xc =X:X:X:X:X:X:X:X:X:X:X:XD.>X>X>X>X>X>X>X>X>X>X>X>X>X>X>X>X>X>X>X>X>X>X>X>X>X>X>X>X",
">X>X>X>X>X>X>X>X>X>X>X>X>X>X>X>X>X>X>X>X>X>Xz.:X:X:X:X:X:X:X:X:X:X:X:X=X= >X>X>X>X>X>X>X>X>X>X>X>X>X>X>X>X>X>X>X>X>X>X>X>X>X>X>X",
">X>X>X>X>X>X>X>X>X>X>X>X>X>X>X>X>X>X>X>X>X>X].:X:X:X:X:X:X:X:X:X:X:X:X:XV >X>X>X>X>X>X>X>X>X>X>X>X>X>X>X>X>X>X>X>X>X>X>X>X>X>X>X",
">X>X>X>X>X>X>X>X>X>X>X>X>X>X>X>X>X>X>X>X>X>XP.=X:X:X:X:X:X:X:X:X:X:X:X=Xe >X>X>X>X>X>X>X>X>X>X>X>X>X>X>X>X>X>X>X>X>X>X>X>X>X>X>X",
">X>X>X>X>X>X>X>X>X>X>X>X>X>X>X>X>X>X>X>X>X>X: '.=X:X:X:X:X:X:X:X:X;X=X4.>X>X>X>X>X>X>X>X>X>X>X>X>X>X>X>X>X>X>X>X>X>X>X>X>X>X>X>X",
">X>X>X>X>X>X>X>X>X>X>X>X>X>X>X>X>X>X>X>X>X>X>X>Xo.^.=X=X;X#X=X=X&Xl.t >X>X>X>X>X>X>X>X>X>X>X>X>X>X>X>X>X>X>X>X>X>X>X>X>X>X>X>X>X",
">X>X>X>X>X>X>X>X>X>X>X>X>X>X>X>X>X>X>X>X>X>X>X>X>X>X- l F J m q >X>X>X>X>X>X>X>X>X>X>X>X>X>X>X>X>X>X>X>X>X>X>X>X>X>X>X>X>X>X>X>X",
">X>X>X>X>X>X>X>X>X>X>X>X>X>X>X>X>X>X>X>X>X>X>X>X>X>X>X>X>X>X>X>X>X>X>X>X>X>X>X>X>X>X>X>X>X>X>X>X>X>X>X>X>X>X>X>X>X>X>X>X>X>X>X>X",
">X>X>X>X>X>X>X>X>X>X>X>X>X>X>X>X>X>X>X>X>X>X>X>X>X>X>X>X>X>X>X>X>X>X>X>X>X>X>X>X>X>X>X>X>X>X>X>X>X>X>X>X>X>X>X>X>X>X>X>X>X>X>X>X",
">X>X>X>X>X>X>X>X>X>X>X>X>X>X>X>X>X>X>X>X>X>X>X>X>X>X>X>X>X>X>X>X>X>X>X>X>X>X>X>X>X>X>X>X>X>X>X>X>X>X>X>X>X>X>X>X>X>X>X>X>X>X>X>X",
">X>X>X>X>X>X>X>X>X>X>X>X>X>X>X>X>X>X>X>X>X>X>X>X>X>X>X>X>X>X>X>X>X>X>X>X>X>X>X>X>X>X>X>X>X>X>X>X>X>X>X>X>X>X>X>X>X>X>X>X>X>X>X>X",
">X>X>X>X>X>X>X>X>X>X>X>X>X>X>X>X>X>X>X>X>X>X>X>X>X>X>X>X>X>X>X>X>X>X>X>X>X>X>X>X>X>X>X>X>X>X>X>X>X>X>X>X>X>X>X>X>X>X>X>X>X>X>X>X"
};
