/* XPM */
static char *result[] = {
/* columns rows colors chars-per-pixel */
"64 64 102 2 ",
"   c #217F09",
".  c #32710E",
"X  c #397B0F",
"o  c #3E6713",
"O  c #397310",
"+  c #406713",
"@  c #406D13",
"#  c #427C13",
"$  c #4D7C16",
"%  c #068401",
"&  c #0B8602",
"*  c #058A01",
"=  c #0C8B02",
"-  c #118703",
";  c #148C04",
":  c #1B8E06",
">  c #1F8F08",
",  c #0D9402",
"<  c #0E9B03",
"1  c #149304",
"2  c #1C9306",
"3  c #149B04",
"4  c #1C9B06",
"5  c #1F9D08",
"6  c #208E07",
"7  c #248409",
"8  c #2D830C",
"9  c #248D09",
"0  c #2E8E0B",
"q  c #33850D",
"w  c #38820F",
"e  c #318C0D",
"r  c #3B8A0F",
"t  c #219307",
"y  c #219B07",
"u  c #259408",
"i  c #2B950A",
"p  c #259B08",
"a  c #2C9B0A",
"s  c #33960C",
"d  c #3B950E",
"f  c #339B0C",
"g  c #3B9D0D",
"h  c #3F8C10",
"j  c #15A204",
"k  c #1BA306",
"l  c #1CAB06",
"z  c #22A307",
"x  c #21AB07",
"c  c #25A308",
"v  c #2CA30A",
"b  c #25AB08",
"n  c #2CAB0A",
"m  c #34A30C",
"M  c #3BA30E",
"N  c #34AB0C",
"B  c #3CAB0E",
"V  c #2CB10A",
"C  c #2FB80A",
"Z  c #34B20C",
"A  c #3CB20E",
"S  c #3DB90E",
"D  c #409F0F",
"F  c #458212",
"G  c #4C8415",
"H  c #438D11",
"J  c #488D13",
"K  c #538C16",
"L  c #439411",
"P  c #4D9413",
"I  c #449B10",
"U  c #4D9E13",
"Y  c #559915",
"T  c #41A40F",
"R  c #41AB0F",
"E  c #42B30F",
"W  c #43BB0F",
"Q  c #45A410",
"!  c #4AA511",
"~  c #45AB10",
"^  c #4BAC12",
"/  c #50A613",
"(  c #53AC13",
")  c #5BAD16",
"_  c #45B310",
"`  c #4CB312",
"'  c #45B910",
"]  c #4CBB12",
"[  c #53B413",
"{  c #5AB415",
"}  c #53BB14",
"|  c #5CBC15",
" . c #61B717",
".. c #60BC17",
"X. c #3CC10E",
"o. c #4DC012",
"O. c #52C113",
"+. c #5BC215",
"@. c #5ECB16",
"#. c #63C417",
"$. c #64CC17",
"%. c #69C519",
/* pixels */
"[ ` a p B n + M v M M 4 - B m [ f M _ m T y m E a B u a M f M T T [ z R 5 z ` R ^ p m p 2 u a ( T M T 9 i 2 n a u p i f N : y a ",
"T E m y i a L g p 1 a a u p n f M p p c R m u a f a g y M B f g D ! u ^ A b R R f v m 2 a ! f ^ g v T G i u a p f u ; N a 2 y t ",
"' b V ; u ^ M B d = i R m f v 2 3 3 t p T f : g a T R d f M a u i M g T g f M y k = y u T p B m M i f W ! f M ^ M v & a 2 u : t ",
"^ p n : u _ v L a j R m ^ m B t c ; u f ! m p z n y g p i ! a 4 R i R 1 m d a A y ; : a R = B T p f a R ` M f ^ m a a v 2 m M i ",
"M T ` a M f u ( f : M } ^ 2 M a T 3 M ; f i p z m p s t : v T 2 T y ! 1 [ } f ` : B p B N ; n ( y E a a W s u ` A k m i 1 2 ! g ",
"m v ( a p f B [ T T m $.m ; g s ^ : T a p p n d M t ! m ' R M 2 t a g : { #.E _ ! ' A b N 5 p R B B ! i ! a : [ y : ~ a ; n E z ",
"k c p g 2 Z N Q ( a R R M g ^ i m 1 a B p p W ^ T u _ | R M f b f m T m M ! ^ T g ' ` a u ; i f T m M P H m a ! M p ~ M u x m a ",
"3 R t R _ A M f Q M B T f g ) 2 R n a E ; m B M T p M ) [ a 1 4 N R T _ 4 f g i p ` ( g m M N c T M v # T g f R Z Z m ^ B z z m ",
"u M N Z @._ Q M f T M N R M T N p i N M f i a [ p p v ^ _ f 1 a b Z R A : i M N ' t T T ..! M ' [ ! i f B D i M M s 3 Z T u M g ",
"! c 5 t M Q a ~ c R ! c ^ t N n m f g f T R s T 6 2 g M ^ f y Q i [ g m v Q f ` +.k a D ( ^ a m ` g f g g M z 1 ~ v t f ^ ^ A M ",
"Z s ; u s T a Q f a T f ^ m T B 2 u g ^ E ] i p a z B Q ! d v _ T ^ m M _ N { M T k f f f f T y v f p a f 2 * < ^ B T i T B b m ",
"m f _ B M f a T u V N m ] _ A Q - q T Q m ^ : 3 R m c m M 5 u p g ! R B [ N [ ; M k p ^ ~ t f 3 g g : t f :   ; ( ^ _ { Q M : a ",
"N m ( _ f g ` d & E m ~ m M m Q ~ ` ~ M f ! M n 1 f 1 2 f z > u f i M B T f N ; u 3 p p R y 2 - f g u f B p 2 a T T R T Q T z i ",
"a I ! ^ f f m f f f M T m i p p m v Q Z ' R y 2 i R N ; M m t f B a m i Q a f : : ; v a D p T t s T m T i 2 2 W B B m ; Q g j m ",
"M T ~ N m ^ p g d f f p m b 2 B V ; g R m f a a a ] M ; V m m a W ` 2 = Q f y : g i a c s m g r [ ` N f N m v N g g m 5 ) Y p f ",
"m c u a 2 M 4 f m . t T ; i u g B ; ( M a M ^ B R g f 1 N f ~ p a ( - u p ; 1 2 [ M t c m A 4 ^ +.{ i c 2 a a v g p N ^ ( ^ m B ",
"R R : M i ~ N B m K u ^ 9 9 T T u u a v B O.^ m m g i 1 Q f ^ > y s u T v a p i ! N m f * 2 b ` N R T f t u M f f : T T } m i N ",
"A Q i ! t g m m ^ I f U d y c 2 D B 1 M a m R N B i g a a ` ( : p ! D ! f g i T ` B v T p & p M R p [ B M v v m M m f f R a ; f ",
"i M ( ( m M Z u w m f M 6 u ; 1 E ! * Q i f y v ~ m ( l 9 B ~ t u [ T a R ! ~ m ` ] i g T u T p [ v R f t ! t T n R B z g ^ t M ",
"i m M E 1 a i 6 m v f m 2 p B N Z ^ & g p ~ 2 N v I m 1 t d m t 6 ( ! p R ] B n v f g D Z R R u ! M c n T M f f a i M m b _ 4 a ",
"^ m ~ a : W B a m v R N [ k R ] a ~ - s u R 2 u a I g a t B B v 9 Z W 1 ! g z 2 u d T f m ' ( a a m b 1 M f [ u g t g v ; ^ & ; ",
", v } p R Z Z #.M m T M f : i n ; m 3 T ^ i 6 p z m N M ; ` f 7 z B M : f R k : g L g T N ^ T ) 2 , B a : j M 9 M T 4 y i B i : ",
"t - ^ ; c S E ^ v M R 4 ; a u f m p t ` ( y u p v v v M 1 a ~ i g R g i p ] k c g M < M M ! B ^ f - i ) s v 2 B B T c z v R c [ ",
"[ ; g i M R u g R B d 4 2 $.p v c v : ] W z 1 T a s g ^ v a ` f p T T v } E t a M R 1 ` g n m M v ; m ( B v : n a a a } v a B T ",
"B p u u +.T R M ! p m f f ^ s a M p m a f m > M N m F g 3 u T M t R v N v a : i m u N %.D t p R Z p ^ ! f M f a N = s ! M i M g ",
"M ( f Z ^ ~ } R | ^ A Q ( N B 2 1 y M m 4 s g f N v ~ a < m m C y T [ B N y f ! v m u ( g v g R m p v ! B B u 2 Z = 2 ` f B 2 : ",
"f A ^ ` g d Q Q T ^ p D L ; n 1 : E Z f ; M N M B a _ n 1 y , v p p R m W i ^ N i 2 2 f g M f z m Z 4 n m f u y f 4 i i g B V x ",
"i ! I T f : s ! [ W t T M c a | u T ` a t g ] ] g u M ! a u 1 y m c f i t a T p t & m y f u m A f v 1 v v f f , p f W a R | M M ",
"f L m v 1 1 f p ( M 2 B a 2 1 ` f ^ ^ N ] R ` B s u D R a p u 2 2 t M 2 a m V [ W p M ! y c f Q i f ; : u ! u 2 f M o.( ^ g T g ",
"a 5 E a y u R N B T 2 a u N y f r u u M [ _ ^ y } 1 N ^ S T Q R u ; T M i i m v ~ M E B N A [ ] B ^ g t y T s a p B B ! ^ B i p ",
"g c f T ! i a M c A M i a t a c e 7 f M ( M ^ : B = 1 T g f f ) M ] B m g N i ; f B m M x k T 2 T B (  .f R N b , f R R ` B a t ",
"m R ( R M 4 1 M { M T m M i f 1 m b s ! T f P i f ; : u f m t u | T B } M T u m f T : M x i f M R c M ) T R b 3 u 2 E `  .f f y ",
"m T ( f N i , k ! M N | T 2 M - p v a g a M T a m a f s m M 2 4 B Z p n T T g T B g : f p f p f p p m i R M u & f m ! f ( I a t ",
"a ~ M Q a y = j N u M ~ T 1 n _ a M v 4 E N v b n u s s b v : 4 p M z t M B M ! n M f ` _ a t i f f M [ _ f - i 1 n N v M ` M u ",
"M 9 R p g ~ = 2 B ~ f v ( s 5 } v W 2 2 m T f [ v R t M y j E p 6 f 9 f u 4 N S f l o M ! : : u f M D } ! f m ! _ B v p y ^ f g ",
"^ 1 m 4 m f t u ( m B N _ ( a f a T f N v T M v g g 2 c 4 B ` R t T ! ^ n a N R B 3 3 m f N t a a 2 B ^ Q u v ! ] z A u i Q M f ",
"R 2 p ; v a M N _ u g a N m M = u f W n a M u y n y m n v ^ R m 4 M M ( ( ^ f D 2 a : i M m [ } a 2 B R { ~ a f y ; n f ~ v m R ",
"A a 4 D 2 m M } N ~ ^ b 2 i B f p B b f u R a B p a a a u / T a 3 f u ! T ) g i f ! u k Q ~ c V i W ! m [ ^ i m t : M ! m 1 a Z ",
"M m a M s B v B R f _ c p f h a 6 a ` 3 i ! ! i u p [ b # M e T v f H z W ~ T p y a a < ~ ~ ~ x 2 i ! 3 ( M a c p m R ( u 2 : R ",
"d 4 B i m m p i m Q ^ a 1 a M v a i g ; f a [ T ^ t E a ' T T ` ~ f m n Z X.^ } N 9 i % R ^ N 1 i W y - m m y p N s f m v i m T ",
"v c 1 p 4 y a p i t f i - Z R y A m T g / : R [ ' u m B N M y R f Q Q m m T g ~ S 4 7 p ~ Q f i N N Q m < j = v } z : p a A f f ",
"A c ; c 2 9 m B 2 g u u ; f E i g M M W R z g R y v t i m f B f a M R Q u f f b u B Z Z m a ~ a g t ^ p y - i m R V ^ p m M m _ ",
"[ R - N p p l c m ^ f Z m u v v M i ^ v x p 6 m R f : u g T f i - f _ m f f 4 u f ^ _ < ' n M f ^ Q g i s i Q m a Z ^ f p I f | ",
"( F u m N ~ 3 a Q 1 v M ~ k n i ! H s m 2 M g a g g 6 W R | T f 2 1 Q E p B ; R M ! 5 4 m m E f ^ t f p B Q M Q d m g a 2 f f Q ",
"M ~ M Q : M 7 N B - f g g f v a f F z A t M d a g s m B f ( ~ f p y p ~ a T p M a g p N 1 a m 9 u f Z _ ~ Q 1 v ~ N a a v I g ! ",
"N m m a ; Q u p v Q r p 2 _ v u 4 s B M ^ R B M a B z p s Q M R f u ^ m p a B M m ~ v t y m g u f M n m Q ` p 1 M < 4 : m J # m ",
"a } m y : : i u M g 2 1 v f f N p Q c m a M g 3 v a p t v 5 B ( A 2 ^ g u M ! 4 f ~ 3 c p 1 d m [ n c 2 ( m s n v - = 4 ] p N / ",
"v [ ` > c ~ f g a p 1 c v [ ! m : g m f g u T y m T n a c V Q ^ f M T p v g g & f 2 t 2 [ u ! 2 ( a m ] M f f Q f i & c _ m f m ",
"a f ^ i n T T l 2 x c [ p M f k k f M : M ; T s M g T m R M ^ v ^ R R B E k B 0 f m m ; ! N u i i f t ! | ^ : f B D u g f ` a p ",
"f T S T A a r 2 v 2 f ( R [ 2 3 < n l M m R f R p a m m [ g T b R t n t a 2 a ^ T M f f Q M s ^ M 3 u ~ _ a i m f s s f f [ u m ",
"#.T 4 R C M K t y 2 T ! ^ [ k W t ; f p M ^ M ( 2 m M 2 M g B v l p - p u g u N T g i ~ Q ` ' N B 2 M N R f M B B a U g N } R A ",
"_ ! p ^ p M R f 2 M T N g ( - M s g a 5 v g a f T k B 1 2 t p t 5 k i s s T f u t f m m ~ A ( f M M m M m x i a R k n [ M m m M ",
"^ s i ( 6 ^ m T i | R m f m u f ^ [ n v f f Q u M ~ 3 4 t 3 E u B t 1 m f f M 2 M f B N c v f ( i d t ! | M i z v V m ( M 2 t g ",
"f f M M m B g M B B ` M x v ^ T v ` E B g f ~ n f a ; a m ; W a M : u 3 & f 5 a f u A 1 : M [ M N h u ! ! f i b v p : v N R n ^ ",
"v y ` _ N m M f a 2 Z 2 t ` _ ( +.E R ..B v g a u R c c M ; f M T 2 E 1 3 A 5 f u s a 2 f N m B Z N i i > c 2 4 i i u t a ( O.B ",
"a g Q Q g f p M a 2 2 ; B ( R g ) m m { m & t T m ~ p 4 c z g B M t a N 2 | N a R d : a A a u M 2 p : t 1 N v m f T m : 6 ! ` a ",
"D ` ! ! R T m t ^ f 8 : M f u I K a d M p c m f m f u u t 4 s N m 4 g ! y ^ u u 2 T u p [ B 2 9 u : i f : i a m T g F r f v R f ",
"m N M ! ! B T ; ' [ I s M 1 y ] d 1 g a : M p f s D g s t t u N M p R R i ` p m ; [ M m ^ u E l p i : # 2 : t R ^ T $ L E R v ^ ",
"a f T f M #.R u s R z 2 f p M 1 Z a d 9 a E p y T g ! ! g i f g T f f T n c M f : M B f ! g ..m B ^ 5 [ 2 c B | a M N M _ m ` f ",
"p f B u N ( T t g f 2 2 u 6 g u M Z 1 s R f u 2 E t / T M O f g M R N } v ~ f 2 R z 2 D ^ B ! T v Q t _ Z y N m g ( T i Q 2 m f ",
"n R z i i t f g A g - E E B g s M p * a c p R a c y u m T @ g R N f T E ` A p t _ c y 2 m ` N M N m M u T t m i m +.T f D i u B ",
"Z ^ A : p m t T g i f n a _ a X H m - u t 2 i m u n a p ' 4 v a _ g 6 m ~ g p 4 f ; u 2 M ~ m a B v m T ` s : i Q f B y ^ B y N ",
"M f _ m 4 B m R f f p k 2 R v 8 m N u ^ i a : ^ T B p t m a a i ~ ` v f ; f : 4 : a M m R a a ! R v p ( B Q N a } m 1 v g p 4 c ",
"[ f R A z d i ^ 2 ^ ` : = a m R c B ^ R B 2 M ` N R N p : ! R T [ } c T & s a M ( c B m u i i Q f f i g M m Z n 2 ^ ; 2 c t u u "
};
