/* XPM */
static char *result[] = {
/* columns rows colors chars-per-pixel */
"64 64 146 2 ",
"   c gray1",
".  c #2D151A",
"X  c #3C161E",
"o  c #3D351D",
"O  c #363636",
"+  c #3C3C3C",
"@  c #43391B",
"#  c #481B24",
"$  c #541F2A",
"%  c #5C222E",
"&  c #642532",
"*  c #722A39",
"=  c #7C2D3D",
"-  c #79373B",
";  c #594D2A",
":  c #5A4133",
">  c #715836",
",  c #726335",
"<  c #243F4C",
"1  c #493643",
"2  c #7C3444",
"3  c #25414E",
"4  c #2C4D5C",
"5  c #284553",
"6  c #2F5162",
"7  c #315566",
"8  c #33596A",
"9  c #365E71",
"0  c #376174",
"q  c #386275",
"w  c #3A6579",
"e  c #3C697E",
"r  c #574A48",
"t  c #5A5757",
"y  c #575A5C",
"u  c #465669",
"i  c #4A6E7F",
"p  c #5C737E",
"a  c #666666",
"s  c #6D6D6D",
"d  c #767676",
"f  c #7A7B7C",
"g  c #806F3D",
"h  c #802F40",
"j  c #853242",
"k  c #8E3547",
"l  c #823E4C",
"z  c #95374A",
"x  c #9B394D",
"c  c #A43D52",
"v  c #8D4444",
"b  c #8D4B49",
"n  c #914846",
"m  c #8C4E5B",
"M  c #884452",
"N  c #8C535F",
"B  c #945856",
"V  c #A3524F",
"C  c #A45351",
"Z  c #AB5653",
"A  c #B55A57",
"S  c #B65B58",
"D  c #847752",
"F  c #915E68",
"G  c #856261",
"H  c #9E7877",
"J  c #987078",
"K  c #997877",
"L  c #A67675",
"P  c #9C874B",
"I  c #A79150",
"U  c #B49B56",
"Y  c #BAA159",
"T  c #988E71",
"R  c #C1A75C",
"E  c #C2A85D",
"W  c #3E6D82",
"Q  c #416F84",
"!  c #42738A",
"~  c #4B778D",
"^  c #4A7487",
"/  c #507A8E",
"(  c #5F7F8E",
")  c #477B93",
"_  c #497C94",
"`  c #497F98",
"'  c #557D91",
"]  c #687F89",
"[  c #4B829C",
"{  c #5E8191",
"}  c #53869E",
"|  c #62808F",
" . c #6D828B",
".. c #798184",
"X. c #628392",
"o. c #6B8A99",
"O. c #748790",
"+. c #728E9B",
"@. c #718B97",
"#. c #7A909A",
"$. c #4D86A1",
"%. c #4F89A5",
"&. c #508BA7",
"*. c #518EAA",
"=. c #5390AD",
"-. c #7793A0",
";. c #858585",
":. c #8C8C8C",
">. c #9D8080",
",. c #838E93",
"<. c #83959E",
"1. c #949494",
"2. c #9E9E9E",
"3. c #A98C8B",
"4. c #A39C89",
"5. c #AB9295",
"6. c #8097A2",
"7. c #819AA5",
"8. c #8F9EA5",
"9. c #879FAA",
"0. c #919BA0",
"q. c #B59BA0",
"w. c #A2A2A2",
"e. c #ADACAC",
"r. c #B8A2A4",
"t. c #BBA8AB",
"y. c #A1AFB6",
"u. c #BDAFB2",
"i. c #AEB7BC",
"p. c #B3B3B4",
"a. c #B3B9BC",
"s. c #BDBDBD",
"d. c #C3B8BB",
"f. c #BEC2C4",
"g. c #C4C3C3",
"h. c #CCCCCC",
"j. c #C3C9CC",
"k. c #CDD0D1",
"l. c #D3D3D3",
"z. c #D3D7D8",
"x. c #DCDCDC",
"c. c #E4E4E4",
"v. c #ECECEC",
"b. c #F4F4F4",
"n. c #FFFFFF",
"m. c None",
/* pixels */
"m.m.m.m.m.m.m.m.m.m.m.m.m.m.m.m.m.m.m.m.m.m.m.m.m.m.m.m.m.m.m.m.m.m.m.m.m.m.m.m.m.m.m.m.m.m.m.m.m.m.m.m.m.m.m.m.m.m.m.m.m.m.m.m.",
"m.m.m.m.m.m.m.m.m.m.m.m.m.m.m.m.m.m.m.m.m.m.m.m.m.m.m.m.m.m.m.m.m.m.m.m.m.m.m.m.m.m.m.m.m.m.m.m.m.m.m.m.m.m.m.m.m.m.m.m.m.m.m.m.",
"m.m.m.m.m.m.m.m.m.m.m.m.m.m.m.m.m.m.m.m.m.m.m.m.m.m.m.m.m.m.m.m.m.m.m.m.m.m.m.m.m.m.m.m.m.m.m.m.m.m.m.m.m.m.m.m.m.m.m.m.m.m.m.m.",
"m.m.m.m.m.m.m.m.m.m.m.m.m.m.m.m.m.m.m.m.m.m.m.m.m.m.m.m.m.m.m.m.m.m.m.m.m.m.m.m.m.m.m.m.m.m.m.m.m.m.m.m.m.m.m.m.m.m.m.m.m.m.m.m.",
"m.m.m.m.m.m.m.m.m.m.m.m.m.m.m.m.m.m.m.m.m.m.m.m.m.m.m.m.m.m.m.m.m.m.m.m.m.m.m.m.m.m.m.m.m.m.m.m.m.m.m.m.m.m.m.m.m.m.m.m.m.m.m.m.",
"m.m.m.m.m.m.m.m.m.m.m.m.m.m.m.m.m.m.m.m.m.m.m.m.m.m.m.m.m.m.m.m.m.m.m.m.m.m.m.m.m.m.m.m.m.m.m.m.m.m.m.m.m.m.m.m.m.m.m.m.m.m.m.m.",
"m.m.m.m.m.m.m.m.m.m.m.m.m.m.m.m.m.m.m.m.m.m.m.m.m.m.m.m.m.4 9 Q ! ! W 8 4 m.m.m.m.m.m.m.m.m.m.m.m.m.m.m.m.m.m.m.m.m.m.m.m.m.m.m.",
"m.m.m.m.m.m.m.m.m.m.m.m.m.m.m.m.m.m.m.m.m.m.m.m.m.m.4 ! =.=.=.=.=.=.=.=.=.=.) 7 m.m.m.m.m.m.m.m.m.m.m.m.m.m.m.m.m.m.m.m.m.m.m.m.",
"m.m.m.m.m.m.m.m.m.m.m.m.m.m.m.m.m.m.m.m.m.m.m.m.d 2.[ =.=.=.=.=.=.=.=.=.=.=.=.=.=.Q 3 m.m.m.m.m.m.m.m.m.m.m.m.m.m.m.m.m.m.m.m.m.",
"m.m.m.m.m.m.m.m.m.m.m.m.m.m.m.m.m.m.m.m.m.m.m.p.n.n.i =.=.=.=.=.=.=.=.=.=.=.=.=.=.=.=.q m.m.m.m.m.m.m.m.m.m.m.m.m.m.m.m.m.m.m.m.",
"m.m.m.m.m.m.m.m.m.m.m.m.m.m.m.m.m.m.m.m.m.m.l.n.n.b.Q =.=.=.=.=.=.=.=.=.=.=.=.=.=.=.=.=.$.5 m.m.m.m.m.m.m.m.m.m.m.m.m.m.m.m.m.m.",
"m.m.m.m.m.m.m.m.m.m.m.m.m.m.m.m.m.m.m.m.m.c.n.n.n.a.*.=.=.=.=.=.=.=.=.=.=.=.=.=.=.=.=.=.=.=.9 m.m.m.m.m.m.m.m.m.m.m.m.m.m.m.m.m.",
"m.m.m.m.m.m.m.m.m.m.m.m.m.m.# & $ m.m.m.:.b.n.n.n.{ =.=.=.=.=.=.=.=.=.=.=.=.=.=.=.=.=.=.=.=.=.w m.m.m.m.m.m.m.m.m.m.m.m.m.m.m.m.",
"m.m.m.m.m.m.m.m.m.m.m.m.m.$ c c c = m.O   l.n.n.p.+.o./ %.=.=.=.=.=.=.=.=.=.=.=.=.=.=.=.=.=.=.=.7 m.m.m.m.m.m.m.m.m.m.m.m.m.m.m.",
"m.m.m.m.m.m.m.m.m.m.m.m.m.j c c c c t 1.O n.n.h.b.n.n.z.1.#._ *.=.=.=.=.=.=.=.=.=.=.=.=.=.=.=.=.*.m.m.m.m.m.m.m.m.m.m.m.m.m.m.m.",
"m.m.m.m.m.m.m.m.m.m.m.m.m.* c c c M j.:.x.l.h.n.k.g.g.c.n.n.c.@.*.=.=.=.=.=.=.=.=.=.=.=.=.=.=.=.=.! m.m.m.m.m.m.m.m.m.m.m.m.m.m.",
"m.m.m.m.m.m.m.m.m.m.m.m.m.m.x c c 5.n.c.g.c.p.p.v.n.n.n.n.n.n.n.O.*.=.=.=.=.=.=.=.=.=.=.=.=.=.=.=.=.m.m.m.m.m.m.m.m.m.m.m.m.m.m.",
"m.m.m.m.m.m.m.m.m.m.m.m.m.m.m.% . c.n.n.n.b.n.n.n.n.n.n.n.n.n.n.b. .*.=.=.=.=.=.=.=.=.=.=.=.=.=.=.=.q m.m.m.m.m.m.m.m.m.m.m.m.m.",
"m.m.m.m.m.m.m.m.m.m.m.m.m.m.m.m.;.n.n.n.n.n.n.b.x.h.h.h.h.h.h.z.n.n.X.*.=.=.=.=.=.=.=.=.=.=.=.=.=.=.%.m.m.m.m.m.m.m.m.m.m.m.m.m.",
"m.m.m.m.m.m.m.m.m.m.m.m.m.:.b.n.b.n.n.n.n.n.c.h.c.n.n.n.n.n.n.n.n.n.l.[ =.=.=.=.=.=.=.=.=.=.=.=.=.=.=.m.m.m.m.m.m.m.m.m.m.m.m.m.",
"m.m.m.m.m.m.m.m.m.m.m.m.m.n.n.n.n.n.n.n.n.n.n.v.n.n.n.n.n.n.n.n.n.n.n.@.=.=.=.=.=.=.=.=.=.=.=.=.=.=.=.4 m.m.m.m.m.m.m.m.m.m.m.m.",
"m.m.m.m.m.m.m.m.m.m.m.m.a n.n.n.n.n.n.n.n.n.n.v.h.h.s.e.c.n.n.n.n.n.n.f.%.=.=.=.=.=.=.=.=.=.=.=.=.=.=.8 m.m.m.m.m.m.m.m.m.m.m.m.",
"m.m.m.m.m.m.m.m.m.m.m.m.m.n.n.n.n.n.n.n.n.n.n.n.h.>.b S G g.s.l.n.n.n.n.~ =.=.=.=.=.=.=.=.=.=.=.=.=.=.e m.m.m.m.m.m.m.m.m.m.m.m.",
"m.m.m.m.m.m.m.m.m.m.m.m.m.p.n.n.n.n.n.n.v.u.K B V S S S L n.n.n.n.n.n.n.-.=.=.=.=.=.=.=.=.=.=.=.=.=.=.W m.m.m.m.m.m.m.m.m.m.m.m.",
"m.m.m.m.m.m.m.m.m.m.m.m.m.m.e.h.e.w.J m k j Z S S S S S r.n.n.n.n.n.n.n.y.=.=.=.=.=.=.=.=.=.=.=.=.=.=.W m.m.m.m.m.m.m.m.m.m.m.m.",
"m.m.m.m.m.m.m.m.m.m.m.m.m.m.m.m.m.m.% c x v S S S S S C v.n.n.n.n.n.n.n.f.=.=.=.=.=.=.=.=.=.=.=.=.=.=.0 m.m.m.m.m.m.m.m.m.m.m.m.",
"m.m.m.m.m.m.m.m.m.m.m.m.m.m.m.m.m.m.m.z - S S S S S S 3.n.n.n.n.n.n.n.n.l.%.=.=.=.=.=.=.=.=.=.=.=.=.=.7 m.m.m.m.m.m.m.m.m.m.m.m.",
"m.m.m.m.m.m.m.m.m.m.m.m.m.m.m.m.m.m.m.X n S S S S S B v.n.n.n.n.n.n.n.n.x.[ =.=.=.=.=.=.=.=.=.=.=.=.=.3 m.m.m.m.m.m.m.m.m.m.m.m.",
"m.m.m.m.m.m.m.m.m.m.m.m.m.m.m.m.m.m.m.m.Z S A A S V g.n.n.n.n.n.n.n.n.n.x.$.=.=.=.=.=.=.=.=.=.=.=.=.*.m.m.m.m.m.m.m.m.m.m.m.m.m.",
"m.m.m.m.m.m.m.m.m.m.m.m.m.m.m.m.m.m.m.m.Z S A A A 3.n.n.n.n.n.n.n.n.n.n.h.*.=.=.=.=.=.=.=.=.=.=.=.=.Q m.m.m.m.m.m.m.m.m.m.m.m.m.",
"m.m.m.m.m.m.m.m.m.m.m.m.m.m.m.m.m.m.m.m.n A A A K n.n.n.n.n.n.n.n.n.n.n.a.=.=.=.=.=.=.=.=.=.=.=.=.=.6 m.m.m.m.m.m.m.m.m.m.m.m.m.",
"m.m.m.m.m.m.m.m.m.m.m.m.m.m.m.m.m.m.m.m.- A C 5.b.n.n.n.n.n.n.n.n.n.n.n.9.=.=.=.=.=.=.=.=.=.=.=.=.[ f p.p.:.m.m.m.m.m.m.m.m.m.m.",
"m.m.m.m.m.m.m.m.m.m.m.m.m.m.m.m.m.m.m.m.r H z.n.n.n.n.n.n.n.n.n.n.n.n.n.' =.=.=.=.=.=.=.=.=.=.=.=.8.n.n.n.n.:.m.m.m.m.m.m.m.m.m.",
"m.m.m.m.m.m.m.m.m.m.m.m.m.m.m.m.m.m.m.p.n.n.n.n.n.n.n.n.n.n.n.n.n.n.n.j.%.=.=.=.=.=.=.=.=.=.*.%.e b.n.n.n.n.b.m.m.m.m.m.m.m.m.m.",
"m.m.m.m.m.m.m.m.m.m.m.m.m.m.m.m.m.m.m.m.h.n.n.n.n.n.n.n.n.n.n.n.n.n.b.X.=.=.=.=.=.=.*.*.! ! ! ) / n.n.n.n.n.n.m.m.m.m.m.m.m.m.m.",
"m.m.m.m.m.m.m.m.m.m.m.m.m.m.m.m.m.m.m.m.m.x.n.n.n.n.n.n.n.n.n.n.n.n.8.=.=.=.=.=.=.=.W e *.=.*.=.) v.n.n.n.n.n.m.m.m.m.m.m.m.m.m.",
"m.m.m.m.m.m.m.m.m.m.m.m.m.m.m.m.m.m.m.m.m.r 5.q.r.t.u.d.d.g.h.l.z.,.) &.=.=.=.%.W W %.=.=.=.=.=.=.6.n.n.n.n.1.m.m.m.m.m.m.m.m.m.",
"m.m.m.m.m.m.m.m.m.m.m.m.m.m.m.m.m.m.m.; , g > k c c c c c c c c x z k j j 2 1 e =.=.=.=.=.=.=.=.*.&.y w.e.m.m.m.m.m.m.m.m.m.m.m.",
"m.m.m.m.m.m.m.m.m.m.m.m.m.m.m.m.m.m.m.I E P , : F N m M l 2 = = j j k k 2 u &.=.=.=.=.=.=.=.=.=.*.3 m.m.m.m.m.m.m.m.m.m.m.m.m.m.",
"m.m.m.m.m.m.m.m.m.m.m.m.m.m.m.m.m.m.@ , U E R D n.n.n.n.n.b.^ =.%.%.[ [ %.=.=.=.=.=.=.=.=.=.=.%.5 m.m.m.m.m.m.m.m.m.m.m.m.m.m.m.",
"m.m.m.m.m.m.m.m.m.m.m.m.m.m.m.m.m.m.m.Y E R R 4.n.n.n.n.n.n.<.=.*.=.=.=.=.=.=.=.=.=.=.=.=.=.Q m.m.m.m.m.m.m.m.m.m.m.m.m.m.m.m.m.",
"m.m.m.m.m.m.m.m.m.m.m.m.m.m.m.m.m.m.m.o P U T b.n.n.n.n.n.n.a.*.*.=.=.=.=.=.=.=.=.=.=.=.=.w m.m.m.m.m.m.m.m.m.m.m.m.m.m.m.m.m.m.",
"m.m.m.m.m.m.m.m.m.m.m.m.m.m.m.m.m.m.m.m.f x.n.n.n.n.n.n.n.n.x.` =.=.=.=.=.=.=.=.=.=.=.%.4 m.m.m.m.m.m.m.m.m.m.m.m.m.m.m.m.m.m.m.",
"m.m.m.m.m.m.m.m.m.m.m.m.m.m.m.m.m.m.m.m.m.h.h.z.c.c.c.b.n.n.b.) =.=.=.=.=.=.=.=.=.*.e m.m.m.m.m.m.m.m.m.m.m.m.m.m.m.m.m.m.m.m.m.",
"m.m.m.m.m.m.m.m.m.m.m.m.m.m.m.m.m.m.m.m.m.n.n.b.x.x.c.h.n.n.v.) =.=.=.=.=.=.=.=.=.) ` m.m.m.m.m.m.m.m.m.m.m.m.m.m.m.m.m.m.m.m.m.",
"m.m.m.m.m.m.m.m.m.m.m.m.m.m.m.m.m.m.m.m.m.n.n.n.n.n.n.h.n.n.g.%.=.=.=.=.=.=.=.=.=.=.*.m.m.m.m.m.m.m.m.m.m.m.m.m.m.m.m.m.m.m.m.m.",
"m.m.m.m.m.m.m.m.m.m.m.m.m.m.m.m.m.m.m.m.m.n.n.n.b.x.s.e.b.n.<.*.=.=.=.=.=.=.=.=.=.=.=.m.m.m.$ % m.m.m.m.m.m.m.m.m.m.m.m.m.m.m.m.",
"m.m.m.m.m.m.m.m.m.m.m.m.m.m.m.m.m.m.m.m.m.c.c.6.~ %.=.*._ +._ =.=.=.=.=.=.=.=.=.=.=.=.m.m.& c c z m.m.m.m.m.m.m.m.m.m.m.m.m.m.m.",
"m.m.m.m.m.m.m.m.m.m.m.m.m.m.m.m.m.m.m.m.m.p.} =.=.=.=.=.=.=.=.=.=.=.=.=.=.=.=.=.=.=.$.m.m.* c c c m.m.m.m.m.m.m.m.m.m.m.m.m.m.m.",
"m.m.m.m.m.m.m.m.m.m.m.m.m.m.m.m.m.m.m.m.m.! =.=.=.=.=.=.=.=.=.=.=.=.=.=.=.=.=.=.=.=.Q m.m.# c c j m.m.m.m.m.m.m.m.m.m.m.m.m.m.m.",
"m.m.m.m.m.m.m.m.m.m.m.m.m.m.m.m.m.m.m.m.6 =.=.=.=.=.=.=.=.=.=.=.=.=.=.=.=.=.=.=.=.=.| s + m.m.m.m.m.m.m.m.m.m.m.m.m.m.m.m.m.m.m.",
"m.m.m.m.m.m.m.m.m.m.m.m.m.m.m.m.m.1.w.1.p _ =.=.=.=.=.=.=.=.=.=.=.=.=.=.=.=.=.=.=.*...b.b.m.m.m.m.m.m.m.m.m.m.m.m.m.m.m.m.m.m.m.",
"m.m.m.m.m.m.m.m.m.m.m.m.m.m.m.m.c.n.n.n.n.x.6.[ =.=.=.=.=.=.=.=.=.=.=.=.=.=.=.=.=.i b.n.n.2.m.m.m.m.m.m.m.m.m.m.m.m.m.m.m.m.m.m.",
"m.m.m.m.m.m.m.m.m.m.m.m.m.m.m.1.n.n.n.n.n.n.n.k.X.=.=.=.=.=.=.=.=.=.=.=.=.=.=.=._ ] n.n.n.g.m.m.m.m.m.m.m.m.m.m.m.m.m.m.m.m.m.m.",
"m.m.m.m.m.m.m.m.m.m.m.m.m.m.m.2.n.n.n.n.n.n.n.n.b.( =.=.=.=.=.=.=.=.=.=.=.=.=._ W i.n.n.n.x.m.m.m.m.m.m.m.m.m.m.m.m.m.m.m.m.m.m.",
"m.m.m.m.m.m.m.m.m.m.m.m.m.m.m.m.n.n.n.n.n.n.n.n.n.v.| =.=.=.=.=.=.=.=.=.=.=.! ! / b.n.n.n.l.m.m.m.m.m.m.m.m.m.m.m.m.m.m.m.m.m.m.",
"m.m.m.m.m.m.m.m.m.m.m.m.m.m.m.m.1.n.n.n.n.n.n.n.n.n.b.{ =.*.) ! ! ! ! ! Q W $.&.z.n.n.n.n.e.m.m.m.m.m.m.m.m.m.m.m.m.m.m.m.m.m.m.",
"m.m.m.m.m.m.m.m.m.m.m.m.m.m.m.m.m.s.n.n.n.n.n.n.n.n.n.j.6 m.m.W =.=.=.=.=.=.} j.n.n.n.n.n.s m.m.m.m.m.m.m.m.m.m.m.m.m.m.m.m.m.m.",
"m.m.m.m.m.m.m.m.m.m.m.m.m.m.m.m.m.m.d.n.n.n.n.n.n.n.n.n.m.m.m.m.m.9 w W q 7.z.n.n.n.n.n.s.m.m.m.m.m.m.m.m.m.m.m.m.m.m.m.m.m.m.m.",
"m.m.m.m.m.m.m.m.m.m.m.m.m.m.m.m.m.m.m.:.v.n.n.n.n.n.n.b.m.m.m.m.m.m.m.m.m.n.n.n.n.n.n.v.m.m.m.m.m.m.m.m.m.m.m.m.m.m.m.m.m.m.m.m.",
"m.m.m.m.m.m.m.m.m.m.m.m.m.m.m.m.m.m.m.m.m.1.b.n.n.n.c.y m.m.m.m.m.m.m.m.m.v.n.n.n.n.n.d m.m.m.m.m.m.m.m.m.m.m.m.m.m.m.m.m.m.m.m.",
"m.m.m.m.m.m.m.m.m.m.m.m.m.m.m.m.m.m.m.m.m.m.m.m.m.m.m.m.m.m.m.m.m.m.m.m.m.d n.n.n.n.e.m.m.m.m.m.m.m.m.m.m.m.m.m.m.m.m.m.m.m.m.m.",
"m.m.m.m.m.m.m.m.m.m.m.m.m.m.m.m.m.m.m.m.m.m.m.m.m.m.m.m.m.m.m.m.m.m.m.m.m.m.a 2.2.s m.m.m.m.m.m.m.m.m.m.m.m.m.m.m.m.m.m.m.m.m.m.",
"m.m.m.m.m.m.m.m.m.m.m.m.m.m.m.m.m.m.m.m.m.m.m.m.m.m.m.m.m.m.m.m.m.m.m.m.m.m.m.m.m.m.m.m.m.m.m.m.m.m.m.m.m.m.m.m.m.m.m.m.m.m.m.m."
};
