/* XPM */
static char *result[] = {
/* columns rows colors chars-per-pixel */
"64 64 149 2 ",
"   c #090909",
".  c #2B2514",
"X  c #162830",
"o  c #1B3039",
"O  c #282828",
"+  c #3C3D3D",
"@  c #401E1F",
"#  c #4F1D27",
"$  c #551F2A",
"%  c #5D222E",
"&  c #642532",
"*  c #6B2735",
"=  c #6D2937",
"-  c #782C3C",
";  c #78363B",
":  c #4B401F",
">  c #4C4224",
",  c #675931",
"<  c #6A5333",
"1  c #756535",
"2  c #213A45",
"3  c #7D3444",
"4  c #25414E",
"5  c #2A4957",
"6  c #2D4F5F",
"7  c #2D5060",
"8  c #325768",
"9  c #345B6D",
"0  c #365E71",
"q  c #376174",
"w  c #386275",
"e  c #3A6479",
"r  c #3D6A7F",
"t  c #75504F",
"y  c #664051",
"u  c #654F53",
"i  c #6C5F61",
"p  c #476B7E",
"a  c #646464",
"s  c #6B6B6B",
"d  c #6F7475",
"f  c #777779",
"g  c #82713E",
"h  c #833041",
"j  c #8C3446",
"k  c #8D3748",
"l  c #93374A",
"z  c #9B394E",
"x  c #A43D52",
"c  c #834448",
"v  c #964E4C",
"b  c #8A4E5A",
"n  c #8E5452",
"m  c #8D575D",
"M  c #985956",
"N  c #A4524F",
"B  c #AC5653",
"V  c #A55350",
"C  c #B65B58",
"Z  c #B45A57",
"A  c #867440",
"S  c #97605E",
"D  c #915C67",
"F  c #976B6A",
"G  c #9C716F",
"H  c #986C75",
"J  c #9A7776",
"K  c #948147",
"L  c #AA9351",
"P  c #A29059",
"I  c #BEA55B",
"U  c #9D947A",
"Y  c #C2A85D",
"T  c #3E6C82",
"R  c #436F85",
"E  c #486D84",
"W  c #43758C",
"Q  c #4A778C",
"!  c #4B788E",
"~  c #517B8F",
"^  c #467A93",
"/  c #497E96",
"(  c #497F98",
")  c #527D91",
"_  c #5A7F90",
"`  c #607D8B",
"'  c #9E7880",
"]  c #A57A83",
"[  c #4C829C",
"{  c #53839A",
"}  c #588296",
"|  c #668898",
" . c #6D8A98",
".. c #708E9B",
"X. c #74919E",
"o. c #78929F",
"O. c #4D86A1",
"+. c #4F89A5",
"@. c #528AA4",
"#. c #518DAA",
"$. c #5390AD",
"%. c #868485",
"&. c gray54",
"*. c #87959C",
"=. c #939394",
"-. c #9C9B9B",
";. c #A8878B",
":. c #AE8D94",
">. c #AC969B",
",. c #A89F9F",
"<. c #B3979D",
"1. c #AFA587",
"2. c #8097A1",
"3. c #839AA5",
"4. c #899CA5",
"5. c #929FA6",
"6. c #93A6AF",
"7. c #9DA5A9",
"8. c #A4A4A4",
"9. c #ABABAB",
"0. c #B3A1A3",
"q. c #B7AEAF",
"w. c #B8ADA9",
"e. c #A0AFB6",
"r. c #A1B0B6",
"t. c #A5B3B9",
"y. c #ABB6BB",
"u. c #AEB8BC",
"i. c #B3B3B3",
"p. c #B2BABE",
"a. c #BDBDBD",
"s. c #B1B7BA",
"d. c #C2B7B9",
"f. c #B4BEC2",
"g. c #B9BFC1",
"h. c #BCC0C2",
"j. c #BFC6C9",
"k. c #C3C3C4",
"l. c #C9C6C6",
"z. c #CBCCCC",
"x. c #CCD1D3",
"c. c #D4D5D5",
"v. c #DCDCDC",
"b. c #D7DADB",
"n. c #E5E5E5",
"m. c #ECECEC",
"M. c #F4F4F4",
"N. c #FFFFFF",
"B. c None",
/* pixels */
"B.B.B.B.B.B.B.B.B.B.B.B.B.B.B.B.B.B.B.B.B.B.B.B.B.B.B.B.B.B.B.B.B.B.B.B.B.B.B.B.B.B.B.B.B.B.B.B.B.B.B.B.B.B.B.B.B.B.B.B.B.B.B.B.",
"B.B.B.B.B.B.B.B.B.B.B.B.B.B.B.B.B.B.B.B.B.B.B.B.B.B.B.B.B.B.B.B.B.B.B.B.B.B.B.B.B.B.B.B.B.B.B.B.B.B.B.B.B.B.B.B.B.B.B.B.B.B.B.B.",
"B.B.B.B.B.B.B.B.B.B.B.B.B.B.B.B.B.B.B.B.B.B.B.B.B.B.B.B.B.B.B.B.B.B.B.B.B.B.B.B.B.B.B.B.B.B.B.B.B.B.B.B.B.B.B.B.B.B.B.B.B.B.B.B.",
"B.B.B.B.B.B.B.B.B.B.B.B.B.B.B.B.B.B.B.B.B.B.B.B.B.B.B.B.B.B.B.B.B.B.B.B.B.B.B.B.B.B.B.B.B.B.B.B.B.B.B.B.B.B.B.B.B.B.B.B.B.B.B.B.",
"B.B.B.B.B.B.B.B.B.B.B.B.B.B.B.B.B.B.B.B.B.B.B.B.B.B.B.8 w R W W T w 9 5 B.B.B.B.B.B.B.B.B.B.B.B.B.B.B.B.B.B.B.B.B.B.B.B.B.B.B.B.",
"B.B.B.B.B.B.B.B.B.B.B.B.B.B.B.B.B.B.B.B.B.B.B.B.9 O.$.$.$.$.$.$.$.$.$.$.#.W 9 B.B.B.B.B.B.B.B.B.B.B.B.B.B.B.B.B.B.B.B.B.B.B.B.B.",
"B.B.B.B.B.B.B.B.B.B.B.B.B.B.B.B.B.B.B.B.B.B.7 #.$.$.$.$.$.$.$.$.$.$.$.$.$.$.$.#.e B.B.B.B.B.B.B.B.B.B.B.B.B.B.B.B.B.B.B.B.B.B.B.",
"B.B.B.B.B.B.B.B.B.B.B.B.B.B.B.B.B.B.B.B.B.=.} $.$.$.$.$.$.$.$.$.$.$.$.$.$.$.$.$.$.#.9 B.B.B.B.B.B.B.B.B.B.B.B.B.B.B.B.B.B.B.B.B.",
"B.B.B.B.B.B.B.B.B.B.B.B.B.B.B.B.B.B.B.B.c.N.r.$.$.$.$.$.$.$.$.$.$.$.$.$.$.$.$.$.$.$.$.W B.B.B.B.B.B.B.B.B.B.B.B.B.B.B.B.B.B.B.B.",
"B.B.B.B.B.B.B.B.B.B.B.B.B.B.B.B.B.B.B.m.N.N.t.$.$.$.$.$.$.$.$.$.$.$.$.$.$.$.$.$.$.$.$.$.O.B.B.B.B.B.B.B.B.B.B.B.B.B.B.B.B.B.B.B.",
"B.B.B.B.B.B.B.B.B.B.B.B.B.B.B.B.B.B.z.N.N.N.o.$.$.$.$.$.$.$.$.$.$.$.$.$.$.$.$.$.$.$.$.$.$.^ B.B.B.B.B.B.B.B.B.B.B.B.B.B.B.B.B.B.",
"B.B.B.B.B.B.B.B.B.B.B.B.B.B.B.B.B.9.N.N.N.m.[ $.$.$.$.$.$.$.$.$.$.$.$.$.$.$.$.$.$.$.$.$.$.$.w B.B.B.B.B.B.B.B.B.B.B.B.B.B.B.B.B.",
"B.B.B.B.B.B.B.B.B.B.B.B.$ # B.B.O + M.N.N.7.*.3.3.` W $.#.$.$.$.$.$.$.$.$.$.$.$.$.$.$.$.$.$.$.o B.B.B.B.B.B.B.B.B.B.B.B.B.B.B.B.",
"B.B.B.B.B.B.B.B.B.B.B.z x x = B.a   n.N.c.v.N.N.k.k.v.r.~ #.$.$.$.$.$.$.$.$.$.$.$.$.$.$.$.$.$.W B.B.B.B.B.B.B.B.B.B.B.B.B.B.B.B.",
"B.B.B.B.B.B.B.B.B.B.= x x x x a a s N.z.x.m.a.k.N.N.N.N.N.5./ $.$.$.$.$.$.$.$.$.$.$.$.$.$.$.$.$.4 B.B.B.B.B.B.B.B.B.B.B.B.B.B.B.",
"B.B.B.B.B.B.B.B.B.B.= x x x l l.9.d.a.x.d.x.N.N.N.N.N.N.N.N.z.) $.$.$.$.$.$.$.$.$.$.$.$.$.$.$.$.e B.B.B.B.B.B.B.B.B.B.B.B.B.B.B.",
"B.B.B.B.B.B.B.B.B.B.B.x x x D N.N.N.M.z.N.N.N.N.N.N.N.b.a.M.N.z./ #.$.$.$.$.$.$.$.$.$.$.$.$.$.$.+.B.B.B.B.B.B.B.B.B.B.B.B.B.B.B.",
"B.B.B.B.B.B.B.B.B.B.B.B.& % J N.N.N.N.N.N.N.b.z.z.z.z.n.N.N.N.N.5.#.$.$.$.$.$.$.$.$.$.$.$.$.$.$.$.B.B.B.B.B.B.B.B.B.B.B.B.B.B.B.",
"B.B.B.B.B.B.B.B.B.B.B.B.B.B.z.N.N.N.N.N.b.z.m.N.N.N.N.N.N.N.N.N.N._ $.$.$.$.$.$.$.$.$.$.$.$.$.$.$.7 B.B.B.B.B.B.B.B.B.B.B.B.B.B.",
"B.B.B.B.B.B.B.B.B.B.B.d i.z.N.N.N.N.N.N.N.N.N.N.N.N.N.N.N.N.N.N.N.c.( $.$.$.$.$.$.$.$.$.$.$.$.$.$.q B.B.B.B.B.B.B.B.B.B.B.B.B.B.",
"B.B.B.B.B.B.B.B.B.B.B.N.N.N.N.N.N.N.N.N.N.c.z.z.,.H ,.z.z.v.N.N.N.N. .#.$.$.$.$.$.$.$.$.$.$.$.$.$.0 B.B.B.B.B.B.B.B.B.B.B.B.B.B.",
"B.B.B.B.B.B.B.B.B.B.=.N.N.N.N.N.N.N.N.N.N.N.d.G V C n N.N.N.N.N.N.N.h.@.$.$.$.$.$.$.$.$.$.$.$.$.$.e B.B.B.B.B.B.B.B.B.B.B.B.B.B.",
"B.B.B.B.B.B.B.B.B.B.B.N.N.N.N.N.N.N.N.N.h.m B C C C n N.N.N.N.N.N.N.N.W $.$.$.$.$.$.$.$.$.$.$.$.$.e B.B.B.B.B.B.B.B.B.B.B.B.B.B.",
"B.B.B.B.B.B.B.B.B.B.B.z.N.N.N.N.N.n.>.m ; C C C C C J N.N.N.N.N.N.N.N...$.$.$.$.$.$.$.$.$.$.$.$.$.0 B.B.B.B.B.B.B.B.B.B.B.B.B.B.",
"B.B.B.B.B.B.B.B.B.B.B.B.l.m.k.-.u k x - B C C C C B l.N.N.N.N.N.N.N.N.6.$.$.$.$.$.$.$.$.$.$.$.$.$.w B.B.B.B.B.B.B.B.B.B.B.B.B.B.",
"B.B.B.B.B.B.B.B.B.B.B.B.B.B.B.B.B.- N ; C C C C C S N.N.N.N.N.N.N.N.N.y.$.$.$.$.$.$.$.$.$.$.$.$.$.6 B.B.B.B.B.B.B.B.B.B.B.B.B.B.",
"B.B.B.B.B.B.B.B.B.B.B.B.B.B.B.B.B.B.h V C C C C Z 0.N.N.N.N.N.N.N.N.N.f.$.$.$.$.$.$.$.$.$.$.$.$.$.B.B.B.B.B.B.B.B.B.B.B.B.B.B.B.",
"B.B.B.B.B.B.B.B.B.B.B.B.B.B.B.B.B.B.# C C C C C M M.N.N.N.N.N.N.N.N.N.a.$.$.$.$.$.$.$.$.$.$.$.$.[ + B.B.B.B.B.B.B.B.B.B.B.B.B.B.",
"B.B.B.B.B.B.B.B.B.B.B.B.B.B.B.B.B.B.B.C C C C C 0.N.N.N.N.N.N.N.N.N.N.y.$.$.$.$.$.$.$.$.$.$.$.{ c.N.N.z.B.B.B.B.B.B.B.B.B.B.B.B.",
"B.B.B.B.B.B.B.B.B.B.B.B.B.B.B.B.B.B.B.B C C C F N.N.N.N.N.N.N.N.N.N.N.6.$.$.$.$.$.$.$.$.$.$.@.x.N.N.N.N.k.B.B.B.B.B.B.B.B.B.B.B.",
"B.B.B.B.B.B.B.B.B.B.B.B.B.B.B.B.B.B.B.; C C F M.N.N.N.N.N.N.N.N.N.N.N.| $.$.$.$.$.$.$.$.$.#.p N.N.N.N.N.N.B.B.B.B.B.B.B.B.B.B.B.",
"B.B.B.B.B.B.B.B.B.B.B.B.B.B.B.B.B.B.B.B.v ;.M.N.N.N.N.N.N.N.N.N.N.N.v.[ $.$.$.$.$.$.$.( T R ) N.N.N.N.N.M.B.B.B.B.B.B.B.B.B.B.B.",
"B.B.B.B.B.B.B.B.B.B.B.B.B.B.B.B.B.B.s l.m.N.N.N.N.N.N.N.N.N.N.N.N.N.3.#.$.$.$.$.$.#.e ^ $.$.#.j.N.N.N.N.i.B.B.B.B.B.B.B.B.B.B.B.",
"B.B.B.B.B.B.B.B.B.B.B.B.B.B.B.B.B.B.9.N.N.N.N.N.N.N.N.N.N.N.N.N.N.z.[ #.$.$.$.$.T T #.$.$.$.#.@.f.M.M.9.B.B.B.B.B.B.B.B.B.B.B.B.",
"B.B.B.B.B.B.B.B.B.B.B.B.B.B.B.B.B.B.B.c.N.N.N.N.N.N.N.N.N.N.N.N.c.Q ( W W E p r #.#.$.$.$.$.$.$.$.X B.B.B.B.B.B.B.B.B.B.B.B.B.B.",
"B.B.B.B.B.B.B.B.B.B.B.B.B.B.B.B.B.B.B.B.a.a.q.0.>.;.' H D b t 3 3 j l z x 3 E #.$.$.$.$.$.$.$.$.e B.B.B.B.B.B.B.B.B.B.B.B.B.B.B.",
"B.B.B.B.B.B.B.B.B.B.B.B.B.B.B.B.B.B.B.> < c x x x x x x x x x x x b k 3 3 ( $.$.$.$.$.$.$.$.$./ B.B.B.B.B.B.B.B.B.B.B.B.B.B.B.B.",
"B.B.B.B.B.B.B.B.B.B.B.B.B.B.B.B.B.B.L K A , t J ] :.<.0.q.q.J T ^ T O.$.$.$.$.$.$.$.$.$.$.#.( B.B.B.B.B.B.B.B.B.B.B.B.B.B.B.B.B.",
"B.B.B.B.B.B.B.B.B.B.B.B.B.B.B.B.B.> 1 I Y I U N.N.N.N.N.N.N.N.! $.$.$.$.$.$.$.$.$.$.$.$.$.+.B.B.B.B.B.B.B.B.B.B.B.B.B.B.B.B.B.B.",
"B.B.B.B.B.B.B.B.B.B.B.B.B.B.B.B.B.B.L Y Y Y 1.N.N.N.N.N.N.N.N.3.$.$.$.$.$.$.$.$.$.$.$.$.O.B.B.B.B.B.B.B.B.B.B.B.B.B.B.B.B.B.B.B.",
"B.B.B.B.B.B.B.B.B.B.B.B.B.B.B.B.B.B.g Y Y P v.N.N.N.N.N.N.N.N.u.$.$.$.$.$.$.$.$.$.$.$.W B.B.B.B.B.B.B.B.B.B.B.B.B.B.B.B.B.B.B.B.",
"B.B.B.B.B.B.B.B.B.B.B.B.B.B.B.B.B.B.B.. w.n.N.N.N.N.N.N.N.N.N.k.$.$.$.$.$.$.$.$.$.$.^ 2 B.B.B.B.B.B.B.B.B.B.B.B.B.B.B.B.B.B.B.B.",
"B.B.B.B.B.B.B.B.B.B.B.B.B.B.B.B.B.B.B.B.a.z.z.z.z.z.z.z.N.N.N.j.$.$.$.$.$.$.$.$.$.+.( T B.B.B.* B.B.B.B.B.B.B.B.B.B.B.B.B.B.B.B.",
"B.B.B.B.B.B.B.B.B.B.B.B.B.B.B.B.B.B.B.B.k.N.N.N.N.N.N.z.N.N.N.y.$.$.$.$.$.$.$.$.$.$.$.^ B.B.z x x B.B.B.B.B.B.B.B.B.B.B.B.B.B.B.",
"B.B.B.B.B.B.B.B.B.B.B.B.B.B.B.B.B.B.B.B.,.N.N.N.N.N.N.z.N.N.N.4.$.$.$.$.$.$.$.$.$.$.$.#.B.B.x x x & B.B.B.B.B.B.B.B.B.B.B.B.B.B.",
"B.B.B.B.B.B.B.B.B.B.B.B.B.B.B.B.B.B.B.B.B.N.N.N.N.N.N.l.N.N.M.~ $.$.$.$.$.$.$.$.$.$.$.$.  B.z x x B.B.B.B.B.B.B.B.B.B.B.B.B.B.B.",
"B.B.B.B.B.B.B.B.B.B.B.B.B.B.B.B.B.B.B.B.B.c.N.N.N.N.a.M.N.N.*.#.$.$.$.$.$.$.$.$.$.$.$.O.s B.B.B.B.B.B.B.B.B.B.B.B.B.B.B.B.B.B.B.",
"B.B.B.B.B.B.B.B.B.B.B.B.B.B.B.B.B.B.B.B.B.a z.m.m.a.n.N.N.p.[ $.$.$.$.$.$.$.$.$.$.$.$.^ z.B.B.B.B.B.B.B.B.B.B.B.B.B.B.B.B.B.B.B.",
"B.B.B.B.B.B.B.B.B.B.B.B.B.B.B.B.B.B.B.B.B.B.n.c.c.N.N.N.h.[ $.$.$.$.$.$.$.$.$.$.$.$.$.X.M.B.B.B.B.B.B.B.B.B.B.B.B.B.B.B.B.B.B.B.",
"B.B.B.B.B.B.B.B.B.B.B.B.B.B.B.B.B.B.B.B.B.B.d g.c.c.s.X.[ $.$.$.$.$.$.$.$.$.$.$.$.$.#.f.N.B.B.B.B.B.B.B.B.B.B.B.B.B.B.B.B.B.B.B.",
"B.B.B.B.B.B.B.B.B.B.B.B.B.B.B.B.B.B.B.B.B.B.B.W +.+.$.[ $.$.$.$.$.$.$.$.$.$.$.$.$.$. .N.M.B.B.B.B.B.B.B.B.B.B.B.B.B.B.B.B.B.B.B.",
"B.B.B.B.B.B.B.B.B.B.B.B.B.B.B.B.B.B.B.B.B.B.B.B.[ $.T [ $.$.$.$.$.$.$.$.$.$.$.$.$.) n.N.z.B.B.B.B.B.B.B.B.B.B.B.B.B.B.B.B.B.B.B.",
"B.B.B.B.B.B.B.B.B.B.B.B.B.B.B.B.B.B.B.B.B.B.B.B.2 W / $.$.$.$.$.$.$.$.$.$.$.$.$._ b.N.N.-.B.B.B.B.B.B.B.B.B.B.B.B.B.B.B.B.B.B.B.",
"B.B.B.B.B.B.B.B.B.B.B.B.B.B.B.B.B.B.B.B.B.B.B.B.B.5 $.$.$.$.$.$.$.$.$.$.$.$.{ 7.N.N.N.M.B.B.B.B.B.B.B.B.B.B.B.B.B.B.B.B.B.B.B.B.",
"B.B.B.B.B.B.B.B.B.B.B.B.B.B.B.B.B.B.B.B.B.B.B.B.B.7 $.$.$.$.$.$.$.$.$.$.$.#.s.N.N.N.N.8.B.B.B.B.B.B.B.B.B.B.B.B.B.B.B.B.B.B.B.B.",
"B.B.B.B.B.B.B.B.B.B.B.B.B.B.B.B.B.B.B.B.B.B.B.B.B.B.o.} ^ #.$.$.$.$.$.$.$.W c.N.N.N.x.B.B.B.B.B.B.B.B.B.B.B.B.B.B.B.B.B.B.B.B.B.",
"B.B.B.B.B.B.B.B.B.B.B.B.B.B.B.B.B.B.B.B.B.B.B.B.B.l.N.N.M.z.f.y.e.e.r.t.f.h.+ a.m.9.B.B.B.B.B.B.B.B.B.B.B.B.B.B.B.B.B.B.B.B.B.B.",
"B.B.B.B.B.B.B.B.B.B.B.B.B.B.B.B.B.B.B.B.B.B.B.B.B.N.N.N.N.N.N.N.N.N.N.N.N.N.=.B.B.B.B.B.B.B.B.B.B.B.B.B.B.B.B.B.B.B.B.B.B.B.B.B.",
"B.B.B.B.B.B.B.B.B.B.B.B.B.B.B.B.B.B.B.B.B.B.B.B.&.N.N.N.N.N.N.N.N.N.N.N.N.N.-.B.B.B.B.B.B.B.B.B.B.B.B.B.B.B.B.B.B.B.B.B.B.B.B.B.",
"B.B.B.B.B.B.B.B.B.B.B.B.B.B.B.B.B.B.B.B.B.B.B.B.B.8.M.N.N.N.N.N.N.N.N.N.N.m.B.B.B.B.B.B.B.B.B.B.B.B.B.B.B.B.B.B.B.B.B.B.B.B.B.B.",
"B.B.B.B.B.B.B.B.B.B.B.B.B.B.B.B.B.B.B.B.B.B.B.B.B.B.B.s =.i.l.v.n.v.v.a.%.B.B.B.B.B.B.B.B.B.B.B.B.B.B.B.B.B.B.B.B.B.B.B.B.B.B.B.",
"B.B.B.B.B.B.B.B.B.B.B.B.B.B.B.B.B.B.B.B.B.B.B.B.B.B.B.B.B.B.B.B.B.B.B.B.B.B.B.B.B.B.B.B.B.B.B.B.B.B.B.B.B.B.B.B.B.B.B.B.B.B.B.B.",
"B.B.B.B.B.B.B.B.B.B.B.B.B.B.B.B.B.B.B.B.B.B.B.B.B.B.B.B.B.B.B.B.B.B.B.B.B.B.B.B.B.B.B.B.B.B.B.B.B.B.B.B.B.B.B.B.B.B.B.B.B.B.B.B.",
"B.B.B.B.B.B.B.B.B.B.B.B.B.B.B.B.B.B.B.B.B.B.B.B.B.B.B.B.B.B.B.B.B.B.B.B.B.B.B.B.B.B.B.B.B.B.B.B.B.B.B.B.B.B.B.B.B.B.B.B.B.B.B.B."
};
