/* XPM */
static char *result[] = {
/* columns rows colors chars-per-pixel */
"64 64 156 2 ",
"   c gray6",
".  c #1B2F38",
"X  c #2F2F2F",
"o  c gray14",
"O  c #491B24",
"+  c #5E373F",
"@  c #662532",
"#  c #6C2836",
"$  c #742B3A",
"%  c #7E393E",
"&  c #47412F",
"*  c #5F452E",
"=  c #5C502C",
"-  c #6F6138",
";  c #776739",
":  c #786839",
">  c #706135",
",  c #6A3B4C",
"<  c #783141",
"1  c #783B4D",
"2  c #274552",
"3  c #2B4B5B",
"4  c #344A55",
"5  c #2F5263",
"6  c #315566",
"7  c #325768",
"8  c #355B6E",
"9  c #365E71",
"0  c #376073",
"q  c #386276",
"w  c #3A667A",
"e  c #3C6A7F",
"r  c gray27",
"t  c #5D4B5E",
"y  c #5F5F5F",
"u  c #70504F",
"i  c #6E5958",
"p  c #5C4D60",
"a  c #415B67",
"s  c #51576B",
"d  c #765D62",
"f  c #466376",
"g  c #666666",
"h  c #6C6C6C",
"j  c #776266",
"k  c gray45",
"l  c #7A7A7A",
"z  c #82673E",
"x  c #86743E",
"c  c #843344",
"v  c #8D3446",
"b  c #8B3D4C",
"n  c #873A4A",
"m  c #923649",
"M  c #953A4A",
"N  c #9C3A4E",
"B  c #A43D52",
"V  c #874042",
"C  c #964B48",
"Z  c #9C524F",
"A  c #965A58",
"S  c #A0504D",
"D  c #A55452",
"F  c #AB5552",
"G  c #B25956",
"H  c #B65B58",
"J  c #945663",
"K  c #975A67",
"L  c #966463",
"P  c #97656F",
"I  c #9F6E78",
"U  c #9B7776",
"Y  c #A4787C",
"T  c #A28D4E",
"R  c #AD9552",
"E  c #B79E57",
"W  c #BBA259",
"Q  c #A4956B",
"!  c #A8817F",
"~  c #ADA17F",
"^  c #C0A65C",
"/  c #C2A85D",
"(  c #3E6D82",
")  c #406F85",
"_  c #4B6980",
"`  c #407086",
"'  c #43748B",
"]  c #47788F",
"[  c #4C768A",
"{  c #547B8D",
"}  c #5A7D8D",
"|  c #457991",
" . c #497C94",
".. c #497F99",
"X. c #557F92",
"o. c #627E8A",
"O. c #4B839D",
"+. c #578297",
"@. c #63818F",
"#. c #778389",
"$. c #658593",
"%. c #678897",
"&. c #6D8C9A",
"*. c #6A8896",
"=. c #758E9A",
"-. c #7C929C",
";. c #4D87A2",
":. c #4F89A5",
">. c #518AA6",
",. c #518DAA",
"<. c #5390AD",
"1. c #7C96A2",
"2. c #7394A3",
"3. c #838383",
"4. c #8B8B8B",
"5. c #908181",
"6. c #80959F",
"7. c #949494",
"8. c #9F9F9F",
"9. c #A8888E",
"0. c #AE8B92",
"q. c #A99899",
"w. c #B4A09F",
"e. c #889FA9",
"r. c #B59CA1",
"t. c #8DA1AA",
"y. c #96A6AD",
"u. c #9CACB4",
"i. c #93A9B4",
"p. c #A4A4A4",
"a. c #ABABAB",
"s. c #A3ABAE",
"d. c #B5A5A8",
"f. c #B9A4A8",
"g. c #A7AEB2",
"h. c #AAB4B9",
"j. c #B3B3B3",
"k. c #B5BBBE",
"l. c #BEBEBE",
"z. c #BAB5B6",
"x. c #C3BABB",
"c. c #B7BFC3",
"v. c #BBC1C3",
"b. c #C4C4C4",
"n. c #CBCBCB",
"m. c #C6C6C8",
"M. c #CBCFD1",
"N. c #CDD0D1",
"B. c #D3D3D3",
"V. c #DDDCDC",
"C. c #D7DADB",
"Z. c #E4E4E4",
"A. c #EDEDED",
"S. c #F4F4F4",
"D. c #FFFFFF",
"F. c None",
/* pixels */
"F.F.F.F.F.F.F.F.F.F.F.F.F.F.F.F.F.F.F.F.F.F.F.F.F.F.F.F.F.F.F.F.F.F.F.F.F.F.F.F.F.F.F.F.F.F.F.F.F.F.F.F.F.F.F.F.F.F.F.F.F.F.F.F.",
"F.F.F.F.F.F.F.F.F.F.F.F.F.F.F.F.F.F.F.F.F.F.F.F.F.F.F.F.F.F.F.F.F.F.F.F.F.F.F.F.F.F.F.F.F.F.F.F.F.F.F.F.F.F.F.F.F.F.F.F.F.F.F.F.",
"F.F.F.F.F.F.F.F.F.F.F.F.F.F.F.F.F.F.F.F.F.F.F.F.F.F.F.F.F.F.F.F.F.F.F.F.F.F.F.F.F.F.F.F.F.F.F.F.F.F.F.F.F.F.F.F.F.F.F.F.F.F.F.F.",
"F.F.F.F.F.F.F.F.F.F.F.F.F.F.F.F.F.F.F.F.F.F.F.F.F.F.F.F.F.F.F.F.F.F.F.F.F.F.F.F.F.F.F.F.F.F.F.F.F.F.F.F.F.F.F.F.F.F.F.F.F.F.F.F.",
"F.F.F.F.F.F.F.F.F.F.F.F.F.F.F.F.F.F.F.F.F.F.F.F.F.F.F.F.F.F.F.F.F.F.F.F.F.F.F.F.F.F.F.F.F.F.F.F.F.F.F.F.F.F.F.F.F.F.F.F.F.F.F.F.",
"F.F.F.F.F.F.F.F.F.F.F.F.F.F.F.F.F.F.F.F.F.F.F.F.F.F.F.F.F.F.F.F.F.F.F.F.F.F.F.F.F.F.F.F.F.F.F.F.F.F.F.F.F.F.F.F.F.F.F.F.F.F.F.F.",
"F.F.F.F.F.F.F.F.F.F.F.F.F.F.F.F.F.F.F.F.F.F.F.F.F.F.F.F.F.F.F.F.F.F.F.F.F.F.F.F.F.F.F.F.F.F.F.F.F.F.F.F.F.F.F.F.F.F.F.F.F.F.F.F.",
"F.F.F.F.F.F.F.F.F.F.F.F.F.F.F.F.F.F.F.F.F.F.F.F.F.F.F.F.F.F.F.3 8 ( ( ( q 5 F.F.F.F.F.F.F.F.F.F.F.F.F.F.F.F.F.F.F.F.F.F.F.F.F.F.",
"F.F.F.F.F.F.F.F.F.F.F.F.F.F.F.F.F.F.F.F.F.F.F.F.F.F.F.F.4 ..<.<.<.<.<.<.<.<.<.O.9 F.F.F.F.F.F.F.F.F.F.F.F.F.F.F.F.F.F.F.F.F.F.F.",
"F.F.F.F.F.F.F.F.F.F.F.F.F.F.F.F.F.F.F.F.F.F.F.F.F.F.7.S.v.<.<.<.<.<.<.<.<.<.<.<.<.<.` F.F.F.F.F.F.F.F.F.F.F.F.F.F.F.F.F.F.F.F.F.",
"F.F.F.F.F.F.F.F.F.F.F.F.F.F.F.F.F.F.F.F.F.F.F.F.F.B.D.D.m.,.<.<.<.<.<.<.<.<.<.<.<.<.<.,.8 F.F.F.F.F.F.F.F.F.F.F.F.F.F.F.F.F.F.F.",
"F.F.F.F.F.F.F.F.F.F.F.F.F.F.F.F.F.F.F.F.F.F.F.q.S.D.D.D.y.<.<.<.<.<.<.<.<.<.<.<.<.<.<.<.<.;.2 F.F.F.F.F.F.F.F.F.F.F.F.F.F.F.F.F.",
"F.F.F.F.F.F.F.F.F.F.F.F.F.F.F.F.$ B N O F.F.h A.D.D.D.S.+.<.<.<.<.<.<.<.<.<.<.<.<.<.<.<.<.<.,.5 F.F.F.F.F.F.F.F.F.F.F.F.F.F.F.F.",
"F.F.F.F.F.F.F.F.F.F.F.F.F.F.F.@ B B B B F.o   l D.D.S.e.,.,.<.<.<.<.<.<.<.<.<.<.<.<.<.<.<.<.<.<.q F.F.F.F.F.F.F.F.F.F.F.F.F.F.F.",
"F.F.F.F.F.F.F.F.F.F.F.F.F.F.F.$ B B B B + p.X V.D.A.n.Z.n.u.*.O.<.<.<.<.<.<.<.<.<.<.<.<.<.<.<.<.<.w F.F.F.F.F.F.F.F.F.F.F.F.F.F.",
"F.F.F.F.F.F.F.F.F.F.F.F.F.F.F.# B B B b m.7.Z.S.B.V.D.S.n.n.n.k.$.<.<.<.<.<.<.<.<.<.<.<.<.<.<.<.<.<.3 F.F.F.F.F.F.F.F.F.F.F.F.F.",
"F.F.F.F.F.F.F.F.F.F.F.F.F.F.F.F.@ B m q.D.A.l.n.V.b.l.n.D.D.D.D.S.1.,.<.<.<.<.<.<.<.<.<.<.<.<.<.<.<.;.F.F.F.F.F.F.F.F.F.F.F.F.F.",
"F.F.F.F.F.F.F.F.F.F.F.F.F.F.F.F.F.F.r S.D.D.D.A.Z.D.D.D.D.D.D.D.D.D.t.<.<.<.<.<.<.<.<.<.<.<.<.<.<.<.<.6 F.F.F.F.F.F.F.F.F.F.F.F.",
"F.F.F.F.F.F.F.F.F.F.F.F.F.F.F.F.a.7.l.D.D.D.D.D.D.D.D.D.D.D.D.D.D.D.S.2.<.<.<.<.<.<.<.<.<.<.<.<.<.<.<.,.F.F.F.F.F.F.F.F.F.F.F.F.",
"F.F.F.F.F.F.F.F.F.F.F.F.F.F.g D.D.D.D.D.D.D.D.D.V.l.l.x.l.l.l.l.b.B.D.C.O.<.<.<.<.<.<.<.<.<.<.<.<.<.<.<.5 F.F.F.F.F.F.F.F.F.F.F.",
"F.F.F.F.F.F.F.F.F.F.F.F.F.F.a.D.D.D.D.D.D.D.D.D.D.D.D.D.D.D.D.D.D.D.D.D.1.<.<.<.<.<.<.<.<.<.<.<.<.<.<.<.w F.F.F.F.F.F.F.F.F.F.F.",
"F.F.F.F.F.F.F.F.F.F.F.F.F.F.p.D.D.D.D.D.D.D.D.D.D.b.l.B.D.D.D.D.D.D.D.D.N.;.<.<.<.<.<.<.<.<.<.<.<.<.<.<.O.F.F.F.F.F.F.F.F.F.F.F.",
"F.F.F.F.F.F.F.F.F.F.F.F.F.F.4.D.D.D.D.D.D.D.D.D.D.D.D.n.i 5.Z.D.D.D.D.D.D.{ <.<.<.<.<.<.<.<.<.<.<.<.<.<.,.F.F.F.F.F.F.F.F.F.F.F.",
"F.F.F.F.F.F.F.F.F.F.F.F.F.F.F.C.D.D.D.D.D.D.V.l.w.Y A Z H D j.b.b.A.D.D.D.t.<.<.<.<.<.<.<.<.<.<.<.<.<.<.<.F.F.F.F.F.F.F.F.F.F.F.",
"F.F.F.F.F.F.F.F.F.F.F.F.F.F.F.F.p.a.p.j J n v % G H H H H Z A.D.D.D.D.D.D.m.:.<.<.<.<.<.<.<.<.<.<.<.<.<.<.F.F.F.F.F.F.F.F.F.F.F.",
"F.F.F.F.F.F.F.F.F.F.F.F.F.F.F.F.F.F.F.F.N B % H H H H H H ! D.D.D.D.D.D.D.S.| <.<.<.<.<.<.<.<.<.<.<.<.<.<.F.F.F.F.F.F.F.F.F.F.F.",
"F.F.F.F.F.F.F.F.F.F.F.F.F.F.F.F.F.F.F.F.@ c F H H H H H D V.D.D.D.D.D.D.D.D.] <.<.<.<.<.<.<.<.<.<.<.<.<.<.F.F.F.F.F.F.F.F.F.F.F.",
"F.F.F.F.F.F.F.F.F.F.F.F.F.F.F.F.F.F.F.F.F.V H H H H H G w.D.D.D.D.D.D.D.D.D.+.<.<.<.<.<.<.<.<.<.<.<.<.<.>.F.F.F.F.F.F.F.F.F.F.F.",
"F.F.F.F.F.F.F.F.F.F.F.F.F.F.F.F.F.F.F.F.F.F H H H H G L D.D.D.D.D.D.D.D.D.D.X.<.<.<.<.<.<.<.<.<.<.<.<.<.' F.F.F.F.F.F.F.F.F.F.F.",
"F.F.F.F.F.F.F.F.F.F.F.F.F.F.F.F.F.F.F.F.F.H H H H H A Z.D.D.D.D.D.D.D.D.D.D.[ <.<.<.<.<.<.<.<.<.<.<.<.<.0 F.F.F.F.F.F.F.F.F.F.F.",
"F.F.F.F.F.F.F.F.F.F.F.F.F.F.F.F.F.F.F.F.F.G H H H L Z.D.D.D.D.D.D.D.D.D.D.V...<.<.<.<.<.<.<.<.<.<.<.<.<.3 F.F.F.F.F.F.F.F.F.F.F.",
"F.F.F.F.F.F.F.F.F.F.F.F.F.F.F.F.F.F.F.F.F.C H F U A.D.D.D.D.D.D.D.D.D.D.D.s.<.<.<.<.<.<.<.<.<.<.<.<.<.;.F.F.F.F.F.F.F.F.F.F.F.F.",
"F.F.F.F.F.F.F.F.F.F.F.F.F.F.F.F.F.F.F.F.F.u U b.D.D.D.D.D.D.D.D.D.D.D.D.D.$.,.<.<.<.<.<.<.<.<.<.<.<.<.6 F.F.F.F.F.F.F.F.F.F.F.F.",
"F.F.F.F.F.F.F.F.F.F.F.F.F.F.F.F.F.F.F.F.S.D.D.D.D.D.D.D.D.D.D.D.D.D.D.D.C. .<.<.<.<.<.<.<.<.<.<.<.<.;.F.F.F.F.F.F.F.F.F.F.F.F.F.",
"F.F.F.F.F.F.F.F.F.F.F.F.F.F.F.F.F.F.F.F.l D.D.D.D.D.D.D.D.D.D.D.D.D.D.D.-.<.<.<.<.<.<.<.<.<.<.<.,.,.-.Z.D.V.4.F.F.F.F.F.F.F.F.F.",
"F.F.F.F.F.F.F.F.F.F.F.F.F.F.F.F.F.F.F.F.F.8.D.D.D.D.D.D.D.D.D.D.D.D.D.M. .<.<.<.<.<.<.<.<.<.<.<.<.2.D.D.D.D.D.F.F.F.F.F.F.F.F.F.",
"F.F.F.F.F.F.F.F.F.F.F.F.F.F.F.F.F.F.F.F.F.F.f.x.B.S.D.D.D.D.D.D.D.D.Z.} <.<.<.<.<.<.<.<.,.' ' ' ' g.D.D.D.D.D.a.F.F.F.F.F.F.F.F.",
"F.F.F.F.F.F.F.F.F.F.F.F.F.F.F.F.F.F.F.= ; ; z M N v b J I 9.r.z.n.k.X.<.<.<.<.<.<.>.) ( ' ,.,.<.<.v.D.D.D.D.D.a.F.F.F.F.F.F.F.F.",
"F.F.F.F.F.F.F.F.F.F.F.F.F.F.F.F.F.F.F.x / T > * c N B B B B B B N m < , t s f ` w ( ,.<.,.<.<.<.<.i.D.D.D.D.D.7.F.F.F.F.F.F.F.F.",
"F.F.F.F.F.F.F.F.F.F.F.F.F.F.F.F.F.F.F.x R / W > A.B.x.f.0.Y , 1 c m B B B c p  .<.<.<.<.<.<.<.<.<.>.M.D.D.D.j.F.F.F.F.F.F.F.F.F.",
"F.F.F.F.F.F.F.F.F.F.F.F.F.F.F.F.F.F.F.W / / / q.D.D.D.D.D.D.} ,.,.O.' _ f >.,.<.<.<.<.<.<.<.<.<.<.' F.F.7.F.F.F.F.F.F.F.F.F.F.F.",
"F.F.F.F.F.F.F.F.F.F.F.F.F.F.F.F.F.F.F.& T ^ Q A.D.D.D.D.D.D.-.<.,.<.<.<.<.<.<.<.<.<.<.<.<.<.<.<.( F.F.F.F.F.F.F.F.F.F.F.F.F.F.F.",
"F.F.F.F.F.F.F.F.F.F.F.F.F.7.B.n.3.F.F.g B.B.D.D.D.D.D.D.D.D.1.<.<.<.<.<.<.<.<.<.<.<.<.<.<.<.:.3 F.F.F.F.F.F.F.F.F.F.F.F.F.F.F.F.",
"F.F.F.F.F.F.F.F.F.F.F.F.7.D.D.D.D.a.F.7.B.b.n.b.n.n.D.D.D.D.&.,.<.<.<.<.<.<.<.<.<.<.<.<.,.9 F.F.F.F.F.F.F.F.F.F.F.F.F.F.F.F.F.F.",
"F.F.F.F.F.F.F.F.F.F.F.F.S.D.D.D.D.D.F.8.D.D.D.D.D.n.D.D.D.S.[ <.<.<.<.<.<.<.<.<.<.<.,.] . F.F.F.F.F.F.F.F.F.F.F.F.F.F.F.F.F.F.F.",
"F.F.F.F.F.F.F.F.F.F.F.k D.D.D.D.D.D.a.8.S.B.n.B.S.n.D.D.D.v.,.<.<.<.<.<.<.<.<.<.,.;.6 F.F.F.F.F.F.F.F.F.F.F.F.F.F.F.F.F.F.F.F.F.",
"F.F.F.F.F.F.F.F.F.F.F.p.D.D.D.D.D.D.A.7 ] >.,.>.| o.m.D.D.*.<.<.<.<.<.<.<.<.<.<.<...9 F.F.F.F.F.F.F.F.F.F.F.F.F.F.F.F.F.F.F.F.F.",
"F.F.F.F.F.F.F.F.F.F.F.a.D.D.D.D.D.D.D.@.<.<.<.<.<.<.;.=.g.:.<.<.<.<.<.<.<.<.<.<.<.<.q F.F.F.F.F.F.F.F.F.F.F.F.F.F.F.F.F.F.F.F.F.",
"F.F.F.F.F.F.F.F.F.F.F.j.D.D.D.D.D.D.D.&.<.<.<.<.<.<.<.<.e <.<.<.<.<.<.<.<.<.<.<.<.<.q 7.F.F.F.F.F.F.F.F.F.F.F.F.F.F.F.F.F.F.F.F.",
"F.F.F.F.F.F.F.F.F.F.F.j.D.D.D.D.D.D.D.=.<.<.<.<.<.<.<.<.<.<.<.<.<.<.<.<.<.<.<.<.<.<.t.D.d.M B m F.F.F.F.F.F.F.F.F.F.F.F.F.F.F.F.",
"F.F.F.F.F.F.F.F.F.F.F.p.D.D.D.D.D.D.D.$.<.<.<.<.<.<.<.<.<.<.<.<.<.<.<.<.<.<.<.<.<.<.c.D.P B B B # F.F.F.F.F.F.F.F.F.F.F.F.F.F.F.",
"F.F.F.F.F.F.F.F.F.F.F.j.D.D.D.D.D.D.D.[ <.<.<.<.<.<.<.<.<.<.<.<.<.<.<.<.<.<.<.<.<.;.V.S.d B B B F.F.F.F.F.F.F.F.F.F.F.F.F.F.F.F.",
"F.F.F.F.F.F.F.F.F.F.F.7.D.D.D.D.D.D.V.O.<.<.<.<.<.<.<.<.<.<.<.<.<.<.<.<.<.<.<.<.<.q b.x.S.0.K 9.F.F.F.F.F.F.F.F.F.F.F.F.F.F.F.F.",
"F.F.F.F.F.F.F.F.F.F.F.F.D.D.D.D.D.D.y.<.<.<.<.<.<.<.<.<.<.<.<.<.<.<.<.<.<.<.<.<.>.( n.D.D.D.D.D.4.F.F.F.F.F.F.F.F.F.F.F.F.F.F.F.",
"F.F.F.F.F.F.F.F.F.F.F.F.C.D.D.D.D.S.{ <.<.<.<.<.<.<.<.<.<.<.<.<.<.<.<.<.<.<.<.<.w <.c.D.D.D.D.D.l.F.F.F.F.F.F.F.F.F.F.F.F.F.F.F.",
"F.F.F.F.F.F.F.F.F.F.F.F.i D.D.D.D.#.O.<.<.<.<.<.<.<.<.<.<.<.<.<.<.<.<.<.<.<.<.( :.<.u.D.D.D.D.D.n.F.F.F.F.F.F.F.F.F.F.F.F.F.F.F.",
"F.F.F.F.F.F.F.F.F.F.F.F.F.k a.j.F.F.F.F.F.6 0 q | ,.<.<.<.,.<.<.<.<.<.<.<.:.' ,.<.<.u.D.D.D.D.D.l.F.F.F.F.F.F.F.F.F.F.F.F.F.F.F.",
"F.F.F.F.F.F.F.F.F.F.F.F.F.F.F.F.F.F.F.F.F.F.F.F.F.F.F.2 7 e | >.<.<.<.:.( ( <.<.,.,.k.D.D.D.D.D.a.F.F.F.F.F.F.F.F.F.F.F.F.F.F.F.",
"F.F.F.F.F.F.F.F.F.F.F.F.F.F.F.F.F.F.F.F.F.F.F.F.F.F.F.F.F.F.F.F.F.F.3  .<.<.<.<.<.$.S.D.D.D.D.D.3.F.F.F.F.F.F.F.F.F.F.F.F.F.F.F.",
"F.F.F.F.F.F.F.F.F.F.F.F.F.F.F.F.F.F.F.F.F.F.F.F.F.F.F.F.F.F.F.F.F.F.F.F.9 0 9 7 F.l A.D.D.D.D.l.F.F.F.F.F.F.F.F.F.F.F.F.F.F.F.F.",
"F.F.F.F.F.F.F.F.F.F.F.F.F.F.F.F.F.F.F.F.F.F.F.F.F.F.F.F.F.F.F.F.F.F.F.F.F.F.F.F.F.F.F.4.l.l.4.F.F.F.F.F.F.F.F.F.F.F.F.F.F.F.F.F.",
"F.F.F.F.F.F.F.F.F.F.F.F.F.F.F.F.F.F.F.F.F.F.F.F.F.F.F.F.F.F.F.F.F.F.F.F.F.F.F.F.F.F.F.F.F.F.F.F.F.F.F.F.F.F.F.F.F.F.F.F.F.F.F.F.",
"F.F.F.F.F.F.F.F.F.F.F.F.F.F.F.F.F.F.F.F.F.F.F.F.F.F.F.F.F.F.F.F.F.F.F.F.F.F.F.F.F.F.F.F.F.F.F.F.F.F.F.F.F.F.F.F.F.F.F.F.F.F.F.F.",
"F.F.F.F.F.F.F.F.F.F.F.F.F.F.F.F.F.F.F.F.F.F.F.F.F.F.F.F.F.F.F.F.F.F.F.F.F.F.F.F.F.F.F.F.F.F.F.F.F.F.F.F.F.F.F.F.F.F.F.F.F.F.F.F."
};
