/* XPM */
static char *result[] = {
/* columns rows colors chars-per-pixel */
"64 64 154 2 ",
"   c gray6",
".  c #1C313B",
"X  c #2F2F2F",
"o  c gray14",
"O  c #491B24",
"+  c #5E373F",
"@  c #652532",
"#  c #6C2836",
"$  c #732A39",
"%  c #7E393E",
"&  c #5F452E",
"*  c #5C502C",
"=  c #6F6138",
"-  c #776739",
";  c #786839",
":  c #706135",
">  c #223C48",
",  c #213A46",
"<  c #6B3D4E",
"1  c #783141",
"2  c #793948",
"3  c #24404D",
"4  c #284755",
"5  c #2C4C5C",
"6  c #274452",
"7  c #344A55",
"8  c #2F5263",
"9  c #315566",
"0  c #335A6B",
"q  c #325769",
"w  c #365E71",
"e  c #386275",
"r  c #3B667B",
"t  c #3A667A",
"y  c gray27",
"u  c #5D4B5E",
"i  c #555555",
"p  c #70504F",
"a  c #6E5958",
"s  c #5C4D60",
"d  c #51576B",
"f  c #48657A",
"g  c #6E6E6E",
"h  c #656565",
"j  c #776266",
"k  c #7B7B7B",
"l  c #82673E",
"z  c #86743E",
"x  c #833243",
"c  c #8D3446",
"v  c #8B3D4C",
"b  c #873A4A",
"n  c #9C3A4E",
"m  c #933949",
"M  c #A33D52",
"N  c #874042",
"B  c #964B48",
"V  c #9C524F",
"C  c #965A58",
"Z  c #A0504D",
"A  c #A55452",
"S  c #AB5552",
"D  c #B25956",
"F  c #B65B58",
"G  c #945663",
"H  c #995F6B",
"J  c #966463",
"K  c #97656F",
"L  c #9F6E78",
"P  c #9A7877",
"I  c #9B7675",
"U  c #A57A7D",
"Y  c #A18C4E",
"T  c #AD9552",
"R  c #B79E57",
"E  c #BBA259",
"W  c #A4956B",
"Q  c #A8817F",
"!  c #ADA17F",
"~  c #C0A65C",
"^  c #C2A85D",
"/  c #3E6D82",
"(  c #406F85",
")  c #4B6980",
"_  c #407086",
"`  c #43748B",
"'  c #4A768B",
"]  c #547B8D",
"[  c #577989",
"{  c #467A93",
"}  c #4A7C93",
"|  c #497F99",
" . c #537E91",
".. c #4B829C",
"X. c #5C8396",
"o. c #58859B",
"O. c #658593",
"+. c #678897",
"@. c #6C8D9D",
"#. c #7D929C",
"$. c #75929F",
"%. c #4D87A2",
"&. c #4E89A4",
"*. c #518BA6",
"=. c #518DAA",
"-. c #5390AD",
";. c #6B93A6",
":. c #7293A2",
">. c #7B97A4",
",. c #838383",
"<. c #8B8B8B",
"1. c #988385",
"2. c #80959F",
"3. c #949494",
"4. c #9F9F9F",
"5. c #AB868E",
"6. c #AE8C93",
"7. c #A99899",
"8. c #B4A09F",
"9. c #889FA9",
"0. c #849BA6",
"q. c #B59CA1",
"w. c #8FA0A8",
"e. c #94A4AC",
"r. c #9EAAAF",
"t. c #94A0A5",
"y. c #9AACB4",
"u. c #93A9B4",
"i. c #A4A4A4",
"p. c #AAAAAA",
"a. c #A3ABAE",
"s. c #B8A5A9",
"d. c #A0AFB6",
"f. c #A9B4BA",
"g. c #B5B5B5",
"h. c #B4BBBD",
"j. c gray",
"k. c #BAB5B6",
"l. c #C3BABC",
"z. c #B7BFC3",
"x. c #BAC0C3",
"c. c #C5C4C5",
"v. c #C9C4C5",
"b. c #CBCBCB",
"n. c #CBCFD1",
"m. c #CDD0D1",
"M. c #D3D3D3",
"N. c #D4D9DB",
"B. c #DDDCDC",
"V. c #E4E4E4",
"C. c #ECECEC",
"Z. c #F3F3F3",
"A. c #FFFFFF",
"S. c None",
/* pixels */
"S.S.S.S.S.S.S.S.S.S.S.S.S.S.S.S.S.S.S.S.S.S.S.S.S.S.S.S.S.S.S.S.S.S.S.S.S.S.S.S.S.S.S.S.S.S.S.S.S.S.S.S.S.S.S.S.S.S.S.S.S.S.S.S.",
"S.S.S.S.S.S.S.S.S.S.S.S.S.S.S.S.S.S.S.S.S.S.S.S.S.S.S.S.S.S.S.S.S.S.S.S.S.S.S.S.S.S.S.S.S.S.S.S.S.S.S.S.S.S.S.S.S.S.S.S.S.S.S.S.",
"S.S.S.S.S.S.S.S.S.S.S.S.S.S.S.S.S.S.S.S.S.S.S.S.S.S.S.S.S.S.S.S.S.S.S.S.S.S.S.S.S.S.S.S.S.S.S.S.S.S.S.S.S.S.S.S.S.S.S.S.S.S.S.S.",
"S.S.S.S.S.S.S.S.S.S.S.S.S.S.S.S.S.S.S.S.S.S.S.S.S.S.S.S.S.S.S.S.S.S.S.S.S.S.S.S.S.S.S.S.S.S.S.S.S.S.S.S.S.S.S.S.S.S.S.S.S.S.S.S.",
"S.S.S.S.S.S.S.S.S.S.S.S.S.S.S.S.S.S.S.S.S.S.S.S.S.S.S.S.S.S.S.S.S.S.S.S.S.S.S.S.S.S.S.S.S.S.S.S.S.S.S.S.S.S.S.S.S.S.S.S.S.S.S.S.",
"S.S.S.S.S.S.S.S.S.S.S.S.S.S.S.S.S.S.S.S.S.S.S.S.S.S.S.S.S.S.S.S.S.S.S.S.S.S.S.S.S.S.S.S.S.S.S.S.S.S.S.S.S.S.S.S.S.S.S.S.S.S.S.S.",
"S.S.S.S.S.S.S.S.S.S.S.S.S.S.S.S.S.S.S.S.S.S.S.S.S.S.S.S.S.S.S.S.S.S.S.S.S.S.S.S.S.S.S.S.S.S.S.S.S.S.S.S.S.S.S.S.S.S.S.S.S.S.S.S.",
"S.S.S.S.S.S.S.S.S.S.S.S.S.S.S.S.S.S.S.S.S.S.S.S.S.S.5 e / / / 0 5 S.S.S.S.S.S.S.S.S.S.S.S.S.S.S.S.S.S.S.S.S.S.S.S.S.S.S.S.S.S.S.",
"S.S.S.S.S.S.S.S.S.S.S.S.S.S.S.S.S.S.S.S.S.S.S.w %.-.-.-.-.-.-.-.-.-.| 7 S.S.S.S.S.S.S.S.S.S.S.S.S.S.S.S.S.S.S.S.S.S.S.S.S.S.S.S.",
"S.S.S.S.S.S.S.S.S.S.S.S.S.S.S.S.S.S.S.S.S._ -.-.-.-.-.-.-.-.-.-.-.-.-.x.Z.3.S.S.S.S.S.S.S.S.S.S.S.S.S.S.S.S.S.S.S.S.S.S.S.S.S.S.",
"S.S.S.S.S.S.S.S.S.S.S.S.S.S.S.S.S.S.S.0 =.-.-.-.-.-.-.-.-.-.-.-.-.-.=.c.A.A.M.S.S.S.S.S.S.S.S.S.S.S.S.S.S.S.S.S.S.S.S.S.S.S.S.S.",
"S.S.S.S.S.S.S.S.S.S.S.S.S.S.S.S.S.6 %.-.-.-.-.-.-.-.-.-.-.-.-.-.-.-.-.e.A.A.A.Z.4.S.S.S.S.S.S.S.S.S.S.S.S.S.S.S.S.S.S.S.S.S.S.S.",
"S.S.S.S.S.S.S.S.S.S.S.S.S.S.S.S.8 =.-.-.-.-.-.-.-.-.-.-.-.-.-.-.-.-.-.o.Z.A.A.A.C.g S.S.O n M $ S.S.S.S.S.S.S.S.S.S.S.S.S.S.S.S.",
"S.S.S.S.S.S.S.S.S.S.S.S.S.S.S.e -.-.-.-.-.-.-.-.-.-.-.-.-.-.-.-.-.-.-.=.2.A.A.A.k   o S.M M M M # S.S.S.S.S.S.S.S.S.S.S.S.S.S.S.",
"S.S.S.S.S.S.S.S.S.S.S.S.S.S.e -.-.-.-.-.-.-.-.-.-.-.-.-.-.-.-.-...+.y.b.V.c.C.A.B.X i.+ M M M M $ S.S.S.S.S.S.S.S.S.S.S.S.S.S.S.",
"S.S.S.S.S.S.S.S.S.S.S.S.S.5 -.-.-.-.-.-.-.-.-.-.-.-.-.-.-.-.-.+.h.b.b.b.Z.A.V.m.Z.V.3.v.v M M M # S.S.S.S.S.S.S.S.S.S.S.S.S.S.S.",
"S.S.S.S.S.S.S.S.S.S.S.S.S.%.-.-.-.-.-.-.-.-.-.-.-.-.-.-.-.=.#.Z.A.A.A.Z.b.j.j.B.b.j.C.A.7.c M @ S.S.S.S.S.S.S.S.S.S.S.S.S.S.S.S.",
"S.S.S.S.S.S.S.S.S.S.S.S.9 =.-.-.-.-.-.-.-.-.-.-.-.-.-.-.-.w.A.A.A.A.A.A.A.A.A.V.C.A.A.A.Z.y S.S.S.S.S.S.S.S.S.S.S.S.S.S.S.S.S.S.",
"S.S.S.S.S.S.S.S.S.S.S.S.=.-.-.-.-.-.-.-.-.-.-.-.-.-.-.-.@.A.A.A.A.A.A.A.A.A.A.A.A.A.A.A.A.j.3.p.S.S.S.S.S.S.S.S.S.S.S.S.S.S.S.S.",
"S.S.S.S.S.S.S.S.S.S.S.8 -.-.-.-.-.-.-.-.-.-.-.-.-.-.-...N.A.M.j.c.j.j.j.c.j.j.B.A.A.A.A.A.A.A.A.A.h S.S.S.S.S.S.S.S.S.S.S.S.S.S.",
"S.S.S.S.S.S.S.S.S.S.S.r -.-.-.-.-.-.-.-.-.-.-.-.-.-.-.>.A.A.A.A.A.A.A.A.A.A.A.A.A.A.A.A.A.A.A.A.A.i.S.S.S.S.S.S.S.S.S.S.S.S.S.S.",
"S.S.S.S.S.S.S.S.S.S.S...-.-.-.-.-.-.-.-.-.-.-.-.-.-.%.m.A.A.A.A.A.A.A.Z.M.c.c.A.A.A.A.A.A.A.A.A.A.i.S.S.S.S.S.S.S.S.S.S.S.S.S.S.",
"S.S.S.S.S.S.S.S.S.S.S.-.-.-.-.-.-.-.-.-.-.-.-.-.-.-.] A.A.A.A.A.A.V.1.a b.A.A.A.A.A.A.A.A.A.A.A.A.<.S.S.S.S.S.S.S.S.S.S.S.S.S.S.",
"S.S.S.S.S.S.S.S.S.S.S.-.-.-.-.-.-.-.-.-.-.-.-.-.-.-.9.A.A.A.C.c.c.g.A F Z C U 7.l.B.A.A.A.A.A.A.N.S.S.S.S.S.S.S.S.S.S.S.S.S.S.S.",
"S.S.S.S.S.S.S.S.S.S.S.-.-.-.-.-.-.-.-.-.-.-.-.-.-.*.c.A.A.A.A.A.A.C.B F F F F D % c b G j i.p.i.S.S.S.S.S.S.S.S.S.S.S.S.S.S.S.S.",
"S.S.S.S.S.S.S.S.S.S.S.-.-.-.-.-.-.-.-.-.-.-.-.-.-.{ Z.A.A.A.A.A.A.A.5.F F F F F F % M n S.S.S.S.S.S.S.S.S.S.S.S.S.S.S.S.S.S.S.S.",
"S.S.S.S.S.S.S.S.S.S.S.-.-.-.-.-.-.-.-.-.-.-.-.-.=.} A.A.A.A.A.A.A.A.B.A F F F F F S x @ S.S.S.S.S.S.S.S.S.S.S.S.S.S.S.S.S.S.S.S.",
"S.S.S.S.S.S.S.S.S.S.S.*.-.-.-.-.-.-.-.-.-.-.-.-.-.X.A.A.A.A.A.A.A.A.A.8.D F F F F F N S.S.S.S.S.S.S.S.S.S.S.S.S.S.S.S.S.S.S.S.S.",
"S.S.S.S.S.S.S.S.S.S.S.` -.-.-.-.-.-.-.-.-.-.-.-.-.X.A.A.A.A.A.A.A.A.A.A.J F F F F F S S.S.S.S.S.S.S.S.S.S.S.S.S.S.S.S.S.S.S.S.S.",
"S.S.S.S.S.S.S.S.S.S.S.e -.-.-.-.-.-.-.-.-.-.-.-.=.' A.A.A.A.A.A.A.A.A.A.V.C F F F F F S.S.S.S.S.S.S.S.S.S.S.S.S.S.S.S.S.S.S.S.S.",
"S.S.S.S.S.S.S.S.S.S.S.5 -.-.-.-.-.-.-.-.-.-.-.-.-.| B.A.A.A.A.A.A.A.A.A.A.V.J D F F F S.S.S.S.S.S.S.S.S.S.S.S.S.S.S.S.S.S.S.S.S.",
"S.S.S.S.S.S.S.S.S.S.S.S.&.=.-.-.-.-.-.-.-.-.-.-.-.-.a.A.A.A.A.A.A.A.A.A.A.A.C.I S F B S.S.S.S.S.S.S.S.S.S.S.S.S.S.S.S.S.S.S.S.S.",
"S.S.S.S.S.S.S.S.S.S.S.S.9 -.-.-.-.-.-.-.-.-.-.-.-.-.O.A.A.A.A.A.A.A.A.A.A.A.A.A.c.P p S.S.S.S.S.S.S.S.S.S.S.S.S.S.S.S.S.S.S.S.S.",
"S.S.S.S.S.S.S.S.S.S.S.S.S.%.-.-.-.-.-.-.-.-.-.-.-.=.} N.A.A.A.A.A.A.A.A.A.A.A.A.A.A.A.C.S.S.S.S.S.S.S.S.S.S.S.S.S.S.S.S.S.S.S.S.",
"S.S.S.S.S.S.S.S.S.<.B.A.V.#.=.-.-.-.-.-.-.-.-.-.-.-.-.#.A.A.A.A.A.A.A.A.A.A.A.A.A.A.A.k S.S.S.S.S.S.S.S.S.S.S.S.S.S.S.S.S.S.S.S.",
"S.S.S.S.S.S.S.S.S.A.A.A.A.A.:.=.-.-.-.-.-.-.-.-.-.-.-.| n.A.A.A.A.A.A.A.A.A.A.A.A.A.i.S.S.S.S.S.S.S.S.S.S.S.S.S.S.S.S.S.S.S.S.S.",
"S.S.S.S.S.S.S.S.p.A.A.A.A.A.f.` ` ` ` =.-.-.-.-.-.-.-.-.] C.A.A.A.A.A.A.A.A.Z.M.l.s.S.S.S.S.S.S.S.S.S.S.S.S.S.S.S.S.S.S.S.S.S.S.",
"S.S.S.S.S.S.S.S.p.A.A.A.A.A.z.=.=.-.*.` _ _ =.-.-.-.-.-.=.] g.b.k.q.5.L G v c n m l ; ; * S.S.S.S.S.S.S.S.S.S.S.S.S.S.S.S.S.S.S.",
"S.S.S.S.S.S.S.S.3.A.A.A.A.A.u.-.-.-.-.-.-.=.r r ( f d u < 1 c M M M M M M M n x & : Y ^ z S.S.S.S.S.S.S.S.S.S.S.S.S.S.S.S.S.S.S.",
"S.S.S.S.S.S.S.S.S.g.A.A.A.n.*.-.-.-.-.-.-.-.-.=.{ s x M M M m x 2 H U 6.s.l.M.Z.= E ^ T z S.S.S.S.S.S.S.S.S.S.S.S.S.S.S.S.S.S.S.",
"S.S.S.S.S.S.S.S.S.S.S.3.S.S.` -.-.-.-.-.-.-.-.-.-.-.&.f ) ` ..=.t.A.A.A.A.A.A.A.! ~ ^ ^ R S.S.S.S.S.S.S.S.S.S.S.S.S.S.S.S.S.S.S.",
"S.S.S.S.S.S.S.S.S.S.S.S.S.S.S./ -.-.-.-.-.-.-.-.-.-.-.-.-.-.-...V.A.A.A.A.A.A.A.Z.W E Y S.S.S.S.S.S.,.b.j.g S.S.S.S.S.S.S.S.S.S.",
"S.S.S.S.S.S.S.S.S.S.S.S.S.S.S.S.5 %.-.-.-.-.-.-.-.-.-.-.-.-.-.} A.A.A.A.A.A.A.A.A.Z.M.V.S.S.S.S.S.<.A.A.A.A.,.S.S.S.S.S.S.S.S.S.",
"S.S.S.S.S.S.S.S.S.S.S.S.S.S.S.S.S.S.e =.-.-.-.-.-.-.-.-.-.-.-.O.A.A.A.A.A.Z.M.b.b.b.b.b.k S.S.S.S.Z.A.A.A.A.A.S.S.S.S.S.S.S.S.S.",
"S.S.S.S.S.S.S.S.S.S.S.S.S.S.S.S.S.S.S.. { -.-.-.-.-.-.-.-.-.=. .A.A.N.l.z.b.Z.A.A.A.A.A.b.&.-.-.@.A.A.A.A.A.A.3.S.S.S.S.S.S.S.S.",
"S.S.S.S.S.S.S.S.S.S.S.S.S.S.S.S.S.S.S.S.S.5 ..-.-.-.-.-.-.-.-...C.A.b.A.A.A.A.A.A.A.A.A.C.| -.-.e.A.A.A.A.A.A.g.S.S.S.S.S.S.S.S.",
"S.S.S.S.S.S.S.S.S.S.S.S.S.S.S.S.S.S.S.S.S.S...-.-.-.-.-.-.-.-.-.f.A.B.C.A.A.A.A.A.A.A.A.A.` =.-.h.A.A.A.A.A.A.N.S.S.S.S.S.S.S.S.",
"S.S.S.S.S.S.S.S.S.S.S.S.S.S.S.S.@ x $ S.S.q -.-.-.-.-.-.-.-.-.-.o.Z.A.j.A.A.A.A.A.A.A.A.M.` -.-.z.A.A.A.A.A.A.V.S.S.S.S.S.S.S.S.",
"S.S.S.S.S.S.S.S.S.S.S.S.S.S.S.S.M M M @ S.e -.-.-.-.-.-.-.-.-.-.-.:.A.Z.g.A.A.A.A.A.A.c.V.{ -.-.z.A.A.A.A.A.A.B.S.S.S.S.S.S.S.S.",
"S.S.S.S.S.S.S.S.S.S.S.S.S.S.S.S.n n K v.Z.+.-.-.-.-.-.-.-.-.-.-.-.-.0.Z.Z.c.b.b.b.c.b.A.c.&.-.-.h.A.A.A.A.A.A.c.S.S.S.S.S.S.S.S.",
"S.S.S.S.S.S.S.S.S.S.S.S.S.S.S.S.@ 5.A.A.A.:.-.-.-.-.-.-.-.-.-.-.-.-.-.;.N.A.A.A.A.A.Z.e.} -.-.-.d.A.A.A.A.A.A.p.S.S.S.S.S.S.S.S.",
"S.S.S.S.S.S.S.S.S.S.S.S.S.S.S.S.i A.A.A.A.>.-.-.-.-.-.-.-.-.-.-.-.-.-.-.*.;.y.r.r.2.' -.-.-.-.-.0.A.A.A.A.A.A.,.S.S.S.S.S.S.S.S.",
"S.S.S.S.S.S.S.S.S.S.S.S.S.S.S.S.V.A.A.A.A.0.-.-.-.-.-.-.-.-.-.-.-.-.-.-.-.-.-.-.-.-.-.-.-.-.-.-.] Z.A.A.A.A.C.S.S.S.S.S.S.S.S.S.",
"S.S.S.S.S.S.S.S.S.S.S.S.S.S.S.3.A.A.A.A.A.[ -.-.-.-.-.-.-.-.-.-.-.-.-.-.-.-.-.-.-.-.-.-.-.-.-.-.=.e.A.A.A.C.i S.S.S.S.S.S.S.S.S.",
"S.S.S.S.S.S.S.S.S.S.S.S.S.S.S.k.A.A.A.A.C.} -.-.-.-.-.-.-.-.-.-.-.-.-.-.-.-.-.-.-.-.%.e q 5 3 S.S.S.g i.3.S.S.S.S.S.S.S.S.S.S.S.",
"S.S.S.S.S.S.S.S.S.S.S.S.S.S.S.C.A.A.A.A.M.=.-.-.-.-.-.-.-.-.-.-.-.-.-.-.-.-.=.r 9 S.S.S.S.S.S.S.S.S.S.S.S.S.S.S.S.S.S.S.S.S.S.S.",
"S.S.S.S.S.S.S.S.S.S.S.S.S.S.S.A.A.A.A.A.M.*.-.-.-.-.-.-.-.-.-.-.-.-.-.-.r 5 S.S.S.S.S.S.S.S.S.S.S.S.S.S.S.S.S.S.S.S.S.S.S.S.S.S.",
"S.S.S.S.S.S.S.S.S.S.S.S.S.S.S.A.A.A.A.A.Z.{ -.-.-.-.-.-.-.-.-.-.-.-.r S.S.S.S.S.S.S.S.S.S.S.S.S.S.S.S.S.S.S.S.S.S.S.S.S.S.S.S.S.",
"S.S.S.S.S.S.S.S.S.S.S.S.S.S.S.C.A.A.A.A.A.>.=.-.-.-.-.-.-.-.-.&.q S.S.S.S.S.S.S.S.S.S.S.S.S.S.S.S.S.S.S.S.S.S.S.S.S.S.S.S.S.S.S.",
"S.S.S.S.S.S.S.S.S.S.S.S.S.S.S.p.A.A.A.A.A.,.q *.-.-.-.-...r 4 S.S.S.S.S.S.S.S.S.S.S.S.S.S.S.S.S.S.S.S.S.S.S.S.S.S.S.S.S.S.S.S.S.",
"S.S.S.S.S.S.S.S.S.S.S.S.S.S.S.S.Z.A.A.A.j.S.S.S., > > S.S.S.S.S.S.S.S.S.S.S.S.S.S.S.S.S.S.S.S.S.S.S.S.S.S.S.S.S.S.S.S.S.S.S.S.S.",
"S.S.S.S.S.S.S.S.S.S.S.S.S.S.S.S.S.p.b.k.S.S.S.S.S.S.S.S.S.S.S.S.S.S.S.S.S.S.S.S.S.S.S.S.S.S.S.S.S.S.S.S.S.S.S.S.S.S.S.S.S.S.S.S.",
"S.S.S.S.S.S.S.S.S.S.S.S.S.S.S.S.S.S.S.S.S.S.S.S.S.S.S.S.S.S.S.S.S.S.S.S.S.S.S.S.S.S.S.S.S.S.S.S.S.S.S.S.S.S.S.S.S.S.S.S.S.S.S.S.",
"S.S.S.S.S.S.S.S.S.S.S.S.S.S.S.S.S.S.S.S.S.S.S.S.S.S.S.S.S.S.S.S.S.S.S.S.S.S.S.S.S.S.S.S.S.S.S.S.S.S.S.S.S.S.S.S.S.S.S.S.S.S.S.S."
};
