/* XPM */
static char *result[] = {
/* columns rows colors chars-per-pixel */
"64 64 156 2 ",
"   c gray6",
".  c #1B2F38",
"X  c #2F2F2F",
"o  c gray14",
"O  c #491B24",
"+  c #5E373F",
"@  c #662532",
"#  c #6C2836",
"$  c #742B3A",
"%  c #7E393E",
"&  c #47412F",
"*  c #5F452E",
"=  c #5C502C",
"-  c #6F6138",
";  c #776739",
":  c #786839",
">  c #706135",
",  c #6A3B4C",
"<  c #783141",
"1  c #783B4D",
"2  c #274552",
"3  c #2B4B5B",
"4  c #344A55",
"5  c #2F5263",
"6  c #315566",
"7  c #325768",
"8  c #355B6E",
"9  c #365E71",
"0  c #376073",
"q  c #386276",
"w  c #3A667A",
"e  c #3C6A7F",
"r  c gray27",
"t  c #5D4B5E",
"y  c #5F5F5F",
"u  c #70504F",
"i  c #6E5958",
"p  c #5C4D60",
"a  c #415B67",
"s  c #51576B",
"d  c #765D62",
"f  c #466376",
"g  c #666666",
"h  c #6C6C6C",
"j  c #776266",
"k  c gray45",
"l  c #7A7A7A",
"z  c #82673E",
"x  c #86743E",
"c  c #843344",
"v  c #8D3446",
"b  c #8B3D4C",
"n  c #873A4A",
"m  c #923649",
"M  c #953A4A",
"N  c #9C3A4E",
"B  c #A43D52",
"V  c #874042",
"C  c #964B48",
"Z  c #9C524F",
"A  c #965A58",
"S  c #A0504D",
"D  c #A55452",
"F  c #AB5552",
"G  c #B25956",
"H  c #B65B58",
"J  c #945663",
"K  c #975A67",
"L  c #966463",
"P  c #97656F",
"I  c #9F6E78",
"U  c #9B7776",
"Y  c #A4787C",
"T  c #A28D4E",
"R  c #AD9552",
"E  c #B79E57",
"W  c #BBA259",
"Q  c #A4956B",
"!  c #A8817F",
"~  c #ADA17F",
"^  c #C0A65C",
"/  c #C2A85D",
"(  c #3E6D82",
")  c #406F85",
"_  c #4B6980",
"`  c #407086",
"'  c #43748B",
"]  c #47788F",
"[  c #4C768A",
"{  c #547B8D",
"}  c #5A7D8D",
"|  c #457991",
" . c #497C94",
".. c #497F99",
"X. c #557F92",
"o. c #627E8A",
"O. c #4B839D",
"+. c #578297",
"@. c #63818F",
"#. c #778389",
"$. c #658593",
"%. c #678897",
"&. c #6D8C9A",
"*. c #6A8896",
"=. c #758E9A",
"-. c #7C929C",
";. c #4D87A2",
":. c #4F89A5",
">. c #518AA6",
",. c #518DAA",
"<. c #5390AD",
"1. c #7C96A2",
"2. c #7394A3",
"3. c #838383",
"4. c #8B8B8B",
"5. c #908181",
"6. c #80959F",
"7. c #949494",
"8. c #9F9F9F",
"9. c #A8888E",
"0. c #AE8B92",
"q. c #A99899",
"w. c #B4A09F",
"e. c #889FA9",
"r. c #B59CA1",
"t. c #8DA1AA",
"y. c #96A6AD",
"u. c #9CACB4",
"i. c #93A9B4",
"p. c #A4A4A4",
"a. c #ABABAB",
"s. c #A3ABAE",
"d. c #B5A5A8",
"f. c #B9A4A8",
"g. c #A7AEB2",
"h. c #AAB4B9",
"j. c #B3B3B3",
"k. c #B5BBBE",
"l. c #BEBEBE",
"z. c #BAB5B6",
"x. c #C3BABB",
"c. c #B7BFC3",
"v. c #BBC1C3",
"b. c #C4C4C4",
"n. c #CBCBCB",
"m. c #C6C6C8",
"M. c #CBCFD1",
"N. c #CDD0D1",
"B. c #D3D3D3",
"V. c #DDDCDC",
"C. c #D7DADB",
"Z. c #E4E4E4",
"A. c #EDEDED",
"S. c #F4F4F4",
"D. c #FFFFFF",
"F. c None",
/* pixels */
"F.F.F.F.F.F.F.F.F.F.F.F.F.F.F.F.F.F.F.F.F.F.F.F.F.F.F.F.F.F.F.F.F.F.F.F.F.F.F.F.F.F.F.F.F.F.F.F.F.F.F.F.F.F.F.F.F.F.F.F.F.F.F.F.",
"F.F.F.F.F.F.F.F.F.F.F.F.F.F.F.F.F.F.F.F.F.F.F.F.F.F.F.F.F.F.F.F.F.F.F.F.F.F.F.F.F.F.F.F.F.F.F.F.F.F.F.F.F.F.F.F.F.F.F.F.F.F.F.F.",
"F.F.F.F.F.F.F.F.F.F.F.F.F.F.F.F.F.F.F.F.F.F.F.F.F.F.F.F.F.F.F.F.F.F.F.F.F.F.F.F.F.F.F.F.F.F.F.F.F.F.F.F.F.F.F.F.F.F.F.F.F.F.F.F.",
"F.F.F.F.F.F.F.F.F.F.F.F.F.F.F.F.F.F.F.F.F.F.F.F.F.F.F.F.F.F.F.F.F.F.F.F.F.F.F.F.F.F.F.F.F.F.F.F.F.F.F.F.F.F.F.F.F.F.F.F.F.F.F.F.",
"F.F.F.F.F.F.F.F.F.F.F.F.F.F.F.F.F.F.F.F.F.F.F.F.F.F.F.F.F.F.F.F.F.F.F.F.F.F.F.F.F.F.F.F.F.F.F.F.F.F.F.F.F.F.F.F.F.F.F.F.F.F.F.F.",
"F.F.F.F.F.F.F.F.F.F.F.F.F.F.F.F.F.F.F.F.F.F.F.F.F.F.F.F.F.F.F.F.F.F.F.F.F.F.F.F.F.F.F.F.F.F.F.F.F.F.F.F.F.F.F.F.F.F.F.F.F.F.F.F.",
"F.F.F.F.F.F.F.F.F.F.F.F.F.F.F.F.F.F.F.F.F.F.F.F.F.F.F.F.F.F.F.F.F.F.F.F.F.F.F.F.F.F.F.F.F.F.F.F.F.F.F.F.F.F.F.F.F.F.F.F.F.F.F.F.",
"F.F.F.F.F.F.F.F.F.F.F.F.F.F.F.F.F.F.F.F.F.F.F.F.F.F.3 w ( ( ( 8 3 F.F.F.F.F.F.F.F.F.F.F.F.F.F.F.F.F.F.F.F.F.F.F.F.F.F.F.F.F.F.F.",
"F.F.F.F.F.F.F.F.F.F.F.F.F.F.F.F.F.F.F.F.F.F.F.9 ;.<.<.<.<.<.<.<.<.<...4 F.F.F.F.F.F.F.F.F.F.F.F.F.F.F.F.F.F.F.F.F.F.F.F.F.F.F.F.",
"F.F.F.F.F.F.F.F.F.F.F.F.F.F.F.F.F.F.F.F.F.` <.<.<.<.<.<.<.<.<.<.<.<.<.v.S.7.F.F.F.F.F.F.F.F.F.F.F.F.F.F.F.F.F.F.F.F.F.F.F.F.F.F.",
"F.F.F.F.F.F.F.F.F.F.F.F.F.F.F.F.F.F.F.8 ,.<.<.<.<.<.<.<.<.<.<.<.<.<.,.b.D.D.B.F.F.F.F.F.F.F.F.F.F.F.F.F.F.F.F.F.F.F.F.F.F.F.F.F.",
"F.F.F.F.F.F.F.F.F.F.F.F.F.F.F.F.F.2 ;.<.,.<.<.<.<.<.<.<.<.<.<.<.<.<.<.y.D.D.D.S.8.F.F.F.F.F.F.F.F.F.F.F.F.F.F.F.F.F.F.F.F.F.F.F.",
"F.F.F.F.F.F.F.F.F.F.F.F.F.F.F.F.5 <.<.<.<.<.<.<.<.<.<.<.<.<.<.<.<.<.<.+.S.D.D.D.A.h F.F.O N B $ F.F.F.F.F.F.F.F.F.F.F.F.F.F.F.F.",
"F.F.F.F.F.F.F.F.F.F.F.F.F.F.F.q <.<.<.<.<.<.<.<.<.<.<.<.<.<.<.<.<.<.,.,.-.D.D.D.l   o F.B B B B # F.F.F.F.F.F.F.F.F.F.F.F.F.F.F.",
"F.F.F.F.F.F.F.F.F.F.F.F.F.F.q <.<.<.<.<.<.<.<.<.<.<.<.<.<.<.<.<.O.%.u.n.Z.m.A.D.V.X p.+ B B B B $ F.F.F.F.F.F.F.F.F.F.F.F.F.F.F.",
"F.F.F.F.F.F.F.F.F.F.F.F.F.3 <.<.<.<.<.<.<.<.<.<.<.<.<.<.<.<.<.%.k.n.n.n.S.D.Z.B.S.Z.7.m.b B B B # F.F.F.F.F.F.F.F.F.F.F.F.F.F.F.",
"F.F.F.F.F.F.F.F.F.F.F.F.F.;.<.<.<.<.<.<.<.<.<.<.<.<.<.<.<.<.-.S.D.D.D.D.n.l.l.V.n.l.A.D.q.v B @ F.F.F.F.F.F.F.F.F.F.F.F.F.F.F.F.",
"F.F.F.F.F.F.F.F.F.F.F.F.7 ,.<.<.<.<.<.<.<.<.<.<.<.<.<.<.<.t.D.D.D.D.D.D.D.D.D.Z.A.D.D.D.S.r F.F.F.F.F.F.F.F.F.F.F.F.F.F.F.F.F.F.",
"F.F.F.F.F.F.F.F.F.F.F.F.,.<.<.<.<.<.<.<.<.<.<.<.<.<.<.<.&.D.D.D.D.D.D.D.D.D.D.D.D.D.D.D.D.l.7.a.F.F.F.F.F.F.F.F.F.F.F.F.F.F.F.F.",
"F.F.F.F.F.F.F.F.F.F.F.5 ,.<.<.<.<.<.<.<.<.<.<.<.<.<.<.O.C.D.B.l.l.l.l.l.b.l.l.V.D.D.D.D.D.D.D.D.D.g F.F.F.F.F.F.F.F.F.F.F.F.F.F.",
"F.F.F.F.F.F.F.F.F.F.F.w <.<.<.<.<.<.<.<.<.<.<.<.<.<.<.1.D.D.D.D.D.D.D.D.D.D.D.D.D.D.D.D.D.D.D.D.D.p.F.F.F.F.F.F.F.F.F.F.F.F.F.F.",
"F.F.F.F.F.F.F.F.F.F.F.O.<.<.<.<.<.<.<.<.<.<.<.<.<.<.>.n.D.D.D.D.D.D.D.D.B.b.b.D.D.D.D.D.D.D.D.D.D.p.F.F.F.F.F.F.F.F.F.F.F.F.F.F.",
"F.F.F.F.F.F.F.F.F.F.F.<.<.<.<.<.<.<.<.<.<.<.<.<.<.<.{ D.D.D.D.D.D.Z.5.i n.D.D.D.D.D.D.D.D.D.D.D.D.4.F.F.F.F.F.F.F.F.F.F.F.F.F.F.",
"F.F.F.F.F.F.F.F.F.F.F.<.<.<.<.<.<.<.<.<.<.<.<.<.<.,.t.D.D.D.A.b.b.j.D H D A Y q.x.V.D.D.D.D.D.D.C.F.F.F.F.F.F.F.F.F.F.F.F.F.F.F.",
"F.F.F.F.F.F.F.F.F.F.F.<.<.<.<.<.<.<.<.<.<.<.<.<.<.,.b.D.D.D.D.D.D.A.Z H H H H G % v n J j 8.a.p.F.F.F.F.F.F.F.F.F.F.F.F.F.F.F.F.",
"F.F.F.F.F.F.F.F.F.F.F.<.<.<.<.<.<.<.<.<.<.<.<.<.<.| S.D.D.D.D.D.D.D.! H H H H H H % B N F.F.F.F.F.F.F.F.F.F.F.F.F.F.F.F.F.F.F.F.",
"F.F.F.F.F.F.F.F.F.F.F.<.<.<.<.<.<.<.<.<.<.<.<.<.<.{ D.D.D.D.D.D.D.D.V.D H H H H H F c @ F.F.F.F.F.F.F.F.F.F.F.F.F.F.F.F.F.F.F.F.",
"F.F.F.F.F.F.F.F.F.F.F.>.<.<.<.<.<.<.<.<.<.<.<.<.<.+.D.D.D.D.D.D.D.D.D.w.G H H H H H V F.F.F.F.F.F.F.F.F.F.F.F.F.F.F.F.F.F.F.F.F.",
"F.F.F.F.F.F.F.F.F.F.F.' <.<.<.<.<.<.<.<.<.<.<.<.<.X.D.D.D.D.D.D.D.D.D.D.L H H H H H F F.F.F.F.F.F.F.F.F.F.F.F.F.F.F.F.F.F.F.F.F.",
"F.F.F.F.F.F.F.F.F.F.F.0 <.<.<.<.<.<.<.<.<.<.<.<.<.] D.D.D.D.D.D.D.D.D.D.Z.A H H H H H F.F.F.F.F.F.F.F.F.F.F.F.F.F.F.F.F.F.F.F.F.",
"F.F.F.F.F.F.F.F.F.F.F.3 <.<.<.<.<.<.<.<.<.<.<.<.<...V.D.D.D.D.D.D.D.D.D.D.Z.L H H H G F.F.F.F.F.F.F.F.F.F.F.F.F.F.F.F.F.F.F.F.F.",
"F.F.F.F.F.F.F.F.F.F.F.F.:.,.<.<.<.<.<.<.<.<.<.<.<.<.s.D.D.D.D.D.D.D.D.D.D.D.A.U F H C F.F.F.F.F.F.F.F.F.F.F.F.F.F.F.F.F.F.F.F.F.",
"F.F.F.F.F.F.F.F.F.F.F.F.5 <.<.<.<.<.<.<.<.<.<.<.<.<.@.D.D.D.D.D.D.D.D.D.D.D.D.D.b.U u F.F.F.F.F.F.F.F.F.F.F.F.F.F.F.F.F.F.F.F.F.",
"F.F.F.F.F.F.F.F.F.F.F.F.F.;.<.<.<.<.<.<.<.<.<.<.<.<. .C.D.D.D.D.D.D.D.D.D.D.D.D.D.D.D.A.F.F.F.F.F.F.F.F.F.F.F.F.F.F.F.F.F.F.F.F.",
"F.F.F.F.F.F.F.F.F.4.V.D.Z.-.,.,.<.<.<.<.<.<.<.<.<.<.<.-.D.D.D.D.D.D.D.D.D.D.D.D.D.D.D.l F.F.F.F.F.F.F.F.F.F.F.F.F.F.F.F.F.F.F.F.",
"F.F.F.F.F.F.F.F.F.D.D.D.D.D.2.<.<.<.<.<.<.<.<.<.<.<.<...M.D.D.D.D.D.D.D.D.D.D.D.D.D.p.F.F.F.F.F.F.F.F.F.F.F.F.F.F.F.F.F.F.F.F.F.",
"F.F.F.F.F.F.F.F.a.D.D.D.D.D.g.' ' ' ' ,.<.<.<.<.<.<.<.<.X.Z.D.D.D.D.D.D.D.D.S.B.x.d.F.F.F.F.F.F.F.F.F.F.F.F.F.F.F.F.F.F.F.F.F.F.",
"F.F.F.F.F.F.F.F.a.D.D.D.D.D.v.<.<.<.:.' ( ) ,.<.<.<.<.<.<.X.z.n.z.r.9.I J b v N M z : : = F.F.F.F.F.F.F.F.F.F.F.F.F.F.F.F.F.F.F.",
"F.F.F.F.F.F.F.F.7.D.D.D.D.D.i.<.<.<.,.<.<.,.e w ` f s t , < m N B B B B B B N c * - T ^ x F.F.F.F.F.F.F.F.F.F.F.F.F.F.F.F.F.F.F.",
"F.F.F.F.F.F.F.F.F.j.D.D.D.M.>.<.<.<.<.<.<.<.<.,. .t c B B B m c 1 , Y 0.f.x.B.S.- W / R x F.F.F.F.F.F.F.F.F.F.F.F.F.F.F.F.F.F.F.",
"F.F.F.F.F.F.F.F.F.F.F.7.F.F.] ,.<.<.<.<.<.<.<.<.<.<.,.f _ | O.,.,.} D.D.D.D.D.D.~ ^ ^ / W F.F.F.F.F.F.F.F.F.F.F.F.F.F.F.F.F.F.F.",
"F.F.F.F.F.F.F.F.F.F.F.F.F.F.F.( <.<.<.<.<.<.<.<.<.<.<.<.<.<.<.<.,.-.D.D.D.D.D.D.S.Q ^ T & F.F.F.F.F.F.F.F.F.F.F.F.F.F.F.F.F.F.F.",
"F.F.F.F.F.F.F.F.F.F.F.F.F.F.F.F.3 ;.<.<.<.<.<.<.<.<.<.<.<.<.<.<.,.1.D.D.D.D.D.D.D.D.N.C.g F.F.! n.B.7.F.F.F.F.F.F.F.F.F.F.F.F.F.",
"F.F.F.F.F.F.F.F.F.F.F.F.F.F.F.F.F.F.0 ,.<.<.<.<.<.<.<.<.<.<.<.<.,.*.D.D.D.D.n.n.m.n.m.N.7.F.s.D.D.D.D.7.F.F.F.F.F.F.F.F.F.F.F.F.",
"F.F.F.F.F.F.F.F.F.F.F.F.F.F.F.F.F.F.F.. | <.<.<.<.<.<.<.<.<.<.<.<.[ S.D.D.D.n.D.D.D.D.D.q.F.D.D.D.D.D.S.F.F.F.F.F.F.F.F.F.F.F.F.",
"F.F.F.F.F.F.F.F.F.F.F.F.F.F.F.F.F.F.F.F.F.5 O.<.<.<.<.<.<.<.<.<.<.,.c.D.D.D.n.S.B.n.B.S.y.p.D.D.D.D.D.D.k F.F.F.F.F.F.F.F.F.F.F.",
"F.F.F.F.F.F.F.F.F.F.F.F.F.F.F.F.F.F.F.F.F.9 ..<.<.<.<.<.<.<.<.<.<.<.&.D.D.m.o.] >.<.,.] a A.D.D.D.D.D.D.p.F.F.F.F.F.F.F.F.F.F.F.",
"F.F.F.F.F.F.F.F.F.F.F.F.F.F.F.F.F.F.F.F.F.q <.<.<.<.<.<.<.<.<.<.<.<.:.g.=.;.<.<.,.<.<.<.} D.D.D.D.D.D.D.a.F.F.F.F.F.F.F.F.F.F.F.",
"F.F.F.F.F.F.F.F.F.F.F.F.F.F.F.F.F.F.F.F.7.f <.<.<.<.<.<.<.<.<.<.<.<.<.( <.<.<.<.<.<.<.<.&.D.D.D.D.D.D.D.j.F.F.F.F.F.F.F.F.F.F.F.",
"F.F.F.F.F.F.F.F.F.F.F.F.F.F.F.F.m B M d.D.t.<.<.<.<.<.<.<.<.<.<.<.<.<.<.<.<.<.<.<.<.<.<.=.D.D.D.D.D.D.D.j.F.F.F.F.F.F.F.F.F.F.F.",
"F.F.F.F.F.F.F.F.F.F.F.F.F.F.F.# B B B P D.c.,.<.<.<.<.<.<.<.<.<.<.<.<.<.<.<.<.<.<.<.<.<.*.D.D.D.D.D.D.D.p.F.F.F.F.F.F.F.F.F.F.F.",
"F.F.F.F.F.F.F.F.F.F.F.F.F.F.F.F.B B B d S.V.;.<.<.<.<.<.<.<.<.<.<.<.<.<.<.<.<.<.<.<.<.,.[ D.D.D.D.D.D.D.j.F.F.F.F.F.F.F.F.F.F.F.",
"F.F.F.F.F.F.F.F.F.F.F.F.F.F.F.F.9.K 0.S.b.b.q <.<.<.<.<.<.<.<.<.<.<.<.<.<.<.<.<.<.<.<.<...V.D.D.D.D.D.D.7.F.F.F.F.F.F.F.F.F.F.F.",
"F.F.F.F.F.F.F.F.F.F.F.F.F.F.F.4.D.D.D.D.D.n.( :.<.<.<.<.<.<.<.<.<.<.<.<.<.<.<.<.<.<.<.<.<.y.D.D.D.D.D.D.F.F.F.F.F.F.F.F.F.F.F.F.",
"F.F.F.F.F.F.F.F.F.F.F.F.F.F.F.l.D.D.D.D.D.h.<.w <.<.<.<.<.<.<.<.<.<.<.<.<.<.<.<.<.<.<.<.<.{ S.D.D.D.D.C.F.F.F.F.F.F.F.F.F.F.F.F.",
"F.F.F.F.F.F.F.F.F.F.F.F.F.F.F.n.D.D.D.D.D.u.<.>.( <.<.<.<.<.<.<.<.<.<.<.<.<.<.<.<.<.<.<.<.O.#.D.D.D.D.y F.F.F.F.F.F.F.F.F.F.F.F.",
"F.F.F.F.F.F.F.F.F.F.F.F.F.F.F.l.D.D.D.D.D.u.,.<.,.' >.<.<.<.<.<.<.<.<.<.<.<.,.| w q 7 F.F.F.F.F.a.a.k F.F.F.F.F.F.F.F.F.F.F.F.F.",
"F.F.F.F.F.F.F.F.F.F.F.F.F.F.F.a.D.D.D.D.D.k.,.<.<.,.' e ;.<.<.<.>.| w 7 2 F.F.F.F.F.F.F.F.F.F.F.F.F.F.F.F.F.F.F.F.F.F.F.F.F.F.F.",
"F.F.F.F.F.F.F.F.F.F.F.F.F.F.F.3.D.D.D.D.D.S.$.<.<.<.<.<.| 3 F.F.F.F.F.F.F.F.F.F.F.F.F.F.F.F.F.F.F.F.F.F.F.F.F.F.F.F.F.F.F.F.F.F.",
"F.F.F.F.F.F.F.F.F.F.F.F.F.F.F.F.l.D.D.D.D.A.l F.7 9 9 8 F.F.F.F.F.F.F.F.F.F.F.F.F.F.F.F.F.F.F.F.F.F.F.F.F.F.F.F.F.F.F.F.F.F.F.F.",
"F.F.F.F.F.F.F.F.F.F.F.F.F.F.F.F.F.4.l.l.4.F.F.F.F.F.F.F.F.F.F.F.F.F.F.F.F.F.F.F.F.F.F.F.F.F.F.F.F.F.F.F.F.F.F.F.F.F.F.F.F.F.F.F.",
"F.F.F.F.F.F.F.F.F.F.F.F.F.F.F.F.F.F.F.F.F.F.F.F.F.F.F.F.F.F.F.F.F.F.F.F.F.F.F.F.F.F.F.F.F.F.F.F.F.F.F.F.F.F.F.F.F.F.F.F.F.F.F.F.",
"F.F.F.F.F.F.F.F.F.F.F.F.F.F.F.F.F.F.F.F.F.F.F.F.F.F.F.F.F.F.F.F.F.F.F.F.F.F.F.F.F.F.F.F.F.F.F.F.F.F.F.F.F.F.F.F.F.F.F.F.F.F.F.F.",
"F.F.F.F.F.F.F.F.F.F.F.F.F.F.F.F.F.F.F.F.F.F.F.F.F.F.F.F.F.F.F.F.F.F.F.F.F.F.F.F.F.F.F.F.F.F.F.F.F.F.F.F.F.F.F.F.F.F.F.F.F.F.F.F."
};
