/* XPM */
static char *result[] = {
/* columns rows colors chars-per-pixel */
"64 64 159 2 ",
"   c #010101",
".  c #1A2E37",
"X  c #4B1C25",
"o  c #5C222E",
"O  c #522927",
"+  c #433820",
"@  c #5A3733",
"#  c #692735",
"$  c #6C2836",
"%  c #742B3A",
"&  c #782C3C",
"*  c #7B3A3C",
"=  c #5C4F29",
"-  c #634130",
";  c #675931",
":  c #726236",
">  c #1F3742",
",  c #243F4C",
"<  c #773643",
"1  c #25414E",
"2  c #274452",
"3  c #284654",
"4  c #2C4D5C",
"5  c #354D5A",
"6  c #2E5262",
"7  c #305465",
"8  c #345B6D",
"9  c #315668",
"0  c #375F72",
"q  c #3B677B",
"w  c #3C697E",
"e  c #386175",
"r  c #5D4B5E",
"t  c #5B5B5B",
"y  c #555555",
"u  c #6E474F",
"i  c #71434E",
"p  c #614759",
"a  c #726B55",
"s  c #5A4E61",
"d  c #555366",
"f  c #525669",
"g  c #565E73",
"h  c #486572",
"j  c #6C6C6C",
"k  c gray39",
"l  c #67757B",
"z  c #757575",
"x  c #7B7C7C",
"c  c #823E3F",
"v  c #85733F",
"b  c #823141",
"n  c #8C3446",
"m  c #8A3848",
"M  c #863A4A",
"N  c #97384B",
"B  c #9F3B4F",
"V  c #A43D52",
"C  c #8D4644",
"Z  c #944847",
"A  c #92514F",
"S  c #864553",
"D  c #894C58",
"F  c #8C525D",
"G  c #975957",
"H  c #9B5654",
"J  c #AA5552",
"K  c #B15856",
"L  c #B65B58",
"P  c #8E5863",
"I  c #915E68",
"U  c #8E6967",
"Y  c #956C74",
"T  c #A46F6D",
"R  c #A77A78",
"E  c #9B864A",
"W  c #9B8C5F",
"Q  c #BEA45B",
"!  c #AC9F7A",
"~  c #C2A85D",
"^  c #C1A75C",
"/  c #3E6C82",
"(  c #406F85",
")  c #487083",
"_  c #43748B",
"`  c #4F798D",
"'  c #4F7588",
"]  c #5A7C8D",
"[  c #567C8E",
"{  c #467A93",
"}  c #4A7D95",
"|  c #497F98",
" . c #547F93",
".. c #617E8C",
"X. c #4B829C",
"o. c #5B8194",
"O. c #578094",
"+. c #638594",
"@. c #6D8997",
"#. c #63889A",
"$. c #6D8F9F",
"%. c #6A8592",
"&. c #798F98",
"*. c #758C96",
"=. c #7B939E",
"-. c #4E87A2",
";. c #4F89A4",
":. c #508BA7",
">. c #518EAA",
",. c #5390AD",
"<. c #7E95A0",
"1. c #7F98A4",
"2. c #848484",
"3. c #8E8787",
"4. c #8A8B8B",
"5. c #818A8E",
"6. c #998086",
"7. c #84959C",
"8. c #949494",
"9. c #9C9C9C",
"0. c #9C9294",
"q. c #A38280",
"w. c #A18D8D",
"e. c #AB9E9E",
"r. c #B39E9D",
"t. c #B0A78D",
"y. c #8299A4",
"u. c #8C9CA4",
"i. c #959FA3",
"p. c #B59BA0",
"a. c #8CA2AD",
"s. c #99A5AB",
"d. c #9FAAAF",
"f. c gray64",
"g. c #AAAAAA",
"h. c #A3ABAF",
"j. c #BBA9AA",
"k. c #B9A4A8",
"l. c #A3ADB1",
"z. c #BEAEB1",
"x. c #AAB5BA",
"c. c #B3B4B5",
"v. c #BBB2B4",
"b. c #B4BBBF",
"n. c #BDBDBD",
"m. c #C1B5B6",
"M. c #C5BCBC",
"N. c #BEC3C5",
"B. c #C2C2C2",
"V. c #CCCCCC",
"C. c #CBCED0",
"Z. c #CFD1D2",
"A. c #D3D3D3",
"S. c #DBDBDC",
"D. c #E4E4E4",
"F. c #ECECEC",
"G. c #F2F2F2",
"H. c #FFFFFF",
"J. c None",
/* pixels */
"J.J.J.J.J.J.J.J.J.J.J.J.J.J.J.J.J.J.J.J.J.J.J.J.J.J.J.J.J.J.J.J.J.J.J.J.J.J.J.J.J.J.J.J.J.J.J.J.J.J.J.J.J.J.J.J.J.J.J.J.J.J.J.J.",
"J.J.J.J.J.J.J.J.J.J.J.J.J.J.J.J.J.J.J.J.J.J.J.J.J.J.J.J.J.J.J.J.J.J.J.J.J.J.J.J.J.J.J.J.J.J.J.J.J.J.J.J.J.J.J.J.J.J.J.J.J.J.J.J.",
"J.J.J.J.J.J.J.J.J.J.J.J.J.J.J.J.J.J.J.J.J.J.J.J.J.J.J.J.J.J.J.J.J.J.J.J.J.J.J.J.J.J.J.J.J.J.J.J.J.J.J.J.J.J.J.J.J.J.J.J.J.J.J.J.",
"J.J.J.J.J.J.J.J.J.J.J.J.J.J.J.J.J.J.J.J.J.J.J.J.J.J.J.J.J.J.J.J.J.J.J.J.J.J.J.J.J.J.J.J.J.J.J.J.J.J.J.J.J.J.J.J.J.J.J.J.J.J.J.J.",
"J.J.J.J.J.J.J.J.J.J.J.J.J.J.J.J.J.J.J.J.J.J.J.J.J.J.J.J.J.J.J.J.J.J.J.J.J.J.J.J.J.J.J.J.J.J.J.J.J.J.J.J.J.J.J.J.J.J.J.J.J.J.J.J.",
"J.J.J.J.J.J.J.J.J.J.J.J.J.J.J.J.J.J.J.J.J.J.J.J.8 { >.,.,.,.,.,.,.;.q 4 J.J.J.J.J.J.J.J.J.J.J.J.J.J.J.J.J.J.J.J.J.J.J.J.J.J.J.J.",
"J.J.J.J.J.J.J.J.J.J.J.J.J.J.J.J.J.J.J.J.J.2 | ,.>.,.,.,.,.,.,.,.,.,.,.,.| . J.J.J.J.J.J.J.J.J.J.J.J.J.J.J.J.J.J.J.J.J.J.J.J.J.J.",
"J.J.J.J.J.J.J.J.J.J.J.J.J.J.J.J.J.J.J.3 _ ,.,.,.,.,.,.,.,.,.,.,.,.,.,.,.| V.V.J.J.J.J.J.J.J.J.J.J.J.J.J.J.J.J.J.J.J.J.J.J.J.J.J.",
"J.J.J.J.J.J.J.J.J.J.J.J.J.J.J.J.J.J.( ,.,.,.,.,.,.,.,.,.,.,.,.,.,.,.,.,.] H.H.G.z J.J.J.J.J.J.J.J.J.J.J.J.J.J.J.J.J.J.J.J.J.J.J.",
"J.J.J.J.J.J.J.J.J.J.J.J.J.J.J.J., :.,.,.,.,.,.,.,.,.,.,.,.,.,.,.,.,.,.,._ F.H.H.H.2.J.J.J.J.J.J.J.J.J.J.J.J.J.J.J.J.J.J.J.J.J.J.",
"J.J.J.J.J.J.J.J.J.J.J.J.J.J.J.6 ,.,.,.,.,.,.,.,.,.,.,.,.,.,.,.,.,.,.,.,.,.u.H.H.H.H.j J.J.J.J.J.J.J.J.J.J.J.J.J.J.J.J.J.J.J.J.J.",
"J.J.J.J.J.J.J.J.J.J.J.J.J.J.1 >.,.,.,.,.,.,.,.,.,.,.,.,.,.,.,.,.,.,.,.,.,._ Z.H.H.G.y J.J.J.& n % J.J.J.J.J.J.J.J.J.J.J.J.J.J.J.",
"J.J.J.J.J.J.J.J.J.J.J.J.J.J.;.>.,.,.,.,.,.,.,.,.,.,.,.,.,.,.,.,.,.| ..s.n.Z.c.G.H.G.  t J.& V V V $ J.J.J.J.J.J.J.J.J.J.J.J.J.J.",
"J.J.J.J.J.J.J.J.J.J.J.J.J.e ,.,.,.,.,.,.,.,.,.,.,.,.,.,.,.,.,.X.<.V.B.B.S.H.H.A.F.H.j j t B V V V n J.J.J.J.J.J.J.J.J.J.J.J.J.J.",
"J.J.J.J.J.J.J.J.J.J.J.J.J.>.,.,.,.,.,.,.,.,.,.,.,.,.,.,.,.,.} N.H.H.H.H.D.B.B.S.S.V.V.c.S.D V V V & J.J.J.J.J.J.J.J.J.J.J.J.J.J.",
"J.J.J.J.J.J.J.J.J.J.J.J.w ,.,.,.,.,.,.,.,.,.,.,.,.,.,.,.,.] D.H.H.H.H.H.H.H.H.D.B.D.H.H.H.v.b V b J.J.J.J.J.J.J.J.J.J.J.J.J.J.J.",
"J.J.J.J.J.J.J.J.J.J.J.J.,.,.,.,.,.,.,.,.,.,.,.,.,.,.,.,.{ S.H.F.H.H.H.H.H.H.H.H.H.H.H.H.H.H.J.J.J.J.J.J.J.J.J.J.J.J.J.J.J.J.J.J.",
"J.J.J.J.J.J.J.J.J.J.J.4 ,.,.,.,.,.,.,.,.,.,.,.,.,.,.,.>.s.H.H.D.V.V.V.V.V.V.V.V.F.H.H.H.H.H.8.J.J.J.J.J.J.J.J.J.J.J.J.J.J.J.J.J.",
"J.J.J.J.J.J.J.J.J.J.J.0 ,.,.,.,.,.,.,.,.,.,.,.,.,.,.,.] H.H.H.H.H.H.H.H.H.H.H.H.H.H.H.H.H.H.H.H.H.B.J.J.J.J.J.J.J.J.J.J.J.J.J.J.",
"J.J.J.J.J.J.J.J.J.J.J./ ,.,.,.,.,.,.,.,.,.,.,.,.,.,.,.l.H.H.H.H.H.H.H.H.H.F.B.S.H.H.H.H.H.H.H.H.H.H.J.J.J.J.J.J.J.J.J.J.J.J.J.J.",
"J.J.J.J.J.J.J.J.J.J.J._ ,.,.,.,.,.,.,.,.,.,.,.,.,.,._ F.H.H.H.H.D.V.e.U 3.A.H.H.H.H.H.H.H.H.H.H.H.H.J.J.J.J.J.J.J.J.J.J.J.J.J.J.",
"J.J.J.J.J.J.J.J.J.J.J.X.,.,.,.,.,.,.,.,.,.,.,.,.,.,.&.H.H.H.H.A.D.H.T L K A q.M.G.H.H.H.H.H.H.H.H.F.J.J.J.J.J.J.J.J.J.J.J.J.J.J.",
"J.J.J.J.J.J.J.J.J.J.J.X.,.,.,.,.,.,.,.,.,.,.,.,.,.,.c.H.H.H.H.H.H.H.R L L L L K @ Y v.G.H.H.H.H.H.2.J.J.J.J.J.J.J.J.J.J.J.J.J.J.",
"J.J.J.J.J.J.J.J.J.J.J.| ,.,.,.,.,.,.,.,.,.,.,.,.,.{ F.H.H.H.H.H.H.H.j.L L L L L K b V m u 2.g.B.8.J.J.J.J.J.J.J.J.J.J.J.J.J.J.J.",
"J.J.J.J.J.J.J.J.J.J.J._ ,.,.,.,.,.,.,.,.,.,.,.,.,. .H.H.H.H.H.H.H.H.G.G L L L L L Z N N J.J.J.J.J.J.J.J.J.J.J.J.J.J.J.J.J.J.J.J.",
"J.J.J.J.J.J.J.J.J.J.J.0 ,.,.,.,.,.,.,.,.,.,.,.,.,.#.H.H.H.H.H.H.H.H.H.r.L L L L L L * o J.J.J.J.J.J.J.J.J.J.J.J.J.J.J.J.J.J.J.J.",
"J.J.J.J.J.J.J.J.J.J.J.9 ,.,.,.,.,.,.,.,.,.,.,.,.,.$.H.H.H.H.H.H.H.H.H.G.G L L L L L c J.J.J.J.J.J.J.J.J.J.J.J.J.J.J.J.J.J.J.J.J.",
"J.J.J.J.J.J.J.J.J.J.J.J.,.,.,.,.,.,.,.,.,.,.,.,.,.#.H.H.H.H.H.H.H.H.H.H.M.J L L L L C J.J.J.J.J.J.J.J.J.J.J.J.J.J.J.J.J.J.J.J.J.",
"J.J.J.J.J.J.J.J.J.J.J.J.{ ,.,.,.,.,.,.,.,.,.,.,.,. .H.H.H.H.H.H.H.H.H.H.H.w.K K L L c J.J.J.J.J.J.J.J.J.J.J.J.J.J.J.J.J.J.J.J.J.",
"J.J.J.J.J.J.J.J.J.2.f.4.5 ,.,.,.,.,.,.,.,.,.,.,.>.| F.H.H.H.H.H.H.H.H.H.H.H.q.K L L * J.J.J.J.J.J.J.J.J.J.J.J.J.J.J.J.J.J.J.J.J.",
"J.J.J.J.J.J.J.J.V.H.H.H.F.o.>.,.,.,.,.,.,.,.,.,.,.,.l.H.H.H.H.H.H.H.H.H.H.H.H.r.H K O J.J.J.J.J.J.J.J.J.J.J.J.J.J.J.J.J.J.J.J.J.",
"J.J.J.J.J.J.J.2.H.H.H.H.H.b.;.,.,.,.,.,.,.,.,.,.,.,.] H.H.H.H.H.H.H.H.H.H.H.H.H.G.m.9.J.J.J.J.J.J.J.J.J.J.J.J.J.J.J.J.J.J.J.J.J.",
"J.J.J.J.J.J.J.f.H.H.H.H.H.A._ / / { ,.>.,.,.,.,.,.,.:.n.H.H.H.H.H.H.H.H.H.H.H.H.H.H.H.J.J.J.J.J.J.J.J.J.J.J.J.J.J.J.J.J.J.J.J.J.",
"J.J.J.J.J.J.J.4.H.H.H.H.H.N.>.,.>.| _ ( :.,.,.>.,.,.>.o.G.H.H.H.H.H.H.H.H.H.H.H.H.H.z J.J.J.J.J.J.J.J.J.J.J.J.J.J.J.J.J.J.J.J.J.",
"J.J.J.J.J.J.J.J.V.H.H.H.F.#.,.,.>.,.,.,._ / :.>.,.,.,.,.%.G.H.H.H.H.H.H.H.H.H.H.H.z J.J.J.J.J.J.J.J.J.J.J.J.J.J.J.J.J.J.J.J.J.J.",
"J.J.J.J.J.J.J.J.J.8.n.9.h >.,.,.,.,.,.,.>.>./ 5 d s s p p u I I P F F D S S M < @ + J.J.J.J.J.J.J.J.J.J.J.J.J.J.J.J.J.J.J.J.J.J.",
"J.J.J.J.J.J.J.J.J.J.J.J.J._ ,.,.,.,.,.,.,.,.,.;.d m V V V V V V V V V V V V V - v : E = J.J.J.J.J.J.J.J.J.J.J.J.J.J.J.J.J.J.J.J.",
"J.J.J.J.J.J.J.J.J.J.J.J.J.J./ ,.,.,.,.,.,.,.,.,.,.| g g g g g f 6.r.k.j.z.v.0.v E ~ E = J.J.J.J.J.J.J.J.J.J.J.J.J.J.J.J.J.J.J.J.",
"J.J.J.J.J.J.J.J.J.J.J.J.J.J.J./ ,.,.,.,.,.,.,.,.,.,.>.,.,.,.,.@.H.H.H.H.H.H.V.Q ~ ~ Q ; J.J.J.J.J.J.J.J.J.J.J.J.J.J.J.J.J.J.J.J.",
"J.J.J.J.J.J.J.J.J.J.J.J.J.J.J.J.7 :.,.,.,.,.,.,.,.,.,.,.,.,.;.N.H.H.H.H.H.H.H.W ~ ^ ^ ; J.J.J.J.J.J.J.J.J.J.J.J.J.J.J.J.J.J.J.J.",
"J.J.J.J.J.J.J.J.J.J.J.J.J.J.J.J.J.J._ ,.,.,.,.,.,.,.,.,.,.,.' H.H.H.H.H.H.H.H.F.t.! a J.J.J.J.J.J.J.J.J.J.J.J.J.J.J.J.J.J.J.J.J.",
"J.J.J.J.J.J.J.J.J.J.J.J.J.J.J.J.J.J.J.8 >.,.,.,.,.,.,.,.,.,.*.H.H.H.H.H.H.H.S.B.n.n.2.J.J.J.J.J.J.J.J.J.J.J.J.J.J.J.J.J.J.J.J.J.",
"J.J.J.J.J.J.J.J.J.J.J.J.J.J.J.J.J.J.J.J.q >.,.,.,.,.,.,.,.,.<.H.H.H.n.V.V.V.D.H.H.H.V.J.J.J.J.J.J.J.J.J.J.J.J.J.J.J.J.J.J.J.J.J.",
"J.J.J.J.J.J.J.J.J.J.J.J.J.J.J.o J.J.J.J.,.,.,.,.,.,.,.,.,.,.@.H.H.H.V.H.H.H.H.H.H.H.D.J.J.J.J.J.J.J.J.J.J.J.J.J.J.J.J.J.J.J.J.J.",
"J.J.J.J.J.J.J.J.J.J.J.J.J.J.b V V X J.J.,.,.,.,.,.,.,.,.,.,.) H.H.H.V.H.H.H.H.H.H.H.D.J.J.J.J.J.J.J.J.J.J.J.J.J.J.J.J.J.J.J.J.J.",
"J.J.J.J.J.J.J.J.J.J.J.J.J.J.V V V $ J., ,.,.,.,.,.,.,.,.,.,.;.B.H.H.B.H.H.H.H.H.H.H.S.X._ 7 J.J.J.J.J.J.J.J.J.J.J.J.J.J.J.J.J.J.",
"J.J.J.J.J.J.J.J.J.J.J.J.J.J.n V V X J.3 ,.,.,.,.,.,.,.,.,.,.,.+.H.H.D.A.H.H.H.H.H.G.4.,.>.,.0 J.J.J.J.J.J.J.J.J.J.J.J.J.J.J.J.J.",
"J.J.J.J.J.J.J.J.J.J.J.J.J.J.J.$ J.J.J.6 ,.,.,.,.,.,.,.,.,.,.,.>.y.H.H.S.n.A.D.Z.B.V.<.,.,.,.>.J.J.J.J.J.J.J.J.J.J.J.J.J.J.J.J.J.",
"J.J.J.J.J.J.J.J.J.J.J.J.J.J.J.J.J.J.J.7 ,.,.,.,.,.,.,.,.,.,.,.,.;.*.G.H.H.F.D.G.G.s.X.,.,.,.,.J.J.J.J.J.J.J.J.J.J.J.J.J.J.J.J.J.",
"J.J.J.J.J.J.J.J.J.J.J.J.J.J.J.J.J.J.J.5 ,.,.,.,.,.,.,.,.,.,.,.,.,.,. .a.x.b.x.1.[ >.,.,.,.;.O.5.g.J.J.J.J.J.J.J.J.J.J.J.J.J.J.J.",
"J.J.J.J.J.J.J.J.J.J.J.J.J.J.J.J.J.S.H.u.,.,.,.,.,.,.,.,.,.,.,.,.,.,.,.,.,.,.,.,.,.,.,.} y.C.H.H.H.H.z J.J.J.J.J.J.J.J.J.J.J.J.J.",
"J.J.J.J.J.J.J.J.J.J.J.J.J.J.J.J.n.H.H.d.,.,.,.,.,.,.,.,.,.,.,.,.,.,.,.,.,.,.>.,.,.:.] S.H.H.H.H.H.H.f.J.J.J.J.J.J.J.J.J.J.J.J.J.",
"J.J.J.J.J.J.J.J.J.J.J.J.J.J.J.J.H.H.H.V.-.,.,.,.,.,.,.,.,.,.,.,.,.,.,.,.-.q ;.:.] x.H.H.H.H.H.H.H.H.f.J.J.J.J.J.J.J.J.J.J.J.J.J.",
"J.J.J.J.J.J.J.J.J.J.J.J.J.J.J.J.H.H.H.H.` ,.,.,.,.,.,.,.,.,.,.,.,.,.>._ J.1 | d.H.H.H.H.H.H.H.H.H.F.J.J.J.J.J.J.J.J.J.J.J.J.J.J.",
"J.J.J.J.J.J.J.J.J.J.J.J.J.J.J.J.H.H.H.H.y.,.,.,.,.,.,.,.,.,.,.,.,.,.e J.J.J.x H.H.H.H.H.H.H.H.H.D.J.J.J.J.J.J.J.J.J.J.J.J.J.J.J.",
"J.J.J.J.J.J.J.J.J.J.J.J.J.J.J.J.H.H.H.H.A.X.,.,.,.,.,.,.,.,.,.,.{ 2 J.J.J.J.n.H.H.H.H.H.H.H.H.9.J.J.J.J.J.J.J.J.J.J.J.J.J.J.J.J.",
"J.J.J.J.J.J.J.J.J.J.J.J.J.J.J.J.f.H.H.H.H.u.>.>.,.,.,.,.,.,.X.6 J.J.J.J.J.J.x H.H.H.H.H.H.B.J.J.J.J.J.J.J.J.J.J.J.J.J.J.J.J.J.J.",
"J.J.J.J.J.J.J.J.J.J.J.J.J.J.J.J.J.H.H.H.H.H.7.| ,.,.,.,._ 1 J.J.J.J.J.J.J.J.J.k g.Z.V.9.t J.J.J.J.J.J.J.J.J.J.J.J.J.J.J.J.J.J.J.",
"J.J.J.J.J.J.J.J.J.J.J.J.J.J.J.J.J.9.H.H.H.H.H.S.l J.J.J.J.J.J.J.J.J.J.J.J.J.J.J.J.J.J.J.J.J.J.J.J.J.J.J.J.J.J.J.J.J.J.J.J.J.J.J.",
"J.J.J.J.J.J.J.J.J.J.J.J.J.J.J.J.J.J.V.H.H.H.H.H.4.J.J.J.J.J.J.J.J.J.J.J.J.J.J.J.J.J.J.J.J.J.J.J.J.J.J.J.J.J.J.J.J.J.J.J.J.J.J.J.",
"J.J.J.J.J.J.J.J.J.J.J.J.J.J.J.J.J.J.J.S.H.H.H.D.J.J.J.J.J.J.J.J.J.J.J.J.J.J.J.J.J.J.J.J.J.J.J.J.J.J.J.J.J.J.J.J.J.J.J.J.J.J.J.J.",
"J.J.J.J.J.J.J.J.J.J.J.J.J.J.J.J.J.J.J.J.4.f.8.J.J.J.J.J.J.J.J.J.J.J.J.J.J.J.J.J.J.J.J.J.J.J.J.J.J.J.J.J.J.J.J.J.J.J.J.J.J.J.J.J.",
"J.J.J.J.J.J.J.J.J.J.J.J.J.J.J.J.J.J.J.J.J.J.J.J.J.J.J.J.J.J.J.J.J.J.J.J.J.J.J.J.J.J.J.J.J.J.J.J.J.J.J.J.J.J.J.J.J.J.J.J.J.J.J.J.",
"J.J.J.J.J.J.J.J.J.J.J.J.J.J.J.J.J.J.J.J.J.J.J.J.J.J.J.J.J.J.J.J.J.J.J.J.J.J.J.J.J.J.J.J.J.J.J.J.J.J.J.J.J.J.J.J.J.J.J.J.J.J.J.J."
};
