/* XPM */
static char *result[] = {
/* columns rows colors chars-per-pixel */
"64 64 225 2 ",
"   c #1C1C0A",
".  c #191612",
"X  c #0C0B09",
"o  c #142404",
"O  c #142B04",
"+  c #1A2D04",
"@  c #1F2309",
"#  c #1E2C09",
"$  c #1B2704",
"%  c #173202",
"&  c #1B3403",
"*  c #1C3C03",
"=  c #1C340B",
"-  c #1A3B08",
";  c #222C0B",
":  c #24280A",
">  c #233506",
",  c #233A03",
"<  c #23350A",
"1  c #243B09",
"2  c #2A3C0B",
"3  c #293907",
"4  c #342C17",
"5  c #263814",
"6  c #3B341C",
"7  c #373B16",
"8  c #2E3111",
"9  c #343125",
"0  c #433B1F",
"q  c #423B22",
"w  c #1D4202",
"e  c #1D4507",
"r  c #234403",
"t  c #2C4504",
"y  c #244A03",
"u  c #2B4C03",
"i  c #24440A",
"p  c #2A450A",
"a  c #244C09",
"s  c #2C4B0B",
"d  c #334B0A",
"f  c #36470A",
"g  c #2C5203",
"h  c #2E530A",
"j  c #275402",
"k  c #335404",
"l  c #345C04",
"z  c #3A5B04",
"x  c #33530C",
"c  c #3A530B",
"v  c #355B0A",
"b  c #3D5B0C",
"n  c #264312",
"m  c #294A11",
"M  c #374618",
"N  c #2D5217",
"B  c #3A5D13",
"V  c #365615",
"C  c #3D6303",
"Z  c #3B640C",
"A  c #3A6703",
"S  c #3A6419",
"D  c #384924",
"F  c #38612B",
"G  c #424A0D",
"H  c #425C0B",
"J  c #415809",
"K  c #435517",
"L  c #426303",
"P  c #436A03",
"I  c #4B6C03",
"U  c #456C0C",
"Y  c #48680C",
"T  c #447102",
"R  c #4B7105",
"E  c #4C720A",
"W  c #4B7809",
"Q  c #547405",
"!  c #54750B",
"~  c #567E0C",
"^  c #5A7B08",
"/  c #456312",
"(  c #476818",
")  c #536A1A",
"_  c #4D7414",
"`  c #457016",
"'  c #537413",
"]  c #537A13",
"[  c #5B7B13",
"{  c #58761B",
"}  c #556F06",
"|  c #667919",
" . c #4A4629",
".. c #475A28",
"X. c #4C5D34",
"o. c #514F2C",
"O. c #486727",
"+. c #536B25",
"@. c #4F7427",
"#. c #577927",
"$. c #576739",
"%. c #5D7A34",
"&. c #637729",
"*. c #707E34",
"=. c #5B6F45",
"-. c #63684C",
";. c #837F63",
":. c #5B8106",
">. c #5C831A",
",. c #5D8511",
"<. c #63840B",
"1. c #658A08",
"2. c #6C930C",
"3. c #6E990C",
"4. c #769809",
"5. c #618414",
"6. c #678817",
"7. c #6C9213",
"8. c #699216",
"9. c #729515",
"0. c #799817",
"q. c #7EA708",
"w. c #7DA318",
"e. c #5E8237",
"r. c #688726",
"t. c #728D22",
"y. c #6D9225",
"u. c #749525",
"i. c #7A9A27",
"p. c #6A8938",
"a. c #75883A",
"s. c #799733",
"d. c #79A52B",
"f. c #7FA03B",
"g. c #799648",
"h. c #758755",
"j. c #7A9C5B",
"k. c #6F8F4B",
"l. c #7C8E66",
"z. c #81A40B",
"x. c #88AB08",
"c. c #97B80A",
"v. c #83A21C",
"b. c #8CAB1B",
"n. c #86A717",
"m. c #8EB512",
"M. c #93B314",
"N. c #9BB917",
"B. c #8DB309",
"V. c #A3BD18",
"C. c #819738",
"Z. c #819F2C",
"A. c #87A827",
"S. c #91A92E",
"D. c #99B725",
"F. c #8CA939",
"G. c #93A937",
"H. c #98B436",
"J. c #8DB12E",
"K. c #A3BE2A",
"L. c #A2B837",
"P. c #9DC409",
"I. c #9FC21B",
"U. c #A5C70C",
"Y. c #ABCC13",
"T. c #A6C617",
"R. c #B6D416",
"E. c #B4D117",
"W. c #9FC131",
"Q. c #A7C528",
"!. c #B1CB2A",
"~. c #BBD828",
"^. c #AAC435",
"/. c #B2CB39",
"(. c #B8D336",
"). c #BEE133",
"_. c #C2DD17",
"`. c #C9E61A",
"'. c #C5DE2B",
"]. c #C1DA33",
"[. c #CEE431",
"{. c #D4ED32",
"}. c #81944A",
"|. c #859958",
" X c #8BA544",
".X c #89A549",
"XX c #99B747",
"oX c #88A655",
"OX c #97AC52",
"+X c #9AB657",
"@X c #A8BB47",
"#X c #86986B",
"$X c #90996D",
"%X c #9AA565",
"&X c #90A672",
"*X c #ABB869",
"=X c #A8B37F",
"-X c #AAC641",
";X c #B5CA49",
":X c #BFD844",
">X c #B6CD5A",
",X c #B8D055",
"<X c #B5C96D",
"1X c #C8D857",
"2X c #C9DB46",
"3X c #CCE245",
"4X c #D3EA45",
"5X c #D8EC59",
"6X c #C7D36E",
"7X c #C9E063",
"8X c #A9B788",
"9X c #B7BFA4",
"0X c #B8C888",
"qX c #BBD686",
"wX c #B4CD8A",
"eX c #C5D48E",
"rX c #C1CC98",
"tX c #C6D393",
"yX c #DBEA83",
"uX c #CDD2BB",
"iX c #D1D9AF",
"pX c #DDECB3",
"aX c #DCE0C9",
"sX c #E4EACC",
"dX c None",
/* pixels */
"dXdXdXdXdXdXdXdXdXdXdXdXdXdXdXdXdXdXdXdXdXdXdXdXdXdXdXdXdXdX4X1X[.dXdXdXdXdXdXdXdXdXdXdXdXdXdXdXdXdXdXdXdXdXdXdXdXdXdXdXdXdXdXdX",
"dXdXdXdXdXdXdXdXdXdXdXdXdXdXdXdXdXdXdXdXdXdXdXdXdXdXdXdXdXdX[.dXdXdXdXdXdXdXdXdXdXdXdXdXdXdXdXdXdXdXdXdXdXdXdXdXdXdXdXdXdXdXdXdX",
"dXdXdXdXdXdXdXdXdXdXdXdXdXdXdXdXdXdXdXdXdXdXdXdXdXdXdXdXdX4X>XdXc.dXdXdXdXdXdXdXdXdXdXdXdXdXdXdXdXdXdXdXdXdXdXdXdXdXdXdXdXdXdXdX",
"dXdXdXdXdXdXdXdXdXdXdXdXdXdXdXdXdXdXdXdXdXdXdXdXdX{.3XdXdX2XQ.dX| dXdXdXdX@XdXdXdXdXdXdXdXdXdXdXdXdXdXdXdXdXdXdXdXdXdXdXdXdXdXdX",
"dXdXdXdXdXdXdXdXdXdXdXdXdXdXdXdXdXdXdXdXdXdXdXdX3X^.W.H.).~.8.>.v.[ c.'.~.G.dXdXdXdXdXdXdXdXdXdXdXdXdXdXdXdXdXdXdXdXdXdXdXdXdXdX",
"dXdXdXdXdXdXdXdXdXdXdXdXdXdXdXdXdXdXdXdXdXdXdXdXQ.N.2.w.3.3.8.W B 6.0.x.H.OX0.dXdXdXdXdXdXdXdXdXdXdXdXdXdXdXdXdXdXdXdXdXdXdXdXdX",
"dXdXdXdXdXdXdXdXdXdXdXdXdXdXdXdXdXdXdXdXdXdXdXdXY.A.u.:.T p.@.v B ) dXE ! Q v.dXdXdXdXdXdXdXdXdXdXdXdXdXdXdXdXdXdXdXdXdXdXdXdXdX",
"dXdXdXdXdXdXdXdXdXdXdXdXdXdXdXdXdXdXdXdXdXdXdXH.P.i.r.U E A a e s F Z z E U dXdXdXdXdXdXdXdXdXdXdXdXdXdXdXdXdXdXdXdXdXdXdXdXdXdX",
"dXdXdXdXdXdXdXdXdXdXdXdXdXdXdXdXdXdXdXdXdXdXdXdXdXQ..X' 6.U e e s N Z a e h dXV.dXdXdXdXdXdXdXdXdXdXdXdXdXdXdXdXdXdXdXdXdXdXdXdX",
"dXdXdXdXdXdXdXdXdXdXdXdXdXdXdXdXdXdXdXdXdXdXdXdXdXN.m.w.9.U i e x a h m g B ! Q dXdXdXdXdXdXdXdXdXdXdXdXdXdXdXdXdXdXdXdXdXdXdXdX",
"dXdXdXdXdXdXdXdXdXdXdXdXdXdXdXdXdXdXdXdXdXdXdXdXdX(.XX,.` U l 5 k u a e v b ( b 4.4.dXdXdXdXdXdXdXdXdXdXdXdXdXdXdXdXdXdXdXdXdXdX",
"dXdXdXdXdXdXdXdXdXdXdXdXdXdXdXdXdXdXdXdXdXdXP.OXw.Q.y.I W H f c g 4.<.k x S O.V ' Q dXdXdXdXdXdXdXdXdXdXdXdXdXdXdXdXdXdXdXdXdXdX",
"dXdXdXdXdXdXdXdXdXdXdXdXdXdXdXdXdXdXdXdXdXm.m.u.8.y.2.8.j 1.G &.M dX} x u a i x Y dXdXdXdXdXdXdXdXdXdXdXdXdXdXdXdXdXdXdXdXdXdXdX",
"dXdXdXdXdXdXdXdXdXdXdXdXdXdXdXdXdXdXdXdXdXdXdXU.Z S :.W u %X-.dXdXk <.f 1 r w a dXdXdXdXdXdXdXdXdXdXdXdXdXdXdXdXdXdXdXdXdXdXdXdX",
"dXdXdXdXdXdXdXdXdXdXdXdXdXdXdXdXdXdXdXdXdXdXY.U.2.W S z I &X$.z.P l dXk k r u dXdXdXdXdXdXdXdXdXdXdXdXdXdXdXdXdXdXdXdXdXdXdXdXdX",
"dXdXdXdXdXdXdXdXdXdXdXdXdXdXdXdXdXdXdXdXdX_.dX~.P.T A l l z B k l l u dXz l Q dXdXdXdXdXdXdXdXdXdXdXdXdXdXdXdXdXdXdXdXdXdXdXdXdX",
"dXdXdXdXdXdXdXdXdXdXdXdXdXdXdXdXdXdXdXdXdX5X3X5X<X5.G.|.F a #X( q.] h dXx 5.x.^ dXdXdXdXdXdXdXdXdXdXdXdXdXdXdXdXdXdXdXdXdXdXdXdX",
"dXdXdXdXdXdXdXdXdXdXdXdXdXdXdXdXdXdXdXdX3XdX6.aXrX}.Z #.+.d 7 4.{ $.l C Y z Y %.dXdX9XdXdXdXdXdXdXdXdXdXdXdXdXdXdXdXdXdXdXdXdXdX",
"dXdXdXdXdXdXdXdXdXdXdXdXdXdXdXdXdXdXdXdX'.dX1.7XH.Z ~ Y i.A.D l e i w i * l k.l.OXdXC.dXdXdX6XdXdXdXdXdXdXdXdXdXdXdXdXdXdXdXdXdX",
"dXdXdXdXdXdXdXdXdXdXdXdXdXdXdXdXdXdXdXdXdXdX3.N.k.>.I R C Z  .e w x * p p L r.' ) 6.dXdX2X;XD.;XdXdXdXdXdXdXdXdXdXdXdXdXdXdXdXdX",
"dXdXdXdXdXdXdXdXdXdXdXdXdXdXdXdXdXdXdXdXdXdXdXB.{ oX' ! u u ..k w y w c b s v z J +.p.dXR.D.D.-XK.@XS.dXdXdXdXdXdXdXdXdXdXdXdXdX",
"dXdXdXdXdXdXdXdXdXdXdXdXdXdXdXdXdXdXdXdXdXdXc.T ] g.%._ z k p.9.u w d d J a m d b t.|.dXU.Q.H.>XD.V.dXdXdXdXdXdXdXdXdXdXdXdXdXdX",
"dXdXdXdXdXdXdXdXdXdXdXdXdXdXdXdXdXdXdXdXdXdXdXh.dX5.dXb.s.G.p.<.d F.G ' $.=.1 f H ^ ] C.U.Q..X+XL.y.^ dXdXdXdXdXdXdXdXdXdXdXdXdX",
"dXdXdXdXdXdXdXdXdXdXdXdXdXdXdXdXdXdXdXdXdXdXuX7XdX3.9.M.A.G.' ^ N.L.0.*.=.$.s G J / { C.<.b.oX#.6.| Q dXdXdXdXdXdXdXdXdXdXdXdXdX",
"dXdXdXdXdXdXdXdXdXdXdXdXdXdXdXdXdXdXdXdXdXP.^.dXF.>XM._.c.v.dXI | dXb.a.<Xg.B O.M i V [ b.OXg.e. XQ I dXdXdXdXdXdXdXdXdXdXdXdXdX",
"dXdXdXdXdXdXdXdXdXdXdXdXdXdXdXdXdXdXdXdXdXdXdX{.(.b.Q.x.n.dX{ m.<X@XE.=XV ' | { D.[ I A.sX8XS ` { H L +.| dXdXdXdXdXdXdXdXdXdXdX",
"dXdXdXdXdXdXdXdXdXdXdXdXdXdXdXdXdXdXdXdXdXdXP.0.5XE.:X:XJ.2.P q.9.z.~.>.<.G.p.O.dXdXf V D _ d.j.a g dXdXB ! dXdXdXdXdXdXdXdXdXdX",
"dXdXdXdXdXdXdXdXdXdXdXdXdXdXdXL.[.L.dX1XdXdXdXdXY.v.F.x.x.x.z.A.d.:.u ( <X8X)  XdXt.8.E Z S e % w g Y J J dXdXdXdXdXdXdXdXdXdXdX",
"dXdXdXdXdXdXdXdXdXdXdXdXdXdXdXdXdXN.dXdXdXdXdXdXdX).dXqXk.j.d.z.E y.0.XX+XQ.u.Y d dX| wXdX&Xx r * n i dXc dXdXdXdXdXdXdXdXdXdXdX",
"dXdXdXdXdXdXdXdXdXdXdXdXdXdXdXdXR.(.dXM.dXdXdXeXY.W.<X>.A j dXA g s.A / H ^ ^ H s.y.D.J.J 2 u 2 s x i dXdXdXdXdXdXdXdXdXdXdXdXdX",
"dXdXdXdXdXdXdXdXdXdXdXdXdXdXdXU.Y.Q.b.;Xb.dXV./.dXdXs.` j y j d.x w 1..Xl R I H dXdXz.z K g Y ) dXdXdXdXdXdXdXdXdXdXdXdXdXdXdXdX",
"dXdXdXdXdXdXdXdXdXdXdXdXdXdXdXdXR.n.K.!.J.^.^.U.dXw.XX>.j e j l l u l l l z H L L z k c dXk dXdXdX/ dXdXdXdXdXdXdXdXdXdXdXdXdXdX",
"dXdXdXdXdXdXdXdXdXdXdXdXdXdXdXdXT.v.dXdXdX1.N.0.A.1.w.#.( N j y #.U A y u k x g u c t u dXK dXh N c H dXdXdXdXdXdXdXdXdXdXdXdXdX",
"dXdXdXdXdXdXdXdXdXdXdXdXdXdXdXdXD.6.~ [ dX| 8.I 8.C.XX<X.X` l N h.e w w w u r * & * % y - D i i > t c dXdXdXdXdXdXdXdXdXdXdXdXdX",
"dXdXdXdXdXdXdXdXdXdXdXdXdXdXdXdXz.W t.] /.v.q.i.d.<XG.+Xe.l p.&XX.p & & * * 1 * + O + * O % = - 5 D dXdXdXdXdXdXdXdXdXdXdXdXdXdX",
"dXdXdXdXdXdXdXdXdXdXdXdXdXdXdXdXN.b.!.M.Y.v.,X@XQ.iX*Xr.#.B &.h.s.t t r t t i 1 O & = > * = O 5 5 M -.dXdXdXdXdXdXdXdXdXdXdXdXdX",
"dXdXdXdXdXdXdXdXdXdXdXdXdXdXdXdXdX>XE.~.c.,..X!./.yX0X5.t.| r.8Xt.oX%.l.u 1 % + M n + & p ..7 + = n X.dXdXdXdXdXdXdXdXdXdXdXdXdX",
"dXdXdXdXdXdXdXdXdXdXdX[.7XdX{.dXdXiX Xi.:.L ( <.p.+X#.I E 8XuX=X#.s.{ $.; % O O n i - X.1 ..M f + dXdXdXdXdXdXdXdXdXdXdXdXdXdXdX",
"dXdXdXdXdXdXdXdXdXdXdXdXE.XXpXdX6XaX>XrX( g H B iXaX@XK.0.D.0XeX<Xn.M.  o + + & % % x N $.p + > 2 dXdXdXdXdXdXdXdXdXdXdXdXdXdXdX",
"dXdXdXdXdXdXdXdXdXdXY.dXdXT. X9..XwX.Xe.3.9XuX$.p.uXy.b.J.A.&.$Xj.U / dXdXf : = & & & i 1 + > dXG dXdXdXdXdXdXdXdXdXdXdXdXdXdXdX",
"dXdXdXdXdXdXdXdXdXdXdXdXqXc.! i.tXdXT.<.rXr.OX&X#.a.p.g.#.H B O.[ u t dXK 2 :   O dXr * H dXdXdXdXdXdXdXdXdXdXdXdXdXdXdXdXdXdXdX",
"dXdXdXdXdXdXdXdXdXdXdXdXV.R.(.-XY.2.4.+Xh.$X8X( E s v R d 2 O.V f , t dXt c M 2 % % * u = dXdXdXdXdXdXdXdXdXdXdXdXdXdXdXdXdXdXdX",
"dXdXdXdXdXdXdXdXdXdXdXF.dXL ! 4.2.r.{ Y O.' #X, ) p ) #., 7 7 : 2 O , t p M p & dX* d B dXdXdXdXdXdXdXdXdXdXdXdXdXdXdXdXdXdXdXdX",
"dXdXdXdXdXdXdXdXdXdXdXdX>.v.Y.w.Q y x [ Y u * , r k C ' ^ H 7 : 2 o 3 , % + & > < 1 dXdXdXdXdXdXdXdXdXdXdXdXdXdXdXdXdXdXdXdXdXdX",
"dXdXdXdXdXdXdXdXdXdXdXdXV.T.E.N.v.l / >.P k r , & * H F.s.H 3   : o + , & & & = ; + 5 -.dXdXdXdXdXdXdXdXdXdXdXdXdXdXdXdXdXdXdXdX",
"dXdXdXdXdXdXdXdXdXdXdX`.U.1.I.dXx.:.! C k.x r t : + , ) ) z 7 :   > : $ + > = o ; < dXdXdXdXdXdXdXdXdXdXdXdXdXdXdXdXdXdXdXdXdXdX",
"dXdXdXdXdXdXdXdXdXdXdXdXdXdXdX:.A.>.8.` k.x * w > , 3 3 dXh.o.4 : > 8 $ + 3 < + 5 # dXdXdXdXdXdXdXdXdXdXdXdXdXdXdXdXdXdXdXdXdXdX",
"dXdXdXdXdXdXdXdXdXdXdXdXdX8.M.a.oX_ W %.e.e dX% * 3 dXdXdX;. .4 : : @ o O + + = 5 5 2 D dXdXdXdXdXdXdXdXdXdXdXdXdXdXdXdXdXdXdXdX",
"dXdXdXdXdXdXdXdXdXdXdXdXdXdXdX( @.r y N ..dX& % dXdXdXdXdXdXq 4 o dXo o ; 5 + + > D dXdXdXdXdXdXdXdXdXdXdXdXdXdXdXdXdXdXdXdXdXdX",
"dXdXdXdXdXdXdXdXdXdXdXdXdXdXF e * n i - : dXdXdXdXdXdXdXdXdX .0 dXdX$ o + < dXdX> dXdXdXdXdXdXdXdXdXdXdXdXdXdXdXdXdXdXdXdXdXdXdX",
"dXdXdXdXdXdXdXdXdXdXdXdXdXdXdXdXdXdXdXdXdXdXdXdXdXdXdXdXdXdXq q dXdXdXo o + dXdXdXdXdXdXdXdXdXdXdXdXdXdXdXdXdXdXdXdXdXdXdXdXdXdX",
"dXdXdXdXdXdXdXdXdXdXdXdXdXdXdXdXdXdXdXdXdXdXdXdXdXdXdXdXdXdX0 q dXdXdXo dXdXdXdXdXdXdXdXdXdXdXdXdXdXdXdXdXdXdXdXdXdXdXdXdXdXdXdX",
"dXdXdXdXdXdXdXdXdXdXdXdXdXdXdXdXdXdXdXdXdXdXdXdXdXdXdXdXdXdXq q dXdXdXdXdX# dXdXdXdXdXdXdXdXdXdXdXdXdXdXdXdXdXdXdXdXdXdXdXdXdXdX",
"dXdXdXdXdXdXdXdXdXdXdXdXdXdXdXdXdXdXdXdXdXdXdXdXdXdXdXdXdXdXq 4 dXdXdXdXdXdXdXdXdXdXdXdXdXdXdXdXdXdXdXdXdXdXdXdXdXdXdXdXdXdXdXdX",
"dXdXdXdXdXdXdXdXdXdXdXdXdXdXdXdXdXdXdXdXdXdXdXdXdXdXdXdXdXdX .4 dXdXdXdXdXdXdXdXdXdXdXdXdXdXdXdXdXdXdXdXdXdXdXdXdXdXdXdXdXdXdXdX",
"dXdXdXdXdXdXdXdXdXdXdXdXdXdXdXdXdXdXdXdXdXdXdXdXdXdXdXdXdXdX .6 dXdXdXdXdXdXdXdXdXdXdXdXdXdXdXdXdXdXdXdXdXdXdXdXdXdXdXdXdXdXdXdX",
"dXdXdXdXdXdXdXdXdXdXdXdXdXdXdXdXdXdXdXdXdXdXdXdXdXdXdXdXdXdXq 4 dXdXdXdXdXdXdXdXdXdXdXdXdXdXdXdXdXdXdXdXdXdXdXdXdXdXdXdXdXdXdXdX",
"dXdXdXdXdXdXdXdXdXdXdXdXdXdXdXdXdXdXdXdXdXdXdXdXdXdXdXdXdXdXq 6 dXdXdXdXdXdXdXdXdXdXdXdXdXdXdXdXdXdXdXdXdXdXdXdXdXdXdXdXdXdXdXdX",
"dXdXdXdXdXdXdXdXdXdXdXdXdXdXdXdXdXdXdXdXdXdXdXdXdXdXdXdXdXdX9 6 dXdXdXdXdXdXdXdXdXdXdXdXdXdXdXdXdXdXdXdXdXdXdXdXdXdXdXdXdXdXdXdX",
"dXdXdXdXdXdXdXdXdXdXdXdXdXdXdXdXdXdXdXdXdXdXdXdXdXdXdXdXdXdX9 : dXdXdXdXdXdXdXdXdXdXdXdXdXdXdXdXdXdXdXdXdXdXdXdXdXdXdXdXdXdXdXdX",
"dXdXdXdXdXdXdXdXdXdXdXdXdXdXdXdXdXdXdXdXdXdXdXdXdXdXdXdXdXdX4 . dXdXdXdXdXdXdXdXdXdXdXdXdXdXdXdXdXdXdXdXdXdXdXdXdXdXdXdXdXdXdXdX",
"dXdXdXdXdXdXdXdXdXdXdXdXdXdXdXdXdXdXdXdXdXdXdXdXdXdXdXdXdXdX. . dXdXdXdXdXdXdXdXdXdXdXdXdXdXdXdXdXdXdXdXdXdXdXdXdXdXdXdXdXdXdXdX",
"dXdXdXdXdXdXdXdXdXdXdXdXdXdXdXdXdXdXdXdXdXdXdXdXdXdXdXdXdXdX. . dXdXdXdXdXdXdXdXdXdXdXdXdXdXdXdXdXdXdXdXdXdXdXdXdXdXdXdXdXdXdXdX",
"dXdXdXdXdXdXdXdXdXdXdXdXdXdXdXdXdXdXdXdXdXdXdXdXdXdXdXdXdXdX9 . X dXdXdXdXdXdXdXdXdXdXdXdXdXdXdXdXdXdXdXdXdXdXdXdXdXdXdXdXdXdXdX"
};
